<?xml version="1.0" encoding="utf-8"?>
<!-- Generator: Adobe Illustrator 19.2.1, SVG Export Plug-In . SVG Version: 6.00 Build 0)  -->
<svg version="1.1" id="Layer_1" xmlns="http://www.w3.org/2000/svg" xmlns:xlink="http://www.w3.org/1999/xlink" x="0px" y="0px"
	 viewBox="0 0 59 59" style="enable-background:new 0 0 59 59;" xml:space="preserve">
<style type="text/css">
	.st0{fill:#5A758D;}
</style>
<g>
	<path class="st0" d="M59,20.5c0-0.1,0-0.1-0.1-0.2l0,0l-0.1-0.1l0,0l0,0c0,0,0,0-0.1,0l-4.8-1.8c0.9-0.7,1.4-1.5,1.4-2.4
		c0-2.4-3.5-4.3-8.1-4.3c-2.3,0-4.4,0.5-5.8,1.3l-5.1-2.2c0.8-0.7,1.3-1.5,1.3-2.4C37.6,5.9,34,4,29.5,4s-8.1,1.9-8.1,4.3
		c0,0.9,0.5,1.7,1.3,2.4l-4.4,1.9c-1.4-0.6-3.2-1-5.3-1c-4.4,0-8,1.8-8,4.2c0,0.8,0.3,1.4,1,2.1L0.3,20c0,0,0,0-0.1,0l0,0l0,0
		l-0.1,0.1l0,0C0,20.3,0,20.4,0,20.5l0,0v21c0,0.2,0.1,0.4,0.3,0.5l28,13c0.1,0,0.1,0,0.2,0s0.1,0,0.2,0l30-13
		c0.2-0.1,0.3-0.3,0.3-0.5V20.5L59,20.5z M54.2,15.8c0,0.8-0.6,1.5-1.6,2c-0.1,0-0.2,0.1-0.3,0.2c-1.3,0.7-3.1,1.1-5.2,1.1
		c-3.8,0-7.1-1.5-7.1-3.3c0-0.7,0.6-1.4,1.5-2l0,0c1.3-0.8,3.3-1.3,5.5-1.3C51,12.6,54.2,14.1,54.2,15.8z M29.5,5
		c3.8,0,7.1,1.5,7.1,3.3c0,0.8-0.6,1.5-1.5,2c0,0-0.1,0-0.1,0.1c-1.3,0.7-3.3,1.2-5.4,1.2c-3.8,0-7.1-1.5-7.1-3.3
		C22.4,6.5,25.7,5,29.5,5z M23.8,11.3c1.5,0.8,3.5,1.2,5.7,1.2c2.3,0,4.3-0.5,5.7-1.2l5.1,2.2c-0.8,0.7-1.2,1.5-1.2,2.3
		c0,2.4,3.5,4.3,8.1,4.3c2.2,0,4.2-0.5,5.6-1.2l4.4,1.6L28.5,33L1.8,20.5l5.1-1.9c1.5,0.9,3.7,1.5,6.2,1.5c4.5,0,8.1-1.9,8.1-4.3
		c0-1-0.6-1.9-1.7-2.7L23.8,11.3z M13.1,12.6c1.9,0,3.7,0.4,5,1l0,0c1.3,0.6,2.1,1.4,2.1,2.3c0,1.8-3.2,3.3-7.1,3.3
		c-2.4,0-4.5-0.6-5.8-1.4l-0.1-0.1C6.5,17.1,6,16.5,6,15.8C6,14.1,9.3,12.6,13.1,12.6z M1,21.3l27,12.5v19.9L1,41.2V21.3z M58,41.2
		L29,53.7V33.8l29-12.6V41.2z"/>
	<path class="st0" d="M29.5,26.4c4.5,0,8.1-1.9,8.1-4.3s-3.5-4.3-8.1-4.3c-4.5,0-8.1,1.9-8.1,4.3C21.4,24.6,25,26.4,29.5,26.4z
		 M29.5,18.9c3.8,0,7.1,1.5,7.1,3.3s-3.2,3.3-7.1,3.3c-3.8,0-7.1-1.5-7.1-3.3C22.4,20.4,25.7,18.9,29.5,18.9z"/>
</g>
</svg>
