<?xml version="1.0" encoding="utf-8"?>
<!-- Generator: Adobe Illustrator 19.2.1, SVG Export Plug-In . SVG Version: 6.00 Build 0)  -->
<svg version="1.1" id="Layer_1" xmlns="http://www.w3.org/2000/svg" xmlns:xlink="http://www.w3.org/1999/xlink" x="0px" y="0px"
	 viewBox="0 0 58.6 46.9" style="enable-background:new 0 0 58.6 46.9;" xml:space="preserve">
<style type="text/css">
	.st0{fill-rule:evenodd;clip-rule:evenodd;fill:#3692CF;}
</style>
<path class="st0" d="M55.7,2.8c0.2,0.2,0.3,0.4,0.4,0.7L55.7,2.8z M2.9,2.8L2.4,3.4C2.5,3.2,2.7,3,2.9,2.8z M4,0L4,0
	C1.8,0,0,1.8,0,4v12.4h2.3V4c0,0,0,0,0-0.1l26.3,16.5c0.4,0.2,0.9,0.2,1.2,0l3.3-2.1l3.3-2.1l6.6-4.2l-1.3-2l-6.6,4.2L32,16.4
	l-2.7,1.7L4.3,2.3h50.1l-2.5,1.6l-6.6,4.2l1.2,2L49.8,8l3.3-2.1l3.2-2c0,0,0,0,0,0.1v28.7v0v10.5l-7.9-6.4c-0.2-0.2-0.5-0.3-0.7-0.3
	H4c-0.9,0-1.6-0.7-1.6-1.6V18.7H0v16.2c0,2.2,1.8,4,4,4h43.2l9.5,7.7c0.8,0.6,1.9,0.1,1.9-0.9v-12v0V4c0-2.2-1.8-4-4-4H4z"/>
</svg>
