<?xml version="1.0" encoding="utf-8"?>
<!-- Generator: Adobe Illustrator 19.2.1, SVG Export Plug-In . SVG Version: 6.00 Build 0)  -->
<svg version="1.1" id="Layer_1" xmlns="http://www.w3.org/2000/svg" xmlns:xlink="http://www.w3.org/1999/xlink" x="0px" y="0px"
	 viewBox="0 0 108.8 108.9" style="enable-background:new 0 0 108.8 108.9;" xml:space="preserve">
<style type="text/css">
	.st0{clip-path:url(#SVGID_2_);}
	.st1{clip-path:url(#SVGID_4_);fill:#8299B0;}
	.st2{clip-path:url(#SVGID_6_);}
	.st3{clip-path:url(#SVGID_8_);fill:#8299B0;}
	.st4{clip-path:url(#SVGID_10_);}
	.st5{clip-path:url(#SVGID_12_);fill:#8299B0;}
	.st6{clip-path:url(#SVGID_14_);}
	.st7{clip-path:url(#SVGID_16_);fill:#8299B0;}
	.st8{clip-path:url(#SVGID_18_);}
	.st9{clip-path:url(#SVGID_20_);fill:#8299B0;}
	.st10{clip-path:url(#SVGID_22_);}
	.st11{clip-path:url(#SVGID_24_);fill:#8299B0;}
	.st12{clip-path:url(#SVGID_26_);}
	.st13{clip-path:url(#SVGID_28_);fill:#8299B0;}
	.st14{clip-path:url(#SVGID_30_);}
	.st15{clip-path:url(#SVGID_32_);fill:#8299B0;}
	.st16{clip-path:url(#SVGID_34_);}
	.st17{clip-path:url(#SVGID_36_);fill:#8299B0;}
	.st18{clip-path:url(#SVGID_38_);}
	.st19{clip-path:url(#SVGID_40_);fill:#8299B0;}
	.st20{clip-path:url(#SVGID_42_);}
	.st21{clip-path:url(#SVGID_44_);fill:#8299B0;}
	.st22{clip-path:url(#SVGID_46_);}
	.st23{clip-path:url(#SVGID_48_);fill:#8299B0;}
	.st24{clip-path:url(#SVGID_50_);}
	.st25{clip-path:url(#SVGID_52_);fill:#8299B0;}
	.st26{clip-path:url(#SVGID_54_);}
	.st27{clip-path:url(#SVGID_56_);fill:#8299B0;}
	.st28{clip-path:url(#SVGID_58_);}
	.st29{clip-path:url(#SVGID_60_);fill:#8299B0;}
	.st30{clip-path:url(#SVGID_62_);}
	.st31{clip-path:url(#SVGID_64_);fill:#8299B0;}
	.st32{clip-path:url(#SVGID_66_);}
	.st33{clip-path:url(#SVGID_68_);fill:#8299B0;}
	.st34{clip-path:url(#SVGID_70_);}
	.st35{clip-path:url(#SVGID_72_);fill:#8299B0;}
	.st36{clip-path:url(#SVGID_74_);}
	.st37{clip-path:url(#SVGID_76_);fill:#8299B0;}
	.st38{clip-path:url(#SVGID_78_);}
	.st39{clip-path:url(#SVGID_80_);fill:#8299B0;}
	.st40{clip-path:url(#SVGID_82_);}
	.st41{clip-path:url(#SVGID_84_);fill:#8299B0;}
	.st42{clip-path:url(#SVGID_86_);}
	.st43{clip-path:url(#SVGID_88_);fill:#8299B0;}
	.st44{clip-path:url(#SVGID_90_);}
	.st45{clip-path:url(#SVGID_92_);fill:#8299B0;}
	.st46{clip-path:url(#SVGID_94_);}
	.st47{clip-path:url(#SVGID_96_);fill:#8299B0;}
	.st48{clip-path:url(#SVGID_98_);}
	.st49{clip-path:url(#SVGID_100_);fill:#8299B0;}
	.st50{clip-path:url(#SVGID_102_);}
	.st51{clip-path:url(#SVGID_104_);fill:#8299B0;}
	.st52{clip-path:url(#SVGID_106_);}
	.st53{clip-path:url(#SVGID_108_);fill:#8299B0;}
	.st54{clip-path:url(#SVGID_110_);}
	.st55{clip-path:url(#SVGID_112_);fill:#8299B0;}
	.st56{clip-path:url(#SVGID_114_);}
	.st57{clip-path:url(#SVGID_116_);fill:#8299B0;}
	.st58{clip-path:url(#SVGID_118_);}
	.st59{clip-path:url(#SVGID_120_);fill:#8299B0;}
	.st60{clip-path:url(#SVGID_122_);}
	.st61{clip-path:url(#SVGID_124_);fill:#8299B0;}
	.st62{clip-path:url(#SVGID_126_);}
	.st63{clip-path:url(#SVGID_128_);fill:#8299B0;}
	.st64{clip-path:url(#SVGID_130_);}
	.st65{clip-path:url(#SVGID_132_);fill:#8299B0;}
	.st66{clip-path:url(#SVGID_134_);}
	.st67{clip-path:url(#SVGID_136_);fill:#8299B0;}
	.st68{clip-path:url(#SVGID_138_);}
	.st69{clip-path:url(#SVGID_140_);fill:#8299B0;}
	.st70{clip-path:url(#SVGID_142_);}
	.st71{clip-path:url(#SVGID_144_);fill:#8299B0;}
	.st72{clip-path:url(#SVGID_146_);}
	.st73{clip-path:url(#SVGID_148_);fill:#8299B0;}
	.st74{clip-path:url(#SVGID_150_);}
	.st75{clip-path:url(#SVGID_152_);fill:#8299B0;}
	.st76{clip-path:url(#SVGID_154_);}
	.st77{clip-path:url(#SVGID_156_);fill:#8299B0;}
	.st78{clip-path:url(#SVGID_158_);}
	.st79{clip-path:url(#SVGID_160_);fill:#8299B0;}
	.st80{clip-path:url(#SVGID_162_);}
	.st81{clip-path:url(#SVGID_164_);fill:#8299B0;}
	.st82{clip-path:url(#SVGID_166_);}
	.st83{clip-path:url(#SVGID_168_);fill:#8299B0;}
	.st84{clip-path:url(#SVGID_170_);}
	.st85{clip-path:url(#SVGID_172_);fill:#8299B0;}
	.st86{clip-path:url(#SVGID_174_);}
	.st87{clip-path:url(#SVGID_176_);fill:#8299B0;}
	.st88{clip-path:url(#SVGID_178_);}
	.st89{clip-path:url(#SVGID_180_);fill:#8299B0;}
	.st90{clip-path:url(#SVGID_182_);}
	.st91{clip-path:url(#SVGID_184_);fill:#8299B0;}
	.st92{clip-path:url(#SVGID_186_);}
	.st93{clip-path:url(#SVGID_188_);fill:#8299B0;}
	.st94{clip-path:url(#SVGID_190_);}
	.st95{clip-path:url(#SVGID_192_);fill:#8299B0;}
	.st96{clip-path:url(#SVGID_194_);}
	.st97{clip-path:url(#SVGID_196_);fill:#8299B0;}
	.st98{clip-path:url(#SVGID_198_);}
	.st99{clip-path:url(#SVGID_200_);fill:#8299B0;}
	.st100{clip-path:url(#SVGID_202_);}
	.st101{clip-path:url(#SVGID_204_);fill:#8299B0;}
	.st102{clip-path:url(#SVGID_206_);}
	.st103{clip-path:url(#SVGID_208_);fill:#8299B0;}
	.st104{clip-path:url(#SVGID_210_);}
	.st105{clip-path:url(#SVGID_212_);fill:#8299B0;}
	.st106{clip-path:url(#SVGID_214_);}
	.st107{clip-path:url(#SVGID_216_);fill:#8299B0;}
	.st108{clip-path:url(#SVGID_218_);}
	.st109{clip-path:url(#SVGID_220_);fill:#8299B0;}
	.st110{clip-path:url(#SVGID_222_);}
	.st111{clip-path:url(#SVGID_224_);fill:#8299B0;}
	.st112{clip-path:url(#SVGID_226_);}
	.st113{clip-path:url(#SVGID_228_);fill:#8299B0;}
	.st114{clip-path:url(#SVGID_230_);}
	.st115{clip-path:url(#SVGID_232_);fill:#8299B0;}
	.st116{clip-path:url(#SVGID_234_);}
	.st117{clip-path:url(#SVGID_236_);fill:#8299B0;}
	.st118{clip-path:url(#SVGID_238_);}
	.st119{clip-path:url(#SVGID_240_);fill:#8299B0;}
	.st120{clip-path:url(#SVGID_242_);}
	.st121{clip-path:url(#SVGID_244_);fill:#8299B0;}
</style>
<g>
	<g>
		<defs>
			<path id="SVGID_1_" d="M22.4,90.1c0.2-0.5,0.1-1.1,0.1-1.5c-0.1-0.4-0.1-1-0.4-1.6c-0.1-0.2-1-1-1.4-1.2c-0.4-0.2-0.5-0.1-0.7,0
				c-0.3,0-0.4-0.4-1.1-0.4c-0.8,0-1.1,0.1-1.3,0.2c-0.2,0.1-0.5,0.3-0.9,0.5c-0.4,0.2-0.8,1-0.9,1.2c-0.1,0.2-0.5,0.6-0.6,0.9
				c-0.1,0.4-0.1,1.6,0,1.9c-0.4,0.2-0.7,1.9,0.6,2.5c0.3,0.9,1.3,2.9,3.1,2.9c1.7,0,2.8-2,3.1-2.9C23.1,92,22.8,90.3,22.4,90.1z"/>
		</defs>
		<clipPath id="SVGID_2_">
			<use xlink:href="#SVGID_1_"  style="overflow:visible;"/>
		</clipPath>
		<g class="st0">
			<defs>
				<rect id="SVGID_3_" x="-773" y="-603" width="1650" height="2197"/>
			</defs>
			<clipPath id="SVGID_4_">
				<use xlink:href="#SVGID_3_"  style="overflow:visible;"/>
			</clipPath>
			<rect x="9.7" y="80.4" class="st1" width="18" height="20.1"/>
		</g>
	</g>
	<g>
		<defs>
			<path id="SVGID_5_" d="M23.7,96.4c-1.4-0.4-1.9-0.6-2.1-0.7c-0.2-0.1-0.4-0.3-0.6-0.3c0,0-1,3.9-1.2,4.9c0-0.1-0.4-2.7-0.5-3.1
				c0.1-0.1,0.4-0.7,0.5-1.1c-0.1,0-0.5,0.1-0.9,0.1c-0.5,0-0.8,0-0.9-0.1c0.1,0.4,0.4,1,0.5,1.1c-0.1,0.4-0.4,3-0.5,3.1
				c-0.2-0.9-1.2-4.8-1.2-4.9c-0.2,0.1-0.5,0.2-0.6,0.3c-0.2,0.1-0.7,0.3-2.1,0.7c-1.4,0.4-3.7,0.5-3.5,5.8h8.5h8.4
				C27.3,96.9,25.1,96.8,23.7,96.4z"/>
		</defs>
		<clipPath id="SVGID_6_">
			<use xlink:href="#SVGID_5_"  style="overflow:visible;"/>
		</clipPath>
		<g class="st2">
			<defs>
				<rect id="SVGID_7_" x="-773" y="-603" width="1650" height="2197"/>
			</defs>
			<clipPath id="SVGID_8_">
				<use xlink:href="#SVGID_7_"  style="overflow:visible;"/>
			</clipPath>
			<rect x="5.3" y="90.3" class="st3" width="26.9" height="16.9"/>
		</g>
	</g>
	<g>
		<defs>
			<path id="SVGID_9_" d="M91.3,60.2c0.1-0.2,0.1-0.4,0-0.6c0-0.1-0.1-0.4-0.2-0.6c0-0.1-0.4-0.4-0.5-0.4c-0.2-0.1-0.2,0-0.3,0
				c-0.1,0-0.2-0.1-0.4-0.1c-0.3,0-0.4,0-0.5,0.1c-0.1,0-0.2,0.1-0.3,0.2c-0.2,0.1-0.3,0.4-0.3,0.5c-0.1,0.1-0.2,0.2-0.2,0.3
				c0,0.1,0,0.6,0,0.7c-0.2,0.1-0.3,0.7,0.2,1c0.1,0.3,0.5,1.1,1.2,1.1c0.7,0,1.1-0.8,1.2-1.1C91.6,60.9,91.4,60.2,91.3,60.2z"/>
		</defs>
		<clipPath id="SVGID_10_">
			<use xlink:href="#SVGID_9_"  style="overflow:visible;"/>
		</clipPath>
		<g class="st4">
			<defs>
				<rect id="SVGID_11_" x="-773" y="-603" width="1650" height="2197"/>
			</defs>
			<clipPath id="SVGID_12_">
				<use xlink:href="#SVGID_11_"  style="overflow:visible;"/>
			</clipPath>
			<rect x="83.4" y="53.4" class="st5" width="13.1" height="13.8"/>
		</g>
	</g>
	<g>
		<defs>
			<path id="SVGID_13_" d="M91.8,62.5c-0.5-0.2-0.7-0.2-0.8-0.3c-0.1-0.1-0.2-0.1-0.2-0.1c0,0-0.4,1.5-0.5,1.9c0,0-0.1-1-0.2-1.2
				c0,0,0.1-0.3,0.2-0.4c0,0-0.2,0-0.4,0c-0.2,0-0.3,0-0.4,0c0,0.1,0.2,0.4,0.2,0.4c0,0.2-0.2,1.1-0.2,1.2c-0.1-0.4-0.5-1.8-0.5-1.9
				c-0.1,0-0.2,0.1-0.2,0.1c-0.1,0.1-0.3,0.1-0.8,0.3c-0.5,0.2-1.4,0.2-1.3,2.2h3.2h3.2C93.1,62.7,92.3,62.7,91.8,62.5z"/>
		</defs>
		<clipPath id="SVGID_14_">
			<use xlink:href="#SVGID_13_"  style="overflow:visible;"/>
		</clipPath>
		<g class="st6">
			<defs>
				<rect id="SVGID_15_" x="-773" y="-603" width="1650" height="2197"/>
			</defs>
			<clipPath id="SVGID_16_">
				<use xlink:href="#SVGID_15_"  style="overflow:visible;"/>
			</clipPath>
			<rect x="81.7" y="57.1" class="st7" width="16.4" height="12.6"/>
		</g>
	</g>
	<g>
		<defs>
			<path id="SVGID_17_" d="M69,97.5c0.2-0.3,0.1-0.7,0-0.9c-0.1-0.2-0.1-0.7-0.3-1c-0.1-0.2-0.6-0.6-0.9-0.7c-0.3-0.1-0.3,0-0.5,0
				c-0.2,0-0.3-0.2-0.7-0.2c-0.5,0-0.7,0.1-0.8,0.1c-0.2,0.1-0.3,0.2-0.6,0.3c-0.3,0.1-0.5,0.6-0.6,0.8c-0.1,0.2-0.3,0.4-0.4,0.6
				c-0.1,0.2-0.1,1,0,1.2c-0.3,0.1-0.5,1.2,0.4,1.6c0.2,0.6,0.9,1.8,2,1.8c1.1,0,1.8-1.3,2-1.8C69.5,98.7,69.3,97.6,69,97.5z"/>
		</defs>
		<clipPath id="SVGID_18_">
			<use xlink:href="#SVGID_17_"  style="overflow:visible;"/>
		</clipPath>
		<g class="st8">
			<defs>
				<rect id="SVGID_19_" x="-773" y="-603" width="1650" height="2197"/>
			</defs>
			<clipPath id="SVGID_20_">
				<use xlink:href="#SVGID_19_"  style="overflow:visible;"/>
			</clipPath>
			<rect x="59.1" y="89.5" class="st9" width="15.1" height="16.4"/>
		</g>
	</g>
	<g>
		<defs>
			<path id="SVGID_21_" d="M69.8,101.5c-0.9-0.3-1.2-0.4-1.3-0.5c-0.1-0.1-0.3-0.2-0.4-0.2c0,0-0.7,2.5-0.8,3.1c0-0.1-0.2-1.7-0.3-2
				c0-0.1,0.2-0.5,0.3-0.7c-0.1,0-0.3,0-0.6,0c-0.3,0-0.5,0-0.6,0c0.1,0.2,0.3,0.6,0.3,0.7c-0.1,0.3-0.3,1.9-0.3,2
				c-0.1-0.6-0.8-3.1-0.8-3.1c-0.1,0-0.3,0.1-0.4,0.2c-0.1,0.1-0.5,0.2-1.3,0.5c-0.9,0.3-2.3,0.3-2.2,3.7h5.4H72
				C72.1,101.8,70.7,101.7,69.8,101.5z"/>
		</defs>
		<clipPath id="SVGID_22_">
			<use xlink:href="#SVGID_21_"  style="overflow:visible;"/>
		</clipPath>
		<g class="st10">
			<defs>
				<rect id="SVGID_23_" x="-773" y="-603" width="1650" height="2197"/>
			</defs>
			<clipPath id="SVGID_24_">
				<use xlink:href="#SVGID_23_"  style="overflow:visible;"/>
			</clipPath>
			<rect x="56.3" y="95.8" class="st11" width="20.7" height="14.4"/>
		</g>
	</g>
	<g>
		<defs>
			<path id="SVGID_25_" d="M22.3,35c0.1-0.2,0-0.3,0-0.5c0-0.1,0-0.3-0.1-0.5c0-0.1-0.3-0.3-0.4-0.4c-0.1,0-0.2,0-0.2,0
				s-0.1-0.1-0.4-0.1c-0.2,0-0.3,0-0.4,0.1c-0.1,0-0.2,0.1-0.3,0.1c-0.1,0.1-0.2,0.3-0.3,0.4c0,0.1-0.1,0.2-0.2,0.3
				c0,0.1,0,0.5,0,0.6c-0.1,0.1-0.2,0.6,0.2,0.8c0.1,0.3,0.4,0.9,1,0.9c0.5,0,0.9-0.6,1-0.9C22.5,35.6,22.4,35.1,22.3,35z"/>
		</defs>
		<clipPath id="SVGID_26_">
			<use xlink:href="#SVGID_25_"  style="overflow:visible;"/>
		</clipPath>
		<g class="st12">
			<defs>
				<rect id="SVGID_27_" x="-773" y="-603" width="1650" height="2197"/>
			</defs>
			<clipPath id="SVGID_28_">
				<use xlink:href="#SVGID_27_"  style="overflow:visible;"/>
			</clipPath>
			<rect x="14.9" y="28.6" class="st13" width="12.5" height="13.1"/>
		</g>
	</g>
	<g>
		<defs>
			<path id="SVGID_29_" d="M22.7,37c-0.4-0.1-0.6-0.2-0.7-0.2c-0.1,0-0.1-0.1-0.2-0.1c0,0-0.3,1.2-0.4,1.5c0,0-0.1-0.8-0.1-0.9
				c0,0,0.1-0.2,0.1-0.3c0,0-0.1,0-0.3,0c-0.1,0-0.3,0-0.3,0c0,0.1,0.1,0.3,0.1,0.3c0,0.1-0.1,0.9-0.1,0.9c-0.1-0.3-0.4-1.5-0.4-1.5
				c-0.1,0-0.1,0.1-0.2,0.1c-0.1,0.1-0.2,0.1-0.7,0.2c-0.4,0.1-1.1,0.1-1.1,1.8h2.6h2.6C23.8,37.1,23.1,37.1,22.7,37z"/>
		</defs>
		<clipPath id="SVGID_30_">
			<use xlink:href="#SVGID_29_"  style="overflow:visible;"/>
		</clipPath>
		<g class="st14">
			<defs>
				<rect id="SVGID_31_" x="-773" y="-603" width="1650" height="2197"/>
			</defs>
			<clipPath id="SVGID_32_">
				<use xlink:href="#SVGID_31_"  style="overflow:visible;"/>
			</clipPath>
			<rect x="13.6" y="31.6" class="st15" width="15.2" height="12.1"/>
		</g>
	</g>
	<g>
		<defs>
			<path id="SVGID_33_" d="M73.7,82.5c0.1-0.1,0-0.3,0-0.3c0-0.1,0-0.2-0.1-0.4c0-0.1-0.2-0.2-0.3-0.3c-0.1,0-0.1,0-0.2,0
				c-0.1,0-0.1-0.1-0.3-0.1c-0.2,0-0.2,0-0.3,0.1c-0.1,0-0.1,0.1-0.2,0.1c-0.1,0-0.2,0.2-0.2,0.3c0,0.1-0.1,0.1-0.1,0.2
				c0,0.1,0,0.3,0,0.4c-0.1,0.1-0.2,0.4,0.1,0.6c0.1,0.2,0.3,0.7,0.7,0.7c0.4,0,0.6-0.5,0.7-0.7C73.8,82.9,73.8,82.6,73.7,82.5z"/>
		</defs>
		<clipPath id="SVGID_34_">
			<use xlink:href="#SVGID_33_"  style="overflow:visible;"/>
		</clipPath>
		<g class="st16">
			<defs>
				<rect id="SVGID_35_" x="-773" y="-603" width="1650" height="2197"/>
			</defs>
			<clipPath id="SVGID_36_">
				<use xlink:href="#SVGID_35_"  style="overflow:visible;"/>
			</clipPath>
			<rect x="66.9" y="76.4" class="st17" width="11.8" height="12.3"/>
		</g>
	</g>
	<g>
		<defs>
			<path id="SVGID_37_" d="M74,83.9c-0.3-0.1-0.4-0.1-0.5-0.2c0,0-0.1-0.1-0.1-0.1c0,0-0.2,0.9-0.3,1.1c0,0-0.1-0.6-0.1-0.7
				c0,0,0.1-0.2,0.1-0.2c0,0-0.1,0-0.2,0c-0.1,0-0.2,0-0.2,0c0,0.1,0.1,0.2,0.1,0.2c0,0.1-0.1,0.7-0.1,0.7c0-0.2-0.3-1.1-0.3-1.1
				c-0.1,0-0.1,0-0.1,0.1c-0.1,0-0.2,0.1-0.5,0.2C71.4,84,70.9,84,71,85.3h1.9h1.9C74.8,84,74.3,84,74,83.9z"/>
		</defs>
		<clipPath id="SVGID_38_">
			<use xlink:href="#SVGID_37_"  style="overflow:visible;"/>
		</clipPath>
		<g class="st18">
			<defs>
				<rect id="SVGID_39_" x="-773" y="-603" width="1650" height="2197"/>
			</defs>
			<clipPath id="SVGID_40_">
				<use xlink:href="#SVGID_39_"  style="overflow:visible;"/>
			</clipPath>
			<rect x="66" y="78.7" class="st19" width="13.8" height="11.6"/>
		</g>
	</g>
	<g>
		<defs>
			<path id="SVGID_41_" d="M101.1,19.5c0.1-0.2,0-0.3,0-0.5c0-0.1,0-0.3-0.1-0.5c0-0.1-0.3-0.3-0.4-0.4c-0.1-0.1-0.2,0-0.2,0
				S100.2,18,100,18c-0.2,0-0.3,0-0.4,0.1c-0.1,0-0.2,0.1-0.3,0.1c-0.1,0.1-0.2,0.3-0.3,0.4c0,0.1-0.1,0.2-0.2,0.3
				c0,0.1,0,0.5,0,0.6c-0.1,0.1-0.2,0.6,0.2,0.8c0.1,0.3,0.4,0.9,1,0.9c0.5,0,0.9-0.6,1-0.9C101.3,20.1,101.3,19.5,101.1,19.5z"/>
		</defs>
		<clipPath id="SVGID_42_">
			<use xlink:href="#SVGID_41_"  style="overflow:visible;"/>
		</clipPath>
		<g class="st20">
			<defs>
				<rect id="SVGID_43_" x="-773" y="-603" width="1650" height="2197"/>
			</defs>
			<clipPath id="SVGID_44_">
				<use xlink:href="#SVGID_43_"  style="overflow:visible;"/>
			</clipPath>
			<rect x="93.7" y="13" class="st21" width="12.5" height="13.1"/>
		</g>
	</g>
	<g>
		<defs>
			<path id="SVGID_45_" d="M101.5,21.4c-0.4-0.1-0.6-0.2-0.7-0.2c-0.1,0-0.1-0.1-0.2-0.1c0,0-0.3,1.2-0.4,1.5c0,0-0.1-0.8-0.1-0.9
				c0,0,0.1-0.2,0.1-0.3c0,0-0.1,0-0.3,0c-0.1,0-0.3,0-0.3,0c0,0.1,0.1,0.3,0.1,0.3c0,0.1-0.1,0.9-0.1,0.9c-0.1-0.3-0.4-1.5-0.4-1.5
				c-0.1,0-0.1,0.1-0.2,0.1c-0.1,0.1-0.2,0.1-0.7,0.2c-0.4,0.1-1.1,0.1-1.1,1.8h2.6h2.6C102.6,21.6,101.9,21.5,101.5,21.4z"/>
		</defs>
		<clipPath id="SVGID_46_">
			<use xlink:href="#SVGID_45_"  style="overflow:visible;"/>
		</clipPath>
		<g class="st22">
			<defs>
				<rect id="SVGID_47_" x="-773" y="-603" width="1650" height="2197"/>
			</defs>
			<clipPath id="SVGID_48_">
				<use xlink:href="#SVGID_47_"  style="overflow:visible;"/>
			</clipPath>
			<rect x="92.4" y="16.1" class="st23" width="15.2" height="12.1"/>
		</g>
	</g>
	<g>
		<defs>
			<path id="SVGID_49_" d="M32.2,8.9c0.2-0.4,0.1-0.8,0-1c-0.1-0.2-0.1-0.7-0.3-1.1c-0.1-0.2-0.7-0.7-1-0.8c-0.3-0.1-0.3,0-0.5,0
				c-0.2,0-0.3-0.3-0.8-0.2c-0.5,0-0.7,0.1-0.9,0.1c-0.2,0.1-0.3,0.2-0.6,0.3C28,6.3,27.7,6.8,27.6,7c-0.1,0.2-0.3,0.4-0.4,0.6
				c-0.1,0.2-0.1,1,0,1.3c-0.3,0.1-0.5,1.3,0.4,1.7c0.2,0.6,0.9,2,2.1,2c1.2,0,1.9-1.3,2.1-2C32.7,10.1,32.5,9,32.2,8.9z"/>
		</defs>
		<clipPath id="SVGID_50_">
			<use xlink:href="#SVGID_49_"  style="overflow:visible;"/>
		</clipPath>
		<g class="st24">
			<defs>
				<rect id="SVGID_51_" x="-773" y="-603" width="1650" height="2197"/>
			</defs>
			<clipPath id="SVGID_52_">
				<use xlink:href="#SVGID_51_"  style="overflow:visible;"/>
			</clipPath>
			<rect x="22" y="0.7" class="st25" width="15.4" height="16.8"/>
		</g>
	</g>
	<g>
		<defs>
			<path id="SVGID_53_" d="M33,13.1c-1-0.3-1.3-0.4-1.4-0.5c-0.1-0.1-0.3-0.2-0.4-0.2c0,0-0.7,2.7-0.8,3.3c0-0.1-0.2-1.8-0.3-2.1
				c0.1-0.1,0.2-0.5,0.3-0.7c-0.1,0-0.3,0.1-0.6,0.1c-0.3,0-0.6,0-0.6-0.1c0.1,0.2,0.3,0.7,0.3,0.7c-0.1,0.3-0.3,2-0.3,2.1
				c-0.1-0.6-0.8-3.2-0.8-3.3c-0.1,0-0.3,0.1-0.4,0.2c-0.1,0.1-0.5,0.2-1.4,0.5c-1,0.3-2.5,0.3-2.4,3.9h5.7h5.7
				C35.5,13.4,34,13.4,33,13.1z"/>
		</defs>
		<clipPath id="SVGID_54_">
			<use xlink:href="#SVGID_53_"  style="overflow:visible;"/>
		</clipPath>
		<g class="st26">
			<defs>
				<rect id="SVGID_55_" x="-773" y="-603" width="1650" height="2197"/>
			</defs>
			<clipPath id="SVGID_56_">
				<use xlink:href="#SVGID_55_"  style="overflow:visible;"/>
			</clipPath>
			<rect x="19" y="7.4" class="st27" width="21.4" height="14.6"/>
		</g>
	</g>
	<g>
		<defs>
			<path id="SVGID_57_" d="M100.6,38.5c0.2-0.5,0.1-1,0-1.3c-0.1-0.3-0.1-0.9-0.4-1.4c-0.1-0.2-0.9-0.9-1.2-1c-0.3-0.1-0.5,0-0.6,0
				c-0.2,0-0.3-0.3-1-0.3c-0.7,0-0.9,0.1-1.2,0.2c-0.2,0.1-0.5,0.3-0.8,0.4c-0.3,0.1-0.7,0.8-0.8,1c-0.1,0.2-0.4,0.5-0.5,0.8
				c-0.1,0.3-0.1,1.4,0,1.6c-0.3,0.2-0.6,1.7,0.5,2.2c0.2,0.8,1.2,2.5,2.7,2.5c1.5,0,2.5-1.7,2.7-2.5
				C101.2,40.2,100.9,38.7,100.6,38.5z"/>
		</defs>
		<clipPath id="SVGID_58_">
			<use xlink:href="#SVGID_57_"  style="overflow:visible;"/>
		</clipPath>
		<g class="st28">
			<defs>
				<rect id="SVGID_59_" x="-773" y="-603" width="1650" height="2197"/>
			</defs>
			<clipPath id="SVGID_60_">
				<use xlink:href="#SVGID_59_"  style="overflow:visible;"/>
			</clipPath>
			<rect x="88.8" y="29.4" class="st29" width="17" height="18.9"/>
		</g>
	</g>
	<g>
		<defs>
			<path id="SVGID_61_" d="M101.7,44c-1.2-0.4-1.7-0.5-1.9-0.6c-0.2-0.1-0.4-0.2-0.6-0.3c0,0-0.9,3.4-1.1,4.3c0-0.1-0.3-2.3-0.4-2.7
				c0.1-0.1,0.3-0.6,0.4-1c-0.1,0-0.4,0.1-0.8,0.1c-0.4,0-0.7,0-0.8-0.1c0.1,0.3,0.3,0.9,0.4,1c-0.1,0.4-0.4,2.6-0.4,2.7
				c-0.2-0.8-1.1-4.2-1.1-4.3c-0.2,0.1-0.4,0.2-0.6,0.3c-0.2,0.1-0.6,0.2-1.8,0.6c-1.2,0.4-3.2,0.4-3.1,5.1h7.4h7.4
				C104.9,44.4,102.9,44.4,101.7,44z"/>
		</defs>
		<clipPath id="SVGID_62_">
			<use xlink:href="#SVGID_61_"  style="overflow:visible;"/>
		</clipPath>
		<g class="st30">
			<defs>
				<rect id="SVGID_63_" x="-773" y="-603" width="1650" height="2197"/>
			</defs>
			<clipPath id="SVGID_64_">
				<use xlink:href="#SVGID_63_"  style="overflow:visible;"/>
			</clipPath>
			<rect x="85" y="38.1" class="st31" width="24.8" height="16"/>
		</g>
	</g>
	<g>
		<defs>
			<path id="SVGID_65_" d="M56.7,17.6c0.2,0.3,0.4,0.7,0.9,0.7c0.5,0,0.7-0.5,0.9-0.7c0.5,0,0.5,0.1,0.9-0.3
				c-0.3-0.3-0.3-0.8-0.3-1.1c0-0.3,0-0.5-0.2-1.2c-0.3-0.7-0.9-0.7-1.3-0.7c-0.4,0-1,0-1.3,0.7c-0.3,0.7-0.2,0.9-0.2,1.2
				c0,0.3,0,0.8-0.3,1.1C56.3,17.6,56.3,17.6,56.7,17.6z"/>
		</defs>
		<clipPath id="SVGID_66_">
			<use xlink:href="#SVGID_65_"  style="overflow:visible;"/>
		</clipPath>
		<g class="st32">
			<defs>
				<rect id="SVGID_67_" x="-773" y="-603" width="1650" height="2197"/>
			</defs>
			<clipPath id="SVGID_68_">
				<use xlink:href="#SVGID_67_"  style="overflow:visible;"/>
			</clipPath>
			<rect x="50.8" y="9.2" class="st33" width="13.7" height="14.1"/>
		</g>
	</g>
	<g>
		<defs>
			<path id="SVGID_69_" d="M59.9,19c-0.4-0.1-0.6-0.1-1.1-0.4c-0.4-0.2-0.5-0.2-0.5-0.2l-0.7,1.9l-0.7-1.9c0,0-0.1,0-0.5,0.2
				c-0.5,0.3-0.7,0.3-1.1,0.4c-0.4,0.1-0.9,0.5-0.9,1.9h3.2h3.2C60.8,19.5,60.3,19.1,59.9,19z"/>
		</defs>
		<clipPath id="SVGID_70_">
			<use xlink:href="#SVGID_69_"  style="overflow:visible;"/>
		</clipPath>
		<g class="st34">
			<defs>
				<rect id="SVGID_71_" x="-773" y="-603" width="1650" height="2197"/>
			</defs>
			<clipPath id="SVGID_72_">
				<use xlink:href="#SVGID_71_"  style="overflow:visible;"/>
			</clipPath>
			<rect x="49.5" y="13.3" class="st35" width="16.3" height="12.5"/>
		</g>
	</g>
	<g>
		<defs>
			<path id="SVGID_73_" d="M14.2,70.6c0.2,0.2,0.3,0.5,0.6,0.5c0.3,0,0.5-0.3,0.6-0.5c0.3,0,0.3,0,0.6-0.2c-0.2-0.2-0.2-0.6-0.2-0.8
				c0-0.2,0-0.3-0.2-0.8c-0.2-0.5-0.6-0.5-0.9-0.5c-0.3,0-0.7,0-0.9,0.5c-0.2,0.5-0.2,0.6-0.2,0.8c0,0.2,0,0.6-0.2,0.8
				C13.8,70.6,13.9,70.6,14.2,70.6z"/>
		</defs>
		<clipPath id="SVGID_74_">
			<use xlink:href="#SVGID_73_"  style="overflow:visible;"/>
		</clipPath>
		<g class="st36">
			<defs>
				<rect id="SVGID_75_" x="-773" y="-603" width="1650" height="2197"/>
			</defs>
			<clipPath id="SVGID_76_">
				<use xlink:href="#SVGID_75_"  style="overflow:visible;"/>
			</clipPath>
			<rect x="8.6" y="63.3" class="st37" width="12.5" height="12.8"/>
		</g>
	</g>
	<g>
		<defs>
			<path id="SVGID_77_" d="M16.3,71.5c-0.2-0.1-0.4,0-0.7-0.3c-0.2-0.2-0.3-0.2-0.3-0.2l-0.5,1.3l-0.5-1.3c0,0-0.1,0-0.3,0.2
				c-0.3,0.2-0.5,0.2-0.7,0.3c-0.2,0.1-0.6,0.4-0.6,1.2h2.1h2.1C16.9,71.9,16.6,71.6,16.3,71.5z"/>
		</defs>
		<clipPath id="SVGID_78_">
			<use xlink:href="#SVGID_77_"  style="overflow:visible;"/>
		</clipPath>
		<g class="st38">
			<defs>
				<rect id="SVGID_79_" x="-773" y="-603" width="1650" height="2197"/>
			</defs>
			<clipPath id="SVGID_80_">
				<use xlink:href="#SVGID_79_"  style="overflow:visible;"/>
			</clipPath>
			<rect x="7.6" y="66.1" class="st39" width="14.3" height="11.7"/>
		</g>
	</g>
	<g>
		<defs>
			<path id="SVGID_81_" d="M94.3,89.6c0.4,0.5,0.8,1.4,1.8,1.4c1,0,1.4-0.9,1.8-1.4c0.9,0.1,1,0.1,1.8-0.7c-0.6-0.6-0.6-1.6-0.6-2.2
				c0-0.6,0-1-0.5-2.4c-0.5-1.4-1.8-1.4-2.5-1.4c-0.8,0-2,0.1-2.5,1.4c-0.5,1.4-0.5,1.7-0.5,2.4c0,0.6,0,1.6-0.6,2.2
				C93.3,89.7,93.4,89.6,94.3,89.6z"/>
		</defs>
		<clipPath id="SVGID_82_">
			<use xlink:href="#SVGID_81_"  style="overflow:visible;"/>
		</clipPath>
		<g class="st40">
			<defs>
				<rect id="SVGID_83_" x="-773" y="-603" width="1650" height="2197"/>
			</defs>
			<clipPath id="SVGID_84_">
				<use xlink:href="#SVGID_83_"  style="overflow:visible;"/>
			</clipPath>
			<rect x="87.5" y="77.9" class="st41" width="17.2" height="18.1"/>
		</g>
	</g>
	<g>
		<defs>
			<path id="SVGID_85_" d="M100.5,92.3c-0.7-0.2-1.1-0.1-2.1-0.8C97.7,91,97.5,91,97.5,91l-1.4,3.8L94.7,91c0,0-0.2,0-0.9,0.5
				c-1,0.7-1.4,0.6-2.1,0.8c-0.7,0.2-1.8,1-1.8,3.7h6.3h6.3C102.3,93.3,101.3,92.5,100.5,92.3z"/>
		</defs>
		<clipPath id="SVGID_86_">
			<use xlink:href="#SVGID_85_"  style="overflow:visible;"/>
		</clipPath>
		<g class="st42">
			<defs>
				<rect id="SVGID_87_" x="-773" y="-603" width="1650" height="2197"/>
			</defs>
			<clipPath id="SVGID_88_">
				<use xlink:href="#SVGID_87_"  style="overflow:visible;"/>
			</clipPath>
			<rect x="84.8" y="86" class="st43" width="22.5" height="14.9"/>
		</g>
	</g>
	<g>
		<defs>
			<path id="SVGID_89_" d="M44.1,90.1c0.2,0.2,0.4,0.7,0.8,0.7c0.5,0,0.6-0.4,0.8-0.7c0.4,0,0.5,0.1,0.8-0.3c-0.3-0.3-0.3-0.7-0.3-1
				c0-0.3,0-0.5-0.2-1.1C45.9,87,45.3,87,44.9,87c-0.4,0-1,0-1.2,0.7c-0.2,0.6-0.2,0.8-0.2,1.1c0,0.3,0,0.7-0.3,1
				C43.6,90.2,43.7,90.1,44.1,90.1z"/>
		</defs>
		<clipPath id="SVGID_90_">
			<use xlink:href="#SVGID_89_"  style="overflow:visible;"/>
		</clipPath>
		<g class="st44">
			<defs>
				<rect id="SVGID_91_" x="-773" y="-603" width="1650" height="2197"/>
			</defs>
			<clipPath id="SVGID_92_">
				<use xlink:href="#SVGID_91_"  style="overflow:visible;"/>
			</clipPath>
			<rect x="38.3" y="82" class="st45" width="13.4" height="13.8"/>
		</g>
	</g>
	<g>
		<defs>
			<path id="SVGID_93_" d="M47,91.4c-0.3-0.1-0.5-0.1-1-0.4c-0.3-0.2-0.4-0.2-0.4-0.2l-0.7,1.8l-0.7-1.8c0,0-0.1,0-0.4,0.2
				c-0.5,0.3-0.6,0.3-1,0.4c-0.3,0.1-0.8,0.5-0.8,1.7H45h2.9C47.8,91.8,47.3,91.5,47,91.4z"/>
		</defs>
		<clipPath id="SVGID_94_">
			<use xlink:href="#SVGID_93_"  style="overflow:visible;"/>
		</clipPath>
		<g class="st46">
			<defs>
				<rect id="SVGID_95_" x="-773" y="-603" width="1650" height="2197"/>
			</defs>
			<clipPath id="SVGID_96_">
				<use xlink:href="#SVGID_95_"  style="overflow:visible;"/>
			</clipPath>
			<rect x="37" y="85.8" class="st47" width="15.8" height="12.3"/>
		</g>
	</g>
	<g>
		<defs>
			<path id="SVGID_97_" d="M4.9,13.6c0.2,0.3,0.5,0.8,1,0.8s0.8-0.5,1-0.8c0.5,0,0.5,0.1,1-0.4c-0.3-0.3-0.3-0.9-0.4-1.2
				c0-0.3,0-0.6-0.3-1.3C7,10,6.3,9.9,5.8,9.9c-0.4,0-1.1,0-1.4,0.8c-0.3,0.8-0.2,1-0.3,1.3c0,0.3,0,0.9-0.3,1.2
				C4.3,13.7,4.4,13.7,4.9,13.6z"/>
		</defs>
		<clipPath id="SVGID_98_">
			<use xlink:href="#SVGID_97_"  style="overflow:visible;"/>
		</clipPath>
		<g class="st48">
			<defs>
				<rect id="SVGID_99_" x="-773" y="-603" width="1650" height="2197"/>
			</defs>
			<clipPath id="SVGID_100_">
				<use xlink:href="#SVGID_99_"  style="overflow:visible;"/>
			</clipPath>
			<rect x="-1.2" y="4.9" class="st49" width="14.1" height="14.5"/>
		</g>
	</g>
	<g>
		<defs>
			<path id="SVGID_101_" d="M8.3,15.2c-0.4-0.1-0.6-0.1-1.2-0.5c-0.4-0.3-0.5-0.3-0.5-0.3l-0.8,2.1L5,14.4c0,0-0.1,0-0.5,0.3
				C4,15.1,3.8,15,3.4,15.2c-0.4,0.1-1,0.6-1,2h3.5h3.5C9.3,15.7,8.7,15.3,8.3,15.2z"/>
		</defs>
		<clipPath id="SVGID_102_">
			<use xlink:href="#SVGID_101_"  style="overflow:visible;"/>
		</clipPath>
		<g class="st50">
			<defs>
				<rect id="SVGID_103_" x="-773" y="-603" width="1650" height="2197"/>
			</defs>
			<clipPath id="SVGID_104_">
				<use xlink:href="#SVGID_103_"  style="overflow:visible;"/>
			</clipPath>
			<rect x="-2.6" y="9.4" class="st51" width="17" height="12.8"/>
		</g>
	</g>
	<g>
		<defs>
			<path id="SVGID_105_" d="M13.3,51.3c0.3,0.4,0.7,1.2,1.5,1.2c0.8,0,1.1-0.7,1.5-1.2c0.7,0,0.8,0.1,1.5-0.5
				c-0.5-0.5-0.5-1.3-0.5-1.8c0-0.5,0-0.8-0.4-1.9c-0.4-1.1-1.4-1.1-2-1.1c-0.6,0-1.6,0-2,1.1c-0.4,1.1-0.4,1.4-0.4,1.9
				c0,0.5,0,1.3-0.5,1.8C12.5,51.4,12.6,51.3,13.3,51.3z"/>
		</defs>
		<clipPath id="SVGID_106_">
			<use xlink:href="#SVGID_105_"  style="overflow:visible;"/>
		</clipPath>
		<g class="st52">
			<defs>
				<rect id="SVGID_107_" x="-773" y="-603" width="1650" height="2197"/>
			</defs>
			<clipPath id="SVGID_108_">
				<use xlink:href="#SVGID_107_"  style="overflow:visible;"/>
			</clipPath>
			<rect x="6.9" y="40.9" class="st53" width="15.9" height="16.6"/>
		</g>
	</g>
	<g>
		<defs>
			<path id="SVGID_109_" d="M18.4,53.5c-0.6-0.2-0.9-0.1-1.7-0.6c-0.6-0.4-0.7-0.4-0.7-0.4l-1.2,3l-1.2-3c0,0-0.1,0-0.7,0.4
				c-0.8,0.5-1.1,0.5-1.7,0.6c-0.6,0.2-1.5,0.8-1.5,3h5.1h5.1C19.8,54.3,19,53.7,18.4,53.5z"/>
		</defs>
		<clipPath id="SVGID_110_">
			<use xlink:href="#SVGID_109_"  style="overflow:visible;"/>
		</clipPath>
		<g class="st54">
			<defs>
				<rect id="SVGID_111_" x="-773" y="-603" width="1650" height="2197"/>
			</defs>
			<clipPath id="SVGID_112_">
				<use xlink:href="#SVGID_111_"  style="overflow:visible;"/>
			</clipPath>
			<rect x="4.7" y="47.4" class="st55" width="20.1" height="14"/>
		</g>
	</g>
	<g>
		<defs>
			<path id="SVGID_113_" d="M78.3,9.2c0.4,0.5,0.8,1.4,1.8,1.4c1,0,1.4-0.9,1.8-1.4c0.9,0.1,1,0.1,1.8-0.7C83.2,8,83.2,7,83.2,6.4
				c0-0.6,0-1-0.5-2.4c-0.5-1.4-1.8-1.4-2.5-1.4c-0.8,0-2,0.1-2.5,1.4c-0.5,1.4-0.5,1.7-0.5,2.4c0,0.6,0,1.6-0.6,2.2
				C77.4,9.4,77.4,9.3,78.3,9.2z"/>
		</defs>
		<clipPath id="SVGID_114_">
			<use xlink:href="#SVGID_113_"  style="overflow:visible;"/>
		</clipPath>
		<g class="st56">
			<defs>
				<rect id="SVGID_115_" x="-773" y="-603" width="1650" height="2197"/>
			</defs>
			<clipPath id="SVGID_116_">
				<use xlink:href="#SVGID_115_"  style="overflow:visible;"/>
			</clipPath>
			<rect x="71.5" y="-2.4" class="st57" width="17.2" height="18.1"/>
		</g>
	</g>
	<g>
		<defs>
			<path id="SVGID_117_" d="M84.6,12c-0.7-0.2-1.1-0.1-2.1-0.8c-0.7-0.5-0.9-0.5-0.9-0.5l-1.4,3.8l-1.4-3.8c0,0-0.2,0-0.9,0.5
				c-1,0.7-1.4,0.6-2.1,0.8c-0.7,0.2-1.8,1-1.8,3.7h6.2h6.2C86.4,13,85.3,12.2,84.6,12z"/>
		</defs>
		<clipPath id="SVGID_118_">
			<use xlink:href="#SVGID_117_"  style="overflow:visible;"/>
		</clipPath>
		<g class="st58">
			<defs>
				<rect id="SVGID_119_" x="-773" y="-603" width="1650" height="2197"/>
			</defs>
			<clipPath id="SVGID_120_">
				<use xlink:href="#SVGID_119_"  style="overflow:visible;"/>
			</clipPath>
			<rect x="68.9" y="5.7" class="st59" width="22.5" height="14.9"/>
		</g>
	</g>
</g>
<g>
	<defs>
		<path id="SVGID_121_" d="M53.8,29.7C40.7,29.7,30,40.4,30,53.6c0,13.1,10.7,23.8,23.8,23.8c13.1,0,23.8-10.7,23.8-23.8
			C77.7,40.4,67,29.7,53.8,29.7z M53.8,78c-13.5,0-24.5-11-24.5-24.5s11-24.5,24.5-24.5c13.5,0,24.5,11,24.5,24.5S67.3,78,53.8,78z"
			/>
	</defs>
	<clipPath id="SVGID_122_">
		<use xlink:href="#SVGID_121_"  style="overflow:visible;"/>
	</clipPath>
	<g class="st60">
		<defs>
			<rect id="SVGID_123_" x="-773" y="-603" width="1650" height="2197"/>
		</defs>
		<clipPath id="SVGID_124_">
			<use xlink:href="#SVGID_123_"  style="overflow:visible;"/>
		</clipPath>
		<rect x="24.4" y="24.1" class="st61" width="58.9" height="58.9"/>
	</g>
</g>
<g>
	<defs>
		<path id="SVGID_125_" d="M18.7,82.5c-6.8,0-12.4,5.6-12.4,12.4c0,6.8,5.6,12.4,12.4,12.4c6.8,0,12.4-5.6,12.4-12.4
			C31.1,88.1,25.6,82.5,18.7,82.5z M18.7,108c-7.2,0-13-5.9-13-13c0-7.2,5.9-13,13-13c7.2,0,13,5.9,13,13
			C31.8,102.1,25.9,108,18.7,108z"/>
	</defs>
	<clipPath id="SVGID_126_">
		<use xlink:href="#SVGID_125_"  style="overflow:visible;"/>
	</clipPath>
	<g class="st62">
		<defs>
			<rect id="SVGID_127_" x="-773" y="-603" width="1650" height="2197"/>
		</defs>
		<clipPath id="SVGID_128_">
			<use xlink:href="#SVGID_127_"  style="overflow:visible;"/>
		</clipPath>
		<rect x="0.7" y="76.9" class="st63" width="36.1" height="36.1"/>
	</g>
</g>
<g>
	<defs>
		<path id="SVGID_129_" d="M29.7,3.8c-4.5,0-8.2,3.7-8.2,8.2c0,4.6,3.7,8.2,8.2,8.2c4.6,0,8.2-3.7,8.2-8.2C38,7.5,34.3,3.8,29.7,3.8
			z M29.7,21c-4.9,0-8.9-4-8.9-8.9c0-4.9,4-8.9,8.9-8.9c4.9,0,8.9,4,8.9,8.9C38.6,17,34.6,21,29.7,21z"/>
	</defs>
	<clipPath id="SVGID_130_">
		<use xlink:href="#SVGID_129_"  style="overflow:visible;"/>
	</clipPath>
	<g class="st64">
		<defs>
			<rect id="SVGID_131_" x="-773" y="-603" width="1650" height="2197"/>
		</defs>
		<clipPath id="SVGID_132_">
			<use xlink:href="#SVGID_131_"  style="overflow:visible;"/>
		</clipPath>
		<rect x="15.8" y="-1.8" class="st65" width="27.8" height="27.8"/>
	</g>
</g>
<g>
	<defs>
		<path id="SVGID_133_" d="M97.4,31.9c-6,0-10.8,4.9-10.8,10.8c0,6,4.9,10.8,10.8,10.8c6,0,10.8-4.9,10.8-10.8
			C108.2,36.7,103.3,31.9,97.4,31.9z M97.4,54.1c-6.3,0-11.4-5.1-11.4-11.4c0-6.3,5.1-11.4,11.4-11.4c6.3,0,11.4,5.1,11.4,11.4
			C108.8,49,103.7,54.1,97.4,54.1z"/>
	</defs>
	<clipPath id="SVGID_134_">
		<use xlink:href="#SVGID_133_"  style="overflow:visible;"/>
	</clipPath>
	<g class="st66">
		<defs>
			<rect id="SVGID_135_" x="-773" y="-603" width="1650" height="2197"/>
		</defs>
		<clipPath id="SVGID_136_">
			<use xlink:href="#SVGID_135_"  style="overflow:visible;"/>
		</clipPath>
		<rect x="80.9" y="26.3" class="st67" width="32.9" height="32.9"/>
	</g>
</g>
<g>
	<defs>
		<path id="SVGID_137_" d="M57.7,13.4c-2.6,0-4.7,2.1-4.7,4.7c0,2.6,2.1,4.7,4.7,4.7c2.6,0,4.7-2.1,4.7-4.7
			C62.4,15.5,60.3,13.4,57.7,13.4z M57.7,23.5c-3,0-5.4-2.4-5.4-5.4c0-3,2.4-5.4,5.4-5.4c3,0,5.4,2.4,5.4,5.4
			C63,21.1,60.6,23.5,57.7,23.5z"/>
	</defs>
	<clipPath id="SVGID_138_">
		<use xlink:href="#SVGID_137_"  style="overflow:visible;"/>
	</clipPath>
	<g class="st68">
		<defs>
			<rect id="SVGID_139_" x="-773" y="-603" width="1650" height="2197"/>
		</defs>
		<clipPath id="SVGID_140_">
			<use xlink:href="#SVGID_139_"  style="overflow:visible;"/>
		</clipPath>
		<rect x="47.3" y="7.7" class="st69" width="20.7" height="20.7"/>
	</g>
</g>
<g>
	<defs>
		<path id="SVGID_141_" d="M14.8,44.3c-4.3,0-7.7,3.5-7.7,7.7c0,4.3,3.5,7.7,7.7,7.7c4.3,0,7.7-3.5,7.7-7.7
			C22.5,47.8,19,44.3,14.8,44.3z M14.8,60.4c-4.6,0-8.4-3.8-8.4-8.4c0-4.6,3.8-8.4,8.4-8.4c4.6,0,8.4,3.8,8.4,8.4
			C23.1,56.7,19.4,60.4,14.8,60.4z"/>
	</defs>
	<clipPath id="SVGID_142_">
		<use xlink:href="#SVGID_141_"  style="overflow:visible;"/>
	</clipPath>
	<g class="st70">
		<defs>
			<rect id="SVGID_143_" x="-773" y="-603" width="1650" height="2197"/>
		</defs>
		<clipPath id="SVGID_144_">
			<use xlink:href="#SVGID_143_"  style="overflow:visible;"/>
		</clipPath>
		<rect x="1.4" y="38.7" class="st71" width="26.7" height="26.7"/>
	</g>
</g>
<g>
	<defs>
		<path id="SVGID_145_" d="M80.1,0.6c-5.3,0-9.6,4.3-9.6,9.6s4.3,9.6,9.6,9.6c5.3,0,9.6-4.3,9.6-9.6C89.7,4.9,85.4,0.6,80.1,0.6z
			 M80.1,20.5c-5.7,0-10.3-4.6-10.3-10.3C69.9,4.6,74.5,0,80.1,0c5.6,0,10.2,4.6,10.2,10.3C90.4,15.9,85.8,20.5,80.1,20.5z"/>
	</defs>
	<clipPath id="SVGID_146_">
		<use xlink:href="#SVGID_145_"  style="overflow:visible;"/>
	</clipPath>
	<g class="st72">
		<defs>
			<rect id="SVGID_147_" x="-773" y="-603" width="1650" height="2197"/>
		</defs>
		<clipPath id="SVGID_148_">
			<use xlink:href="#SVGID_147_"  style="overflow:visible;"/>
		</clipPath>
		<rect x="64.9" y="-5" class="st73" width="30.5" height="30.5"/>
	</g>
</g>
<g>
	<defs>
		<path id="SVGID_149_" d="M89.9,57.5c-2.5,0-4.5,2-4.5,4.5c0,2.5,2,4.5,4.5,4.5c2.5,0,4.5-2,4.5-4.5C94.4,59.5,92.4,57.5,89.9,57.5
			z M89.9,67.1c-2.8,0-5.1-2.3-5.1-5.1s2.3-5.1,5.1-5.1c2.8,0,5.1,2.3,5.1,5.1S92.7,67.1,89.9,67.1z"/>
	</defs>
	<clipPath id="SVGID_150_">
		<use xlink:href="#SVGID_149_"  style="overflow:visible;"/>
	</clipPath>
	<g class="st74">
		<defs>
			<rect id="SVGID_151_" x="-773" y="-603" width="1650" height="2197"/>
		</defs>
		<clipPath id="SVGID_152_">
			<use xlink:href="#SVGID_151_"  style="overflow:visible;"/>
		</clipPath>
		<rect x="79.8" y="51.8" class="st75" width="20.3" height="20.3"/>
	</g>
</g>
<g>
	<defs>
		<path id="SVGID_153_" d="M66.7,92.8c-4.3,0-7.8,3.5-7.8,7.8c0,4.3,3.5,7.8,7.8,7.8c4.3,0,7.8-3.5,7.8-7.8
			C74.4,96.3,71,92.8,66.7,92.8z M66.7,108.9c-4.6,0-8.4-3.8-8.4-8.4c0-4.6,3.8-8.4,8.4-8.4c4.6,0,8.4,3.8,8.4,8.4
			C75.1,105.2,71.3,108.9,66.7,108.9z"/>
	</defs>
	<clipPath id="SVGID_154_">
		<use xlink:href="#SVGID_153_"  style="overflow:visible;"/>
	</clipPath>
	<g class="st76">
		<defs>
			<rect id="SVGID_155_" x="-773" y="-603" width="1650" height="2197"/>
		</defs>
		<clipPath id="SVGID_156_">
			<use xlink:href="#SVGID_155_"  style="overflow:visible;"/>
		</clipPath>
		<rect x="53.3" y="87.1" class="st77" width="26.8" height="26.8"/>
	</g>
</g>
<g>
	<defs>
		<path id="SVGID_157_" d="M21.1,32.9c-2,0-3.6,1.6-3.6,3.6c0,2,1.6,3.6,3.6,3.6c2,0,3.6-1.6,3.6-3.6C24.7,34.5,23.1,32.9,21.1,32.9
			z M21.1,40.8c-2.3,0-4.2-1.9-4.2-4.2c0-2.3,1.9-4.2,4.2-4.2c2.3,0,4.2,1.9,4.2,4.2C25.4,38.9,23.5,40.8,21.1,40.8z"/>
	</defs>
	<clipPath id="SVGID_158_">
		<use xlink:href="#SVGID_157_"  style="overflow:visible;"/>
	</clipPath>
	<g class="st78">
		<defs>
			<rect id="SVGID_159_" x="-773" y="-603" width="1650" height="2197"/>
		</defs>
		<clipPath id="SVGID_160_">
			<use xlink:href="#SVGID_159_"  style="overflow:visible;"/>
		</clipPath>
		<rect x="11.9" y="27.3" class="st79" width="18.5" height="18.5"/>
	</g>
</g>
<g>
	<defs>
		<path id="SVGID_161_" d="M72.8,81c-1.4,0-2.6,1.1-2.6,2.6c0,1.4,1.1,2.6,2.6,2.6c1.4,0,2.6-1.1,2.6-2.6C75.4,82.2,74.3,81,72.8,81
			z M72.8,86.8c-1.8,0-3.2-1.4-3.2-3.2c0-1.8,1.4-3.2,3.2-3.2c1.8,0,3.2,1.4,3.2,3.2C76.1,85.4,74.6,86.8,72.8,86.8z"/>
	</defs>
	<clipPath id="SVGID_162_">
		<use xlink:href="#SVGID_161_"  style="overflow:visible;"/>
	</clipPath>
	<g class="st80">
		<defs>
			<rect id="SVGID_163_" x="-773" y="-603" width="1650" height="2197"/>
		</defs>
		<clipPath id="SVGID_164_">
			<use xlink:href="#SVGID_163_"  style="overflow:visible;"/>
		</clipPath>
		<rect x="64.6" y="75.4" class="st81" width="16.4" height="16.4"/>
	</g>
</g>
<g>
	<defs>
		<path id="SVGID_165_" d="M100,17.4c-2,0-3.6,1.6-3.6,3.6c0,2,1.6,3.6,3.6,3.6c2,0,3.6-1.6,3.6-3.6C103.6,19,102,17.4,100,17.4z
			 M100,25.2c-2.3,0-4.2-1.9-4.2-4.2c0-2.3,1.9-4.2,4.2-4.2c2.3,0,4.2,1.9,4.2,4.2C104.2,23.3,102.3,25.2,100,25.2z"/>
	</defs>
	<clipPath id="SVGID_166_">
		<use xlink:href="#SVGID_165_"  style="overflow:visible;"/>
	</clipPath>
	<g class="st82">
		<defs>
			<rect id="SVGID_167_" x="-773" y="-603" width="1650" height="2197"/>
		</defs>
		<clipPath id="SVGID_168_">
			<use xlink:href="#SVGID_167_"  style="overflow:visible;"/>
		</clipPath>
		<rect x="90.8" y="11.7" class="st83" width="18.5" height="18.5"/>
	</g>
</g>
<g>
	<defs>
		<path id="SVGID_169_" d="M14.8,67.9c-1.7,0-3.1,1.4-3.1,3.1c0,1.7,1.4,3.1,3.1,3.1c1.7,0,3.1-1.4,3.1-3.1
			C17.9,69.3,16.5,67.9,14.8,67.9z M14.8,74.7c-2,0-3.7-1.7-3.7-3.7s1.7-3.7,3.7-3.7c2,0,3.7,1.7,3.7,3.7S16.8,74.7,14.8,74.7z"/>
	</defs>
	<clipPath id="SVGID_170_">
		<use xlink:href="#SVGID_169_"  style="overflow:visible;"/>
	</clipPath>
	<g class="st84">
		<defs>
			<rect id="SVGID_171_" x="-773" y="-603" width="1650" height="2197"/>
		</defs>
		<clipPath id="SVGID_172_">
			<use xlink:href="#SVGID_171_"  style="overflow:visible;"/>
		</clipPath>
		<rect x="6.1" y="62.2" class="st85" width="17.4" height="17.4"/>
	</g>
</g>
<g>
	<defs>
		<path id="SVGID_173_" d="M96.1,80.9c-5.3,0-9.6,4.3-9.6,9.6c0,5.3,4.3,9.6,9.6,9.6c5.3,0,9.6-4.3,9.6-9.6
			C105.7,85.2,101.4,80.9,96.1,80.9z M96.1,100.8c-5.7,0-10.3-4.6-10.3-10.3c0-5.7,4.6-10.3,10.3-10.3c5.7,0,10.3,4.6,10.3,10.3
			C106.4,96.2,101.8,100.8,96.1,100.8z"/>
	</defs>
	<clipPath id="SVGID_174_">
		<use xlink:href="#SVGID_173_"  style="overflow:visible;"/>
	</clipPath>
	<g class="st86">
		<defs>
			<rect id="SVGID_175_" x="-773" y="-603" width="1650" height="2197"/>
		</defs>
		<clipPath id="SVGID_176_">
			<use xlink:href="#SVGID_175_"  style="overflow:visible;"/>
		</clipPath>
		<rect x="80.8" y="75.3" class="st87" width="30.6" height="30.6"/>
	</g>
</g>
<g>
	<defs>
		<path id="SVGID_177_" d="M44.9,86.2c-2.4,0-4.3,1.9-4.3,4.3c0,2.4,1.9,4.3,4.3,4.3c2.4,0,4.3-1.9,4.3-4.3
			C49.2,88.2,47.3,86.2,44.9,86.2z M44.9,95.5c-2.7,0-5-2.2-5-5c0-2.7,2.2-5,5-5c2.7,0,5,2.2,5,5C49.9,93.3,47.7,95.5,44.9,95.5z"/>
	</defs>
	<clipPath id="SVGID_178_">
		<use xlink:href="#SVGID_177_"  style="overflow:visible;"/>
	</clipPath>
	<g class="st88">
		<defs>
			<rect id="SVGID_179_" x="-773" y="-603" width="1650" height="2197"/>
		</defs>
		<clipPath id="SVGID_180_">
			<use xlink:href="#SVGID_179_"  style="overflow:visible;"/>
		</clipPath>
		<rect x="35" y="80.6" class="st89" width="19.9" height="19.9"/>
	</g>
</g>
<g>
	<defs>
		<path id="SVGID_181_" d="M5.9,9C3,9,0.6,11.3,0.6,14.2c0,2.9,2.3,5.2,5.2,5.2c2.9,0,5.2-2.3,5.2-5.2C11.1,11.3,8.7,9,5.9,9z
			 M5.9,20.1c-3.2,0-5.9-2.6-5.9-5.9C0,11,2.6,8.4,5.9,8.4c3.2,0,5.9,2.6,5.9,5.9C11.7,17.4,9.1,20.1,5.9,20.1z"/>
	</defs>
	<clipPath id="SVGID_182_">
		<use xlink:href="#SVGID_181_"  style="overflow:visible;"/>
	</clipPath>
	<g class="st90">
		<defs>
			<rect id="SVGID_183_" x="-773" y="-603" width="1650" height="2197"/>
		</defs>
		<clipPath id="SVGID_184_">
			<use xlink:href="#SVGID_183_"  style="overflow:visible;"/>
		</clipPath>
		<rect x="-5" y="3.4" class="st91" width="21.7" height="21.7"/>
	</g>
</g>
<g>
	<defs>
		<path id="SVGID_185_" d="M56.4,29.9L56.4,29.9c-0.2,0-0.3-0.2-0.3-0.4l0.6-6.4c0-0.2,0.2-0.3,0.3-0.3c0.2,0,0.3,0.2,0.3,0.3
			l-0.6,6.4C56.7,29.8,56.6,29.9,56.4,29.9z"/>
	</defs>
	<clipPath id="SVGID_186_">
		<use xlink:href="#SVGID_185_"  style="overflow:visible;"/>
	</clipPath>
	<g class="st92">
		<defs>
			<rect id="SVGID_187_" x="-773" y="-603" width="1650" height="2197"/>
		</defs>
		<clipPath id="SVGID_188_">
			<use xlink:href="#SVGID_187_"  style="overflow:visible;"/>
		</clipPath>
		<rect x="51.1" y="17.9" class="st93" width="11.3" height="17"/>
	</g>
</g>
<g>
	<defs>
		<path id="SVGID_189_" d="M67.3,33.8c-0.1,0-0.1,0-0.2,0c-0.2-0.1-0.2-0.3-0.1-0.4L75.4,19c0.1-0.2,0.3-0.2,0.4-0.1
			c0.2,0.1,0.2,0.3,0.1,0.4l-8.3,14.3C67.5,33.7,67.4,33.8,67.3,33.8z"/>
	</defs>
	<clipPath id="SVGID_190_">
		<use xlink:href="#SVGID_189_"  style="overflow:visible;"/>
	</clipPath>
	<g class="st94">
		<defs>
			<rect id="SVGID_191_" x="-773" y="-603" width="1650" height="2197"/>
		</defs>
		<clipPath id="SVGID_192_">
			<use xlink:href="#SVGID_191_"  style="overflow:visible;"/>
		</clipPath>
		<rect x="62" y="13.8" class="st95" width="19" height="24.9"/>
	</g>
</g>
<g>
	<defs>
		<path id="SVGID_193_" d="M77,47c-0.1,0-0.3-0.1-0.3-0.2c0-0.2,0.1-0.3,0.2-0.4l9.3-2.2c0.2,0,0.3,0.1,0.4,0.2
			c0,0.2-0.1,0.3-0.2,0.4L77,47C77,47,77,47,77,47z"/>
	</defs>
	<clipPath id="SVGID_194_">
		<use xlink:href="#SVGID_193_"  style="overflow:visible;"/>
	</clipPath>
	<g class="st96">
		<defs>
			<rect id="SVGID_195_" x="-773" y="-603" width="1650" height="2197"/>
		</defs>
		<clipPath id="SVGID_196_">
			<use xlink:href="#SVGID_195_"  style="overflow:visible;"/>
		</clipPath>
		<rect x="71.7" y="39.2" class="st97" width="20" height="12.9"/>
	</g>
</g>
<g>
	<defs>
		<path id="SVGID_197_" d="M73.3,39.6c-0.1,0-0.2,0-0.3-0.1c-0.1-0.1-0.1-0.3,0.1-0.5l23.5-16c0.1-0.1,0.3-0.1,0.5,0.1
			c0.1,0.1,0.1,0.4-0.1,0.5l-23.5,16C73.4,39.5,73.3,39.6,73.3,39.6z"/>
	</defs>
	<clipPath id="SVGID_198_">
		<use xlink:href="#SVGID_197_"  style="overflow:visible;"/>
	</clipPath>
	<g class="st98">
		<defs>
			<rect id="SVGID_199_" x="-773" y="-603" width="1650" height="2197"/>
		</defs>
		<clipPath id="SVGID_200_">
			<use xlink:href="#SVGID_199_"  style="overflow:visible;"/>
		</clipPath>
		<rect x="67.9" y="17.9" class="st99" width="34.1" height="26.7"/>
	</g>
</g>
<g>
	<defs>
		<path id="SVGID_201_" d="M85,61.2L85,61.2l-7.8-1.4c-0.2,0-0.3-0.2-0.3-0.4c0-0.2,0.2-0.3,0.4-0.3l7.8,1.4c0.2,0,0.3,0.2,0.3,0.4
			C85.3,61.1,85.1,61.2,85,61.2z"/>
	</defs>
	<clipPath id="SVGID_202_">
		<use xlink:href="#SVGID_201_"  style="overflow:visible;"/>
	</clipPath>
	<g class="st100">
		<defs>
			<rect id="SVGID_203_" x="-773" y="-603" width="1650" height="2197"/>
		</defs>
		<clipPath id="SVGID_204_">
			<use xlink:href="#SVGID_203_"  style="overflow:visible;"/>
		</clipPath>
		<rect x="71.9" y="54.2" class="st101" width="18.4" height="12.1"/>
	</g>
</g>
<g>
	<defs>
		<path id="SVGID_205_" d="M87.6,85.6c-0.1,0-0.2,0-0.2-0.1L71.3,70.3c-0.1-0.1-0.1-0.3,0-0.5c0.1-0.1,0.3-0.1,0.5,0L87.8,85
			c0.1,0.1,0.1,0.3,0,0.5C87.8,85.5,87.7,85.6,87.6,85.6z"/>
	</defs>
	<clipPath id="SVGID_206_">
		<use xlink:href="#SVGID_205_"  style="overflow:visible;"/>
	</clipPath>
	<g class="st102">
		<defs>
			<rect id="SVGID_207_" x="-773" y="-603" width="1650" height="2197"/>
		</defs>
		<clipPath id="SVGID_208_">
			<use xlink:href="#SVGID_207_"  style="overflow:visible;"/>
		</clipPath>
		<rect x="66.2" y="64.7" class="st103" width="26.7" height="25.8"/>
	</g>
</g>
<g>
	<defs>
		<path id="SVGID_209_" d="M70.9,81.8c-0.1,0-0.2-0.1-0.3-0.1l-4.8-7.1c-0.1-0.1-0.1-0.3,0.1-0.5c0.1-0.1,0.3-0.1,0.5,0.1l4.8,7.1
			c0.1,0.1,0.1,0.3-0.1,0.4C71,81.7,70.9,81.8,70.9,81.8z"/>
	</defs>
	<clipPath id="SVGID_210_">
		<use xlink:href="#SVGID_209_"  style="overflow:visible;"/>
	</clipPath>
	<g class="st104">
		<defs>
			<rect id="SVGID_211_" x="-773" y="-603" width="1650" height="2197"/>
		</defs>
		<clipPath id="SVGID_212_">
			<use xlink:href="#SVGID_211_"  style="overflow:visible;"/>
		</clipPath>
		<rect x="60.8" y="69" class="st105" width="15.4" height="17.7"/>
	</g>
</g>
<g>
	<defs>
		<path id="SVGID_213_" d="M64.1,93.2c-0.1,0-0.3-0.1-0.3-0.2l-4.3-15.9c-0.1-0.2,0.1-0.3,0.2-0.4c0.2-0.1,0.3,0.1,0.4,0.2l4.3,15.9
			C64.4,93,64.3,93.1,64.1,93.2C64.1,93.2,64.1,93.2,64.1,93.2z"/>
	</defs>
	<clipPath id="SVGID_214_">
		<use xlink:href="#SVGID_213_"  style="overflow:visible;"/>
	</clipPath>
	<g class="st106">
		<defs>
			<rect id="SVGID_215_" x="-773" y="-603" width="1650" height="2197"/>
		</defs>
		<clipPath id="SVGID_216_">
			<use xlink:href="#SVGID_215_"  style="overflow:visible;"/>
		</clipPath>
		<rect x="54.4" y="71.7" class="st107" width="15" height="26.5"/>
	</g>
</g>
<g>
	<defs>
		<path id="SVGID_217_" d="M45.6,86.3C45.6,86.3,45.6,86.3,45.6,86.3c-0.2-0.1-0.4-0.2-0.3-0.4l2.2-9c0-0.2,0.2-0.3,0.4-0.2
			c0.2,0,0.3,0.2,0.2,0.4L45.9,86C45.9,86.2,45.8,86.3,45.6,86.3z"/>
	</defs>
	<clipPath id="SVGID_218_">
		<use xlink:href="#SVGID_217_"  style="overflow:visible;"/>
	</clipPath>
	<g class="st108">
		<defs>
			<rect id="SVGID_219_" x="-773" y="-603" width="1650" height="2197"/>
		</defs>
		<clipPath id="SVGID_220_">
			<use xlink:href="#SVGID_219_"  style="overflow:visible;"/>
		</clipPath>
		<rect x="40.3" y="71.6" class="st109" width="12.8" height="19.7"/>
	</g>
</g>
<g>
	<defs>
		<path id="SVGID_221_" d="M26.4,85.1c-0.1,0-0.1,0-0.2-0.1c-0.1-0.1-0.2-0.3-0.1-0.4L37,70.9c0.1-0.1,0.3-0.2,0.5-0.1
			c0.1,0.1,0.2,0.3,0.1,0.5L26.6,85C26.6,85,26.5,85.1,26.4,85.1z"/>
	</defs>
	<clipPath id="SVGID_222_">
		<use xlink:href="#SVGID_221_"  style="overflow:visible;"/>
	</clipPath>
	<g class="st110">
		<defs>
			<rect id="SVGID_223_" x="-773" y="-603" width="1650" height="2197"/>
		</defs>
		<clipPath id="SVGID_224_">
			<use xlink:href="#SVGID_223_"  style="overflow:visible;"/>
		</clipPath>
		<rect x="21.1" y="65.8" class="st111" width="21.5" height="24.3"/>
	</g>
</g>
<g>
	<defs>
		<path id="SVGID_225_" d="M17.7,69.5c-0.1,0-0.2-0.1-0.3-0.2c-0.1-0.2,0-0.3,0.1-0.4l13.6-7c0.2-0.1,0.3,0,0.4,0.1
			c0.1,0.2,0,0.3-0.1,0.4l-13.6,7C17.8,69.5,17.8,69.5,17.7,69.5z"/>
	</defs>
	<clipPath id="SVGID_226_">
		<use xlink:href="#SVGID_225_"  style="overflow:visible;"/>
	</clipPath>
	<g class="st112">
		<defs>
			<rect id="SVGID_227_" x="-773" y="-603" width="1650" height="2197"/>
		</defs>
		<clipPath id="SVGID_228_">
			<use xlink:href="#SVGID_227_"  style="overflow:visible;"/>
		</clipPath>
		<rect x="12.4" y="56.9" class="st113" width="24.2" height="17.6"/>
	</g>
</g>
<g>
	<defs>
		<path id="SVGID_229_" d="M22.8,52.4c-0.2,0-0.3-0.1-0.3-0.3c0-0.2,0.1-0.3,0.3-0.3l6.9,0c0.2,0,0.3,0.1,0.3,0.3
			c0,0.2-0.1,0.3-0.3,0.3L22.8,52.4z"/>
	</defs>
	<clipPath id="SVGID_230_">
		<use xlink:href="#SVGID_229_"  style="overflow:visible;"/>
	</clipPath>
	<g class="st114">
		<defs>
			<rect id="SVGID_231_" x="-773" y="-603" width="1650" height="2197"/>
		</defs>
		<clipPath id="SVGID_232_">
			<use xlink:href="#SVGID_231_"  style="overflow:visible;"/>
		</clipPath>
		<rect x="17.5" y="46.7" class="st115" width="17.5" height="10.7"/>
	</g>
</g>
<g>
	<defs>
		<path id="SVGID_233_" d="M41.9,32.8c-0.1,0-0.2,0-0.3-0.2l-8.1-12.9c-0.1-0.2-0.1-0.3,0.1-0.4c0.2-0.1,0.3,0,0.4,0.1l8.1,12.9
			c0.1,0.2,0.1,0.3-0.1,0.4C42.1,32.8,42,32.8,41.9,32.8z"/>
	</defs>
	<clipPath id="SVGID_234_">
		<use xlink:href="#SVGID_233_"  style="overflow:visible;"/>
	</clipPath>
	<g class="st116">
		<defs>
			<rect id="SVGID_235_" x="-773" y="-603" width="1650" height="2197"/>
		</defs>
		<clipPath id="SVGID_236_">
			<use xlink:href="#SVGID_235_"  style="overflow:visible;"/>
		</clipPath>
		<rect x="28.5" y="14.3" class="st117" width="18.7" height="23.5"/>
	</g>
</g>
<g>
	<defs>
		<path id="SVGID_237_" d="M35.1,38.7c-0.1,0-0.1,0-0.2-0.1L10,17.8c-0.1-0.1-0.2-0.3,0-0.5c0.1-0.1,0.3-0.2,0.5,0l24.8,20.8
			c0.1,0.1,0.2,0.3,0,0.5C35.3,38.7,35.2,38.7,35.1,38.7z"/>
	</defs>
	<clipPath id="SVGID_238_">
		<use xlink:href="#SVGID_237_"  style="overflow:visible;"/>
	</clipPath>
	<g class="st118">
		<defs>
			<rect id="SVGID_239_" x="-773" y="-603" width="1650" height="2197"/>
		</defs>
		<clipPath id="SVGID_240_">
			<use xlink:href="#SVGID_239_"  style="overflow:visible;"/>
		</clipPath>
		<rect x="4.9" y="12.3" class="st119" width="35.5" height="31.4"/>
	</g>
</g>
<g>
	<defs>
		<path id="SVGID_241_" d="M32.2,43c-0.1,0-0.1,0-0.2,0l-7.6-4.3c-0.2-0.1-0.2-0.3-0.1-0.4c0.1-0.2,0.3-0.2,0.4-0.1l7.6,4.3
			c0.2,0.1,0.2,0.3,0.1,0.4C32.4,43,32.3,43,32.2,43z"/>
	</defs>
	<clipPath id="SVGID_242_">
		<use xlink:href="#SVGID_241_"  style="overflow:visible;"/>
	</clipPath>
	<g class="st120">
		<defs>
			<rect id="SVGID_243_" x="-773" y="-603" width="1650" height="2197"/>
		</defs>
		<clipPath id="SVGID_244_">
			<use xlink:href="#SVGID_243_"  style="overflow:visible;"/>
		</clipPath>
		<rect x="19.3" y="33.1" class="st121" width="18.3" height="15"/>
	</g>
</g>
</svg>
