<?xml version="1.0" encoding="utf-8"?>
<!-- Generator: Adobe Illustrator 19.2.1, SVG Export Plug-In . SVG Version: 6.00 Build 0)  -->
<svg version="1.1" id="Layer_1" xmlns="http://www.w3.org/2000/svg" xmlns:xlink="http://www.w3.org/1999/xlink" x="0px" y="0px"
	 viewBox="0 0 59 59" style="enable-background:new 0 0 59 59;" xml:space="preserve">
<style type="text/css">
	.st0{fill:#5A758D;}
</style>
<g>
	<path class="st0" d="M10.5,45.4c-0.3,0-0.5,0.2-0.5,0.5v3.4c0,0.3,0.2,0.5,0.5,0.5s0.5-0.2,0.5-0.5v-3.4
		C11,45.6,10.8,45.4,10.5,45.4z"/>
	<path class="st0" d="M24.5,45.4c-0.3,0-0.5,0.2-0.5,0.5v3.4c0,0.3,0.2,0.5,0.5,0.5s0.5-0.2,0.5-0.5v-3.4
		C25,45.6,24.8,45.4,24.5,45.4z"/>
	<path class="st0" d="M38.5,45.4c-0.3,0-0.5,0.2-0.5,0.5v3.4c0,0.3,0.2,0.5,0.5,0.5s0.5-0.2,0.5-0.5v-3.4
		C39,45.6,38.8,45.4,38.5,45.4z"/>
	<path class="st0" d="M17.5,41.9c-0.3,0-0.5,0.2-0.5,0.5v6.9c0,0.3,0.2,0.5,0.5,0.5s0.5-0.2,0.5-0.5v-6.9
		C18,42.2,17.8,41.9,17.5,41.9z"/>
	<path class="st0" d="M31.5,41.9c-0.3,0-0.5,0.2-0.5,0.5v6.9c0,0.3,0.2,0.5,0.5,0.5s0.5-0.2,0.5-0.5v-6.9
		C32,42.2,31.8,41.9,31.5,41.9z"/>
	<path class="st0" d="M45.5,41.9c-0.3,0-0.5,0.2-0.5,0.5v6.9c0,0.3,0.2,0.5,0.5,0.5s0.5-0.2,0.5-0.5v-6.9
		C46,42.2,45.8,41.9,45.5,41.9z"/>
	<path class="st0" d="M49.3,4H9.7C6.5,4,4,6.5,4,9.7v39.7C4,52.5,6.5,55,9.7,55h39.7c3.1,0,5.7-2.5,5.7-5.7V9.7
		C55,6.5,52.5,4,49.3,4z M9.7,5h39.7C51.9,5,54,7.1,54,9.7V23h-9.5l-5-13.5c-0.1-0.2-0.3-0.3-0.5-0.3s-0.4,0.2-0.5,0.4l-4.8,23.1
		L27.4,13c-0.1-0.2-0.3-0.3-0.5-0.3s-0.4,0.1-0.5,0.3l-4.7,12.6l-3.8-9.2c-0.1-0.2-0.2-0.3-0.4-0.3c-0.2,0-0.4,0.1-0.5,0.2L12.8,23
		H5V9.7C5,7.1,7.1,5,9.7,5z M49.3,54H9.7C7.1,54,5,51.9,5,49.3V24h8.1c0.2,0,0.3-0.1,0.4-0.2l3.8-6.1l3.9,9.5
		c0.1,0.2,0.3,0.3,0.5,0.3s0.4-0.1,0.5-0.3l4.7-12.4L33.4,35c0.1,0.2,0.3,0.3,0.5,0.3l0,0c0.2,0,0.4-0.2,0.5-0.4l4.8-23.3l4.6,12.2
		c0.1,0.2,0.3,0.3,0.5,0.3H54v25.4C54,51.9,51.9,54,49.3,54z"/>
</g>
</svg>
