<?xml version="1.0" encoding="utf-8"?>
<!-- Generator: Adobe Illustrator 19.2.1, SVG Export Plug-In . SVG Version: 6.00 Build 0)  -->
<svg version="1.1" id="Layer_1" xmlns="http://www.w3.org/2000/svg" xmlns:xlink="http://www.w3.org/1999/xlink" x="0px" y="0px"
	 viewBox="0 0 13 13" style="enable-background:new 0 0 13 13;" xml:space="preserve">
<style type="text/css">
	.st0{fill-rule:evenodd;clip-rule:evenodd;fill:#3792D0;}
</style>
<path class="st0" d="M8.4,10.2H4.7V9.9c0.2,0,0.4-0.1,0.5-0.1c0.1,0,0.2-0.1,0.3-0.1c0.1-0.1,0.1-0.1,0.2-0.3c0-0.1,0.1-0.3,0.1-0.6
	V6.5c0-0.2,0-0.4,0-0.6c0-0.1-0.1-0.3-0.1-0.3C5.5,5.6,5.4,5.5,5.3,5.5c-0.2,0-0.4-0.1-0.6-0.1V5.1l2.2,0h0.6v3.8
	c0,0.3,0,0.5,0.1,0.6c0,0.1,0.1,0.2,0.3,0.3c0.1,0.1,0.4,0.1,0.7,0.2V10.2z M6.3,2.1c0.6,0,1.1,0.5,1.1,1.1c0,0.6-0.5,1.1-1.1,1.1
	c-0.6,0-1.1-0.5-1.1-1.1C5.2,2.6,5.7,2.1,6.3,2.1z M6.5,0C2.9,0,0,2.9,0,6.5C0,10.1,2.9,13,6.5,13c3.6,0,6.5-2.9,6.5-6.5
	C13,2.9,10.1,0,6.5,0z"/>
</svg>
