<?xml version="1.0" encoding="utf-8"?>
<!-- Generator: Adobe Illustrator 19.2.1, SVG Export Plug-In . SVG Version: 6.00 Build 0)  -->
<svg version="1.1" id="Layer_1" xmlns="http://www.w3.org/2000/svg" xmlns:xlink="http://www.w3.org/1999/xlink" x="0px" y="0px"
	 viewBox="0 0 59 59" style="enable-background:new 0 0 59 59;" xml:space="preserve">
<style type="text/css">
	.st0{fill:#5A758D;}
</style>
<g>
	<path class="st0" d="M58.9,58.2L51,48.3V36.5c0-4.4-3.2-8.1-8-12.2V3.5C43,1.6,41.4,0,39.5,0h-36C1.6,0,0,1.6,0,3.5v44
		C0,49.4,1.6,51,3.5,51h36.8c1,3.2,4.7,7.6,4.8,7.8c0.1,0.1,0.2,0.2,0.4,0.2c0.1,0,0.2,0,0.3-0.1c0.2-0.2,0.2-0.5,0.1-0.7
		c-1.2-1.4-4-5.2-4.7-7.7c0-0.1,0-0.1,0-0.2C41,50,41,49.7,41,49.5v-2.2l-6.1-8.2c-0.8-0.8-0.8-2.5,0-3.3c0.8-0.8,2.5-0.8,3.3,0l4,4
		c0,0,0,0,0,0l2,2c0.2,0.2,0.5,0.2,0.7,0s0.2-0.5,0-0.7L43,39.3V25.6c4.2,3.7,7,7,7,10.9v12.2l8.1,10.1c0.1,0.1,0.2,0.2,0.4,0.2
		c0.1,0,0.2,0,0.3-0.1C59,58.7,59.1,58.4,58.9,58.2z M36,34.3c-0.7,0.1-1.4,0.4-1.9,0.9c-0.6,0.6-0.9,1.4-0.9,2.4s0.3,1.8,0.8,2.3
		l1.7,2.2L7,42V7h29V34.3z M42,38.3l-3.1-3.1c-0.5-0.5-1.1-0.8-1.9-0.9V6H6v37l30.5,0l3.5,4.7v1.8c0,0.2,0,0.3,0,0.5H3.5
		C2.1,50,1,48.9,1,47.5v-44C1,2.1,2.1,1,3.5,1h36C40.9,1,42,2.1,42,3.5V38.3z"/>
	<rect x="17.5" y="46" class="st0" width="8" height="1"/>
	<rect x="12.5" y="20" class="st0" width="18" height="1"/>
	<rect x="12.5" y="16" class="st0" width="18" height="1"/>
	<rect x="12.5" y="28" class="st0" width="18" height="1"/>
	<rect x="12.5" y="24" class="st0" width="18" height="1"/>
	<rect x="12.5" y="32" class="st0" width="18" height="1"/>
	<rect x="12.5" y="12" class="st0" width="10" height="1"/>
	<circle class="st0" cx="14.7" cy="46.5" r="1.3"/>
	<circle class="st0" cx="28.2" cy="46.5" r="1.3"/>
</g>
</svg>
