<?xml version="1.0" encoding="utf-8"?>
<!-- Generator: Adobe Illustrator 19.2.1, SVG Export Plug-In . SVG Version: 6.00 Build 0)  -->
<svg version="1.1" id="Layer_1" xmlns="http://www.w3.org/2000/svg" xmlns:xlink="http://www.w3.org/1999/xlink" x="0px" y="0px"
	 viewBox="0 0 16 18" style="enable-background:new 0 0 16 18;" xml:space="preserve">
<style type="text/css">
	.st0{fill:#FFFFFF;}
</style>
<title>Page 1</title>
<desc>Created with Sketch.</desc>
<g id="Page-1_1_">
	<g id="Landing-Page-1" transform="translate(-1166.000000, -670.000000)">
		<g id="Group-4" transform="translate(881.000000, 655.000000)">
			<g id="Page-1" transform="translate(285.000000, 15.000000)">
				<path id="Fill-1" class="st0" d="M2.6,6c0.7-0.7,1.4-1.5,2-2.2C4.3,3.4,4.2,3,4.3,2.6c0.1-0.4,0.2-0.6,0.5-0.9
					C5.3,1.2,6,1.1,6.6,1.5c0.7,0.4,0.9,1.1,0.6,2c0.5,0.3,1,0.6,1.5,0.8C9,3.9,9.4,3.7,9.8,3.7c0.5,0,0.9,0.1,1.2,0.4
					c0.6-0.5,1.2-1,1.8-1.6c-0.4-1-0.3-1.8,0.5-2.2c0.7-0.4,1.5-0.3,2,0.3c0.5,0.6,0.5,1.4,0,2c-0.6,0.6-1.4,0.7-2.2,0.2
					c-0.6,0.5-1.2,1-1.8,1.6c0.4,0.9,0.3,1.6-0.3,2.1c-0.5,0.4-1.2,0.5-1.8,0.1c-0.6-0.4-0.8-1-0.6-1.9C8.1,4.3,7.6,4,7.1,3.8
					c0,0-0.1,0-0.1,0C6.2,4.5,5.8,4.5,4.9,4.1c-0.7,0.7-1.4,1.5-2,2.2c0.3,0.4,0.5,0.8,0.3,1.3C3.1,8,2.9,8.3,2.6,8.5
					C2,9,1.1,8.9,0.6,8.4C0,7.8-0.1,7,0.4,6.4C0.9,5.7,1.7,5.6,2.6,6L2.6,6z M15,1.6c0-0.5-0.4-0.8-0.8-0.9c-0.5,0-0.9,0.4-0.9,0.8
					c0,0.5,0.4,0.9,0.9,0.9C14.6,2.5,15,2.1,15,1.6L15,1.6z M6.7,2.8C6.7,2.3,6.3,2,5.8,2C5.3,2,5,2.3,5,2.8c0,0.5,0.4,0.9,0.9,0.9
					C6.3,3.6,6.7,3.3,6.7,2.8L6.7,2.8z M9.1,5.2c0,0.5,0.4,0.9,0.8,0.9c0.5,0,0.9-0.4,0.9-0.8c0-0.5-0.4-0.8-0.8-0.9
					C9.5,4.4,9.1,4.7,9.1,5.2L9.1,5.2z M2.5,7.3c0-0.5-0.4-0.8-0.9-0.8c-0.5,0-0.9,0.4-0.9,0.8c0,0.5,0.4,0.9,0.9,0.9
					C2.1,8.1,2.5,7.7,2.5,7.3L2.5,7.3z"/>
				<path id="Fill-2" class="st0" d="M13.3,5.9v0.9c0,1.5,0,3,0,4.5c0,2,0,4,0,6.1c0,0.2,0,0.2,0.2,0.2c0.4,0,0.9,0,1.3,0
					c0.2,0,0.2-0.1,0.2-0.2c0-3.4,0-6.9,0-10.3V5.9C14.4,5.9,13.8,5.9,13.3,5.9L13.3,5.9z"/>
				<path id="Fill-3" class="st0" d="M5,8v1.2v5c0,1,0,2.1,0,3.1c0,0.2,0.1,0.2,0.2,0.2c0.4,0,0.8,0,1.2,0c0.2,0,0.3,0,0.3-0.2
					c0-2.7,0-5.5,0-8.2V8H5L5,8z"/>
				<path id="Fill-4" class="st0" d="M9.1,10V11c0,2.1,0,4.3,0,6.4c0,0.1,0,0.2,0.2,0.2c0.4,0,0.9,0,1.3,0c0.2,0,0.2,0,0.2-0.2
					c0-2,0-4.1,0-6.1V10C10.2,10,9.7,10,9.1,10L9.1,10z"/>
				<path id="Fill-5" class="st0" d="M0.8,12.1V13c0,1.4,0,2.9,0,4.3c0,0.2,0.1,0.2,0.2,0.2c0.4,0,0.9,0,1.3,0c0.2,0,0.2,0,0.2-0.2
					c0-1.4,0-2.7,0-4.1v-1.1C1.9,12.1,1.4,12.1,0.8,12.1L0.8,12.1z"/>
			</g>
		</g>
	</g>
</g>
</svg>
