<?xml version="1.0" encoding="utf-8"?>
<!-- Generator: Adobe Illustrator 19.2.1, SVG Export Plug-In . SVG Version: 6.00 Build 0)  -->
<svg version="1.1" id="Layer_1" xmlns="http://www.w3.org/2000/svg" xmlns:xlink="http://www.w3.org/1999/xlink" x="0px" y="0px"
	 viewBox="0 0 70 64" style="enable-background:new 0 0 70 64;" xml:space="preserve">
<style type="text/css">
	.st0{fill:#5A758D;}
	.st1{fill-rule:evenodd;clip-rule:evenodd;fill:#FFFFFF;}
	.st2{clip-path:url(#SVGID_2_);}
	.st3{clip-path:url(#SVGID_4_);fill:#F3735F;}
	.st4{fill:#DE8F5A;}
</style>
<g>
	<g>
		<path class="st0" d="M58.6,23.5H33.8l8.1-8.1c0.2-0.2,0.2-0.5,0-0.7l-5-5c-0.2-0.2-0.5-0.2-0.7,0L32,13.9l-3.1-3.2
			c-0.1-0.1-0.2-0.2-0.4-0.2c-0.1,0-0.3,0.1-0.4,0.1l-8,8c-0.2,0.2-0.2,0.5,0,0.7c0.1,0.1,0.2,0.1,0.4,0.1s0.3,0,0.4-0.1l7.6-7.6
			l2.7,2.9l-8.9,8.9H0.6c-0.3,0-0.5,0.2-0.5,0.5v32c0,0.3,0.2,0.5,0.5,0.5h58c0.3,0,0.5-0.2,0.5-0.5V24
			C59.1,23.7,58.9,23.5,58.6,23.5z M8.8,39l3.8,3.8l-5.3,1.5L8.8,39z M13.6,42.3L9.3,38l13.6-13.6c0,0,0,0,0,0l4.6-4.6l4.3,4.3
			L13.6,42.3z M36.6,10.7l4.3,4.3l-8.3,8.3L28.3,19L36.6,10.7z M58.1,55.5h-57v-31h20.3L8.2,37.6c-0.1,0.1-0.1,0.1-0.1,0.2
			c0,0,0,0,0,0l-2,7c0,0.2,0,0.4,0.1,0.5c0.1,0.1,0.2,0.1,0.4,0.1c0,0,0.1,0,0.1,0l7-2c0,0,0,0,0,0c0.1,0,0.1-0.1,0.2-0.1l18.9-18.9
			h25.3V55.5z"/>
		<path class="st0" d="M50.6,45.5h-30c-0.3,0-0.5,0.2-0.5,0.5s0.2,0.5,0.5,0.5h30c0.3,0,0.5-0.2,0.5-0.5S50.9,45.5,50.6,45.5z"/>
		<path class="st0" d="M30.6,37.5c-0.3,0-0.5,0.2-0.5,0.5s0.2,0.5,0.5,0.5h20c0.3,0,0.5-0.2,0.5-0.5s-0.2-0.5-0.5-0.5H30.6z"/>
	</g>
	<circle class="st1" cx="59.1" cy="18.5" r="10.5"/>
	<g>
		<defs>
			<path id="SVGID_1_" d="M63.3,19.6l-3.8,3.2c-0.2,0.2-0.6,0.2-0.8,0l-3.8-3.2c-0.1-0.1-0.2-0.3-0.2-0.4c0-0.2,0-0.3,0.1-0.4
				c0.1-0.1,0.3-0.2,0.5-0.2c0.1,0,0.3,0.1,0.4,0.1l2.8,2.4l0-6.3c0-0.3,0.3-0.6,0.6-0.6h0c0.3,0,0.6,0.3,0.6,0.6l0,6.3l2.8-2.4
				c0.1-0.1,0.2-0.1,0.4-0.1c0.2,0,0.3,0.1,0.5,0.2c0.1,0.1,0.2,0.3,0.1,0.4C63.5,19.3,63.4,19.4,63.3,19.6z"/>
		</defs>
		<clipPath id="SVGID_2_">
			<use xlink:href="#SVGID_1_"  style="overflow:visible;"/>
		</clipPath>
		<g class="st2">
			<defs>
				<rect id="SVGID_3_" x="-1125.4" y="-578" width="1650" height="1470"/>
			</defs>
			<clipPath id="SVGID_4_">
				<use xlink:href="#SVGID_3_"  style="overflow:visible;"/>
			</clipPath>
			<rect x="49.7" y="9.1" class="st3" width="18.8" height="18.8"/>
		</g>
	</g>
	<path class="st4" d="M59.1,29.5c-6.1,0-11-4.9-11-11s4.9-11,11-11s11,4.9,11,11S65.1,29.5,59.1,29.5z M59.1,8.5
		c-5.5,0-10,4.5-10,10s4.5,10,10,10s10-4.5,10-10S64.6,8.5,59.1,8.5z"/>
</g>
</svg>
