<?xml version="1.0" encoding="utf-8"?>
<!-- Generator: Adobe Illustrator 19.2.1, SVG Export Plug-In . SVG Version: 6.00 Build 0)  -->
<svg version="1.1" id="Layer_1" xmlns="http://www.w3.org/2000/svg" xmlns:xlink="http://www.w3.org/1999/xlink" x="0px" y="0px"
	 viewBox="0 0 70 64" style="enable-background:new 0 0 70 64;" xml:space="preserve">
<style type="text/css">
	.st0{fill:#5A758D;}
	.st1{fill:#FFFFFF;}
	.st2{fill:#56C0A4;}
	.st3{fill-rule:evenodd;clip-rule:evenodd;fill:#56C0A4;}
</style>
<g>
	<g>
		<path class="st0" d="M39.1,28.5c0,0.3,0.2,0.5,0.5,0.5s0.5-0.2,0.5-0.5c0-3.4-2.6-6.2-6-6.5v-3.5c0-0.3-0.2-0.5-0.5-0.5
			s-0.5,0.2-0.5,0.5V22c-3.4,0.3-6,3.1-6,6.5s2.6,6.2,6,6.5v11c-2.8-0.3-5-2.6-5-5.5c0-0.3-0.2-0.5-0.5-0.5s-0.5,0.2-0.5,0.5
			c0,3.4,2.6,6.2,6,6.5v3.5c0,0.3,0.2,0.5,0.5,0.5s0.5-0.2,0.5-0.5V47c3.4-0.3,6-3.1,6-6.5s-2.6-6.2-6-6.5V23
			C36.9,23.3,39.1,25.6,39.1,28.5z M28.1,28.5c0-2.9,2.2-5.2,5-5.5V34C30.3,33.7,28.1,31.4,28.1,28.5z M39.1,40.5
			c0,2.9-2.2,5.2-5,5.5V35C36.9,35.3,39.1,37.6,39.1,40.5z"/>
		<path class="st0" d="M33.6,5C17.3,5,4.1,18.2,4.1,34.5S17.3,64,33.6,64s29.5-13.2,29.5-29.5S49.8,5,33.6,5z M33.6,63
			C17.9,63,5.1,50.2,5.1,34.5S17.9,6,33.6,6s28.5,12.8,28.5,28.5S49.3,63,33.6,63z"/>
	</g>
	<g>
		<circle class="st1" cx="55.1" cy="11" r="10.5"/>
		<path class="st2" d="M55.1,22c-6.1,0-11-4.9-11-11S49,0,55.1,0s11,4.9,11,11S61.1,22,55.1,22z M55.1,1c-5.5,0-10,4.5-10,10
			s4.5,10,10,10c5.5,0,10-4.5,10-10S60.6,1,55.1,1z"/>
	</g>
	<path class="st3" d="M59.3,9.9l-3.8-3.2c-0.2-0.2-0.6-0.2-0.8,0l-3.8,3.2c-0.1,0.1-0.2,0.3-0.2,0.4c0,0.2,0,0.3,0.1,0.4
		c0.1,0.1,0.3,0.2,0.5,0.2c0.1,0,0.3-0.1,0.4-0.1l2.8-2.4l0,6.3c0,0.3,0.3,0.6,0.6,0.6h0c0.3,0,0.6-0.3,0.6-0.6l0-6.3l2.8,2.4
		c0.1,0.1,0.2,0.1,0.4,0.1c0.2,0,0.3-0.1,0.5-0.2c0.1-0.1,0.2-0.3,0.1-0.4C59.5,10.2,59.4,10.1,59.3,9.9z"/>
</g>
</svg>
