<?xml version="1.0" encoding="utf-8"?>
<!-- Generator: Adobe Illustrator 19.2.1, SVG Export Plug-In . SVG Version: 6.00 Build 0)  -->
<svg version="1.1" id="Layer_1" xmlns="http://www.w3.org/2000/svg" xmlns:xlink="http://www.w3.org/1999/xlink" x="0px" y="0px"
	 viewBox="0 0 23 22" style="enable-background:new 0 0 23 22;" xml:space="preserve">
<style type="text/css">
	.st0{fill:#FFFFFF;}
</style>
<title>Page 1</title>
<desc>Created with Sketch.</desc>
<g id="Page-1_1_">
	<g id="Landing-Page-1" transform="translate(-1500.000000, -668.000000)">
		<g id="Group-3" transform="translate(1218.000000, 655.000000)">
			<g id="Page-1" transform="translate(282.000000, 13.000000)">
				<path id="Fill-1" class="st0" d="M22.7,14.7c-0.2-0.5-0.7-0.8-1.2-0.7c-0.2,0-0.3,0.1-0.4,0.3l-5.1-1.8c0.1-0.3,0.1-0.6,0.1-1
					c0-1.6-0.7-3-1.9-3.9l4.1-5.4c0,0,0.1,0,0.1,0c0.5,0,1-0.4,1-1c0-0.5-0.4-1-1-1c-0.5,0-1,0.4-1,1c0,0.2,0.1,0.3,0.1,0.5
					l-4.1,5.4c-0.8-0.4-1.6-0.7-2.6-0.7c-1.6,0-3,0.7-4,1.8L5,7c0,0,0-0.1,0-0.1c0-0.5-0.4-1-1-1c-0.5,0-1,0.4-1,1c0,0.5,0.4,1,1,1
					c0.2,0,0.4-0.1,0.5-0.1L6.4,9c-0.5,0.7-0.7,1.6-0.7,2.5c0,0.6,0.1,1.1,0.3,1.6l-4.3,2c0,0-0.1,0-0.1-0.1
					c-0.5-0.2-1.1-0.1-1.3,0.4c-0.3,0.5-0.1,1,0.4,1.3c0.5,0.2,1.1,0.1,1.3-0.4c0.1-0.2,0.1-0.3,0.1-0.5l4.2-2
					c0.8,1.5,2.4,2.5,4.2,2.6l0,3.4c0,0-0.1,0-0.1,0.1c-0.4,0.3-0.5,0.9-0.2,1.3c0.3,0.4,0.9,0.5,1.4,0.2c0.4-0.3,0.5-0.9,0.2-1.3
					c-0.1-0.1-0.3-0.2-0.4-0.3l0-3.4c2-0.2,3.6-1.5,4.3-3.2l5.1,1.8c0,0,0,0.1,0,0.1c0.2,0.5,0.7,0.8,1.2,0.7
					C22.5,15.7,22.8,15.2,22.7,14.7L22.7,14.7z M10.8,15.8c-2.4,0-4.4-1.9-4.4-4.3c0-2.3,2-4.3,4.4-4.3c2.4,0,4.4,1.9,4.4,4.3
					C15.2,13.9,13.2,15.8,10.8,15.8L10.8,15.8z"/>
				<path id="Fill-2" class="st0" d="M10.8,8.4c-1.8,0-3.2,1.4-3.2,3.1s1.4,3.1,3.2,3.1s3.2-1.4,3.2-3.1S12.6,8.4,10.8,8.4L10.8,8.4
					z"/>
			</g>
		</g>
	</g>
</g>
</svg>
