
<svg width="1290px" height="1238px" viewBox="522 253 1290 1238" version="1.1" xmlns="http://www.w3.org/2000/svg" xmlns:xlink="http://www.w3.org/1999/xlink">
    <!-- Generator: Sketch 42 (36781) - http://www.bohemiancoding.com/sketch -->
    <desc>Created with Sketch.</desc>
    <defs></defs>
    <g id="Page-1-Copy" opacity="0.157707556" stroke="none" stroke-width="1" fill="none" fill-rule="evenodd" transform="translate(522.000000, 254.000000)">
        <path d="M150.456167,590.526588 L200.515822,419.209654 L109.668713,474.555001 L150.456167,590.526588 Z M150.550859,595.274096 C150.073613,595.274096 149.628563,594.941203 149.495995,594.481583 L107.27491,474.452863 C107.106359,473.936501 107.295742,473.414464 107.740792,473.13264 L201.796052,415.823981 C201.955134,415.71806 202.169137,415.65186 202.386928,415.65186 C202.644489,415.65186 202.890687,415.744541 203.081964,415.909096 C203.424747,416.206051 203.562997,416.650539 203.441792,417.064764 L151.603829,594.466452 C151.490199,594.907157 151.096282,595.230593 150.607674,595.272204 L150.579266,595.274096 L150.550859,595.274096 Z" id="Fill-1" fill="#8199B0"></path>
        <path d="M201.265211,657.891452 L201.265211,424.520242 L151.773706,593.915476 L201.265211,657.891452 Z M202.369315,662.25878 C202.075771,662.25878 201.79359,662.130163 201.55118,661.891842 L149.677234,594.84228 C149.45755,594.590719 149.376115,594.199192 149.478382,593.847384 L201.310663,416.451371 C201.47732,415.961488 201.899645,415.655076 202.373103,415.655076 L202.545441,415.666424 C203.087077,415.749647 203.486676,416.209267 203.486676,416.757783 L203.486676,661.140941 C203.486676,661.591103 203.198813,662.005328 202.76702,662.177449 L202.649602,662.222843 L202.369315,662.25878 Z" id="Fill-3" fill="#8199B0"></path>
        <path d="M799.660552,328.674305 L860.958204,203.04693 L738.361007,131.57708 L799.660552,328.674305 Z M799.401097,332.773049 C798.952259,332.773049 798.560236,332.491225 798.380322,332.039172 L735.395266,129.504065 C735.272167,129.06336 735.404735,128.60374 735.736156,128.316242 C735.976672,128.138447 736.217189,128.057115 736.463387,128.057115 C736.669815,128.057115 736.872455,128.117641 737.044793,128.229236 L862.963772,201.652941 C863.454275,201.940439 863.649339,202.530568 863.433442,203.054496 L800.433236,332.154549 C800.262791,332.529054 799.876449,332.773049 799.435186,332.773049 L799.401097,332.773049 Z" id="Fill-7" fill="#8199B0"></path>
        <path d="M570.917494,366.968344 L567.249142,180.056509 L417.363723,244.047617 L570.917494,366.968344 Z M572.061369,370.431566 C571.777294,370.431566 571.514051,370.325646 571.318987,370.138393 L414.549489,244.635854 C414.210493,244.384292 414.049517,243.962502 414.144209,243.55206 C414.176404,243.258887 414.413133,242.931669 414.746447,242.761439 L567.876,177.368777 C567.987737,177.312034 568.1525,177.272314 568.315369,177.272314 C568.538842,177.272314 568.754738,177.342297 568.93844,177.472806 C569.21494,177.626013 569.427049,177.989169 569.427049,178.361782 L573.178729,369.283464 C573.178729,369.720386 572.932531,370.125153 572.565128,370.308623 C572.409834,370.388063 572.233707,370.431566 572.061369,370.431566 L572.061369,370.431566 Z" id="Fill-9" fill="#8199B0"></path>
        <path d="M152.656232,267.79272 L230.435901,263.502941 L230.435901,181.278378 L152.656232,267.79272 Z M150.021912,270.166474 C149.590118,270.166474 149.211352,269.913022 149.033332,269.506363 C148.817435,269.120509 148.906445,268.571993 149.273848,268.254231 L230.727551,177.639253 C230.935873,177.404714 231.236992,177.266639 231.553262,177.266639 L231.678255,177.266639 L231.954754,177.342297 C232.388442,177.518201 232.651684,177.913511 232.651684,178.380696 L232.651684,264.565928 C232.651684,265.150383 232.208528,265.623242 231.619546,265.664854 L150.076833,270.166474 L150.021912,270.166474 Z" id="Fill-13" fill="#8199B0"></path>
        <path d="M232.652063,262.758282 L303.629089,226.991202 L232.652063,180.427799 L232.652063,262.758282 Z M231.534702,265.667312 C231.313124,265.667312 231.102909,265.597329 230.924889,265.463037 C230.637026,265.287133 230.43628,264.941 230.43628,264.566496 L230.43628,178.379372 C230.43628,177.993519 230.640814,177.624689 230.972234,177.41663 C231.214645,177.301253 231.379408,177.267207 231.544172,177.267207 C231.780901,177.267207 232.006267,177.340973 232.193756,177.482831 L306.452792,226.19869 C306.776638,226.380268 306.984959,226.798276 306.939507,227.214392 C306.941401,227.549176 306.710354,227.921789 306.339162,228.110933 L232.042249,265.544369 C231.881274,265.625701 231.708935,265.667312 231.534702,265.667312 L231.534702,265.667312 Z" id="Fill-15" fill="#8199B0"></path>
        <path d="M455.367812,90.8425185 L566.39938,40.4981317 L470.781709,15.1736775 L455.367812,90.8425185 Z M453.826233,93.8688182 C453.57246,93.8688182 453.337625,93.7818121 453.131197,93.6134742 C452.831972,93.3600216 452.688041,92.985517 452.731599,92.6034466 L468.814018,13.5735216 C468.904922,13.2519772 469.073473,13.017439 469.302626,12.8604497 C469.541249,12.7375063 469.724951,12.6940032 469.904865,12.6940032 L470.012813,12.6940032 L470.238179,12.7469635 L569.971147,39.1362968 C570.40294,39.2535659 570.721104,39.6053732 570.804432,40.0574268 C570.813902,40.6456638 570.543084,41.0579971 570.122653,41.2282265 L454.29401,93.7723549 C454.172805,93.8688182 453.947439,93.8688182 453.826233,93.8688182 L453.826233,93.8688182 Z" id="Fill-17" fill="#8199B0"></path>
        <path d="M336.61301,1110.76415 L274.512373,1057.29322 L254.988862,1082.89382 L336.61301,1110.76415 Z M341.521822,1114.78724 L341.237747,1114.67186 L252.812849,1084.49965 C252.490898,1084.40508 252.199248,1084.10434 252.108344,1083.76388 C252.030697,1083.46693 252.079936,1083.13593 252.239018,1082.84843 L273.466978,1055.00647 C273.610909,1054.78706 273.885515,1054.62251 274.215042,1054.57711 C274.23398,1054.57522 274.252918,1054.57522 274.27375,1054.57522 C274.629791,1054.57522 274.862732,1054.66412 275.055903,1054.82111 L342.404347,1112.83717 C342.802052,1113.15682 342.915682,1113.74127 342.656227,1114.21224 C342.497145,1114.54892 342.10891,1114.78724 341.690373,1114.78724 L341.521822,1114.78724 Z" id="Fill-19" fill="#8199B0"></path>
        <path d="M247.812944,1075.02998 L201.499289,980.471356 L135.650759,935.78615 L247.812944,1075.02998 Z M253.185744,1084.57039 C252.869475,1084.57039 252.539948,1084.41151 252.325945,1084.15428 L129.262864,931.398015 C128.935232,930.934613 128.961745,930.344485 129.300741,929.966197 C129.518532,929.724093 129.808288,929.593584 130.126452,929.593584 C130.344242,929.593584 130.558245,929.657893 130.747628,929.775162 L203.001097,978.787977 C203.177223,978.941183 203.290853,979.047104 203.372288,979.202202 L254.1819,1082.96645 C254.445143,1083.45255 254.255759,1084.10888 253.750106,1084.40584 C253.608069,1084.48149 253.431943,1084.57039 253.185744,1084.57039 L253.185744,1084.57039 Z" id="Fill-21" fill="#8199B0"></path>
        <path d="M253.394445,1081.35627 L272.899018,1055.75189 L206.586499,985.759247 L253.394445,1081.35627 Z M253.131202,1084.56982 C252.693727,1084.52065 252.366094,1084.28422 252.191862,1083.94754 L201.387931,980.205987 C201.149308,979.73502 201.279983,979.161914 201.711776,978.817672 C201.925779,978.668249 202.137889,978.60394 202.361361,978.60394 C202.66248,978.60394 202.95413,978.724992 203.170027,978.940616 L275.158359,1054.91587 C275.520081,1055.28092 275.565533,1055.87861 275.254945,1056.32688 L254.064861,1084.1329 C253.828132,1084.41662 253.51565,1084.56982 253.186123,1084.56982 L253.131202,1084.56982 Z" id="Fill-23" fill="#8199B0"></path>
        <path d="M146.158116,856.973551 L149.392781,597.298123 L90.1272102,669.552919 L146.158116,856.973551 Z M147.167528,865.38099 C146.695964,865.38099 146.269852,865.067011 146.105089,864.603609 L87.8262046,669.628577 C87.7315131,669.257855 87.8186293,668.864436 88.0383138,668.597743 L149.688219,593.460396 C149.841619,593.220184 150.173039,593.046172 150.532867,593.046172 L150.65786,593.046172 L150.936254,593.121829 C151.40403,593.310973 151.693786,593.764918 151.646441,594.224537 L148.284889,864.272607 C148.247013,864.743575 147.985664,865.116188 147.61826,865.278852 L147.550082,865.362075 L147.167528,865.38099 Z" id="Fill-25" fill="#8199B0"></path>
        <path d="M199.61076,976.488746 L147.479253,867.504128 L131.393046,930.224189 L199.61076,976.488746 Z M202.370072,980.822029 C202.116299,980.822029 201.885251,980.712325 201.818967,980.678279 L129.512471,931.618178 C129.135599,931.368509 128.950003,930.910781 129.044695,930.460619 L146.087287,863.99362 C146.200917,863.562373 146.545594,863.24272 146.992538,863.157605 L147.055035,863.146256 L147.157302,863.144365 C147.609928,863.144365 148.013314,863.405383 148.181865,863.817717 L203.38706,979.225656 C203.568868,979.734452 203.470389,980.20542 203.154119,980.525073 C202.835955,980.750154 202.608695,980.822029 202.370072,980.822029 L202.370072,980.822029 Z" id="Fill-27" fill="#8199B0"></path>
        <path d="M148.404201,855.543813 L201.151202,661.391556 L151.60667,597.360729 L148.404201,855.543813 Z M146.853152,865.381179 L146.773611,865.296064 C146.356968,865.142858 146.067212,864.739981 146.067212,864.263339 L149.432551,594.149069 C149.432551,593.664861 149.762078,593.227939 150.233642,593.101212 L150.320758,593.076624 L150.5537,593.050144 C150.873757,593.050144 151.180558,593.192001 151.400242,593.443563 L203.257143,660.455295 C203.465465,660.693616 203.550687,661.045423 203.471146,661.395339 L148.243225,864.554621 C148.12202,865.031263 147.6675,865.381179 147.167528,865.381179 L146.853152,865.381179 Z" id="Fill-29" fill="#8199B0"></path>
        <path d="M88.5191577,661.826776 L106.984017,476.267319 L57.6118236,508.08886 L88.5191577,661.826776 Z M88.8998179,670.415793 C88.346819,670.415793 87.8885117,670.031831 87.8070769,669.50412 L55.2956674,507.78623 C55.210445,507.370114 55.3884652,506.914278 55.7407179,506.653259 L107.718824,473.152122 C107.893056,473.034853 108.108953,472.966761 108.332425,472.966761 C108.531278,472.966761 108.73013,473.023504 108.900575,473.129424 C109.294492,473.380986 109.497132,473.834931 109.408122,474.262395 L89.9944526,669.417114 C89.9508945,669.978871 89.4887995,670.415793 88.9187562,670.415793 L88.8998179,670.415793 Z" id="Fill-31" fill="#8199B0"></path>
        <path d="M90.3548488,665.752643 L149.275742,593.938552 L108.933338,479.156679 L90.3548488,665.752643 Z M88.8984922,670.415036 C88.8056944,670.415036 88.5822223,670.415036 88.3644316,670.276961 C88.0027098,670.159692 87.7148473,669.65657 87.8095389,669.143991 L107.223208,473.959009 C107.21942,473.476692 107.647426,473.028422 108.213682,472.981136 C108.221257,472.981136 108.228833,472.979244 108.238302,472.979244 C108.812133,472.979244 109.213625,473.268634 109.367026,473.696099 L151.595686,593.798585 C151.699847,594.192004 151.63735,594.545703 151.440392,594.821853 L89.745035,669.99892 C89.5992099,670.227784 89.2507449,670.415036 88.8984922,670.415036 L88.8984922,670.415036 Z" id="Fill-33" fill="#8199B0"></path>
        <path d="M111.510654,470.8266 L201.388121,416.084621 L229.252067,270.655789 L111.510654,470.8266 Z M108.323335,475.175014 C108.052517,475.175014 107.802531,475.089899 107.597997,474.929127 C107.173779,474.509228 107.105601,473.949363 107.36695,473.506766 L230.581537,263.988473 C230.825841,263.634774 231.174306,263.453196 231.54171,263.453196 C231.689429,263.453196 231.83336,263.481567 231.969716,263.538311 C232.433704,263.689626 232.736717,264.207879 232.642026,264.750722 L203.475123,416.969814 C203.363387,417.361341 203.162641,417.611011 202.899398,417.737737 L108.897166,475.02559 C108.692632,475.175014 108.454009,475.175014 108.323335,475.175014 L108.323335,475.175014 Z" id="Fill-35" fill="#8199B0"></path>
        <path d="M340.549528,1111.22585 L338.704936,990.599435 L275.97176,1055.60814 L340.549528,1111.22585 Z M341.689615,1114.78743 C341.403647,1114.78743 341.129041,1114.67583 340.941552,1114.48669 L273.630984,1056.51792 C273.384786,1056.31932 273.240854,1056.02425 273.240854,1055.7046 C273.19919,1055.47952 273.316608,1055.14663 273.557124,1054.90452 L338.971967,987.109734 C339.233315,986.873304 339.509815,986.765492 339.786314,986.765492 L339.926458,986.765492 L340.204851,986.856281 C340.613919,987.018945 340.879055,987.416146 340.879055,987.88144 L342.805082,1113.66202 C342.805082,1114.10083 342.553202,1114.49425 342.161179,1114.67394 C342.077851,1114.73257 341.888468,1114.78743 341.689615,1114.78743 L341.689615,1114.78743 Z" id="Fill-37" fill="#8199B0"></path>
        <path d="M342.77819,1112.14206 L461.76385,1072.49754 L340.935491,990.004389 L342.77819,1112.14206 Z M341.689236,1114.78629 C341.496066,1114.78629 341.302895,1114.72766 341.098361,1114.61417 C340.742321,1114.35883 340.571876,1114.03728 340.571876,1113.68926 L338.679938,987.891654 C338.679938,987.464189 338.892047,987.099142 339.248087,986.900541 C339.458303,986.805969 339.621172,986.766249 339.785936,986.766249 C340.026452,986.766249 340.249924,986.841906 340.439307,986.981872 L464.873522,1071.92821 C465.248501,1072.20625 465.41137,1072.62805 465.324254,1073.04794 C465.286377,1073.40164 464.996621,1073.75156 464.595129,1073.88774 L341.937328,1114.75225 L341.689236,1114.78629 Z" id="Fill-39" fill="#8199B0"></path>
        <path d="M90.7061546,846.474561 L87.8369995,673.099743 L57.5868251,721.753184 L90.7061546,846.474561 Z M91.9693403,856.663733 C91.4693688,856.663733 91.0262121,856.325166 90.8898563,855.846632 L55.3218023,721.868562 C55.2327922,721.564041 55.2725627,721.242496 55.4411137,720.987152 L87.9487356,668.722957 C88.1456941,668.393846 88.4960529,668.193354 88.8805008,668.193354 L88.9846615,668.193354 L89.2308596,668.250097 C89.643715,668.329538 89.9997553,668.777808 89.9997553,669.299845 L93.0867011,855.532654 C93.0867011,856.084954 92.6833149,856.559704 92.1473605,856.652385 L92.0924394,856.663733 L91.9693403,856.663733 Z" id="Fill-41" fill="#8199B0"></path>
        <path d="M495.853958,1177.87499 L463.509206,1074.26395 L344.82277,1113.79688 L495.853958,1177.87499 Z M497.541362,1180.94669 L497.333041,1180.90508 L341.258579,1114.70099 C340.847618,1114.54022 340.573012,1114.12599 340.573012,1113.65124 C340.61657,1113.12542 340.929052,1112.74146 341.364634,1112.61284 L463.990239,1071.76158 L464.257269,1071.73699 C464.422033,1071.73699 464.581114,1071.77482 464.730727,1071.85048 C464.990182,1071.95829 465.217442,1072.21174 465.312134,1072.53328 L498.683343,1179.5092 C498.819699,1179.83452 498.740158,1180.26766 498.452295,1180.60623 L498.39548,1180.67243 L498.321621,1180.72161 C498.107618,1180.87103 497.874677,1180.94669 497.632266,1180.94669 L497.541362,1180.94669 Z" id="Fill-43" fill="#8199B0"></path>
        <polygon id="Fill-45" fill="#8199B0" points="55.1348811 507.846378 107.450089 343.790672 109.595801 344.431869 57.2275652 508.549993"></polygon>
        <path d="M569.708851,39.058937 L704.023186,8.68245382 L477.662947,14.6991159 L569.708851,39.058937 Z M569.610372,41.3097474 L569.422882,41.290833 L469.629312,14.8693453 C469.125553,14.7464018 468.765725,14.2470624 468.801708,13.7136771 C468.894506,13.0989599 469.356601,12.6941924 469.903918,12.6941924 L715.244139,6.16305933 C715.884254,6.20088807 716.299003,6.56026116 716.388013,7.10499511 C716.439147,7.72160367 716.075531,8.21905168 715.533895,8.34388654 L569.875508,41.3097474 L569.610372,41.3097474 Z" id="Fill-47" fill="#8199B0"></path>
        <path d="M579.890848,1229.78625 L815.269514,1217.65268 L680.118105,1195.40748 L579.890848,1229.78625 Z M572.061747,1232.41913 C571.520111,1232.41913 571.050441,1232.01814 570.969006,1231.48854 C570.849695,1230.99109 571.162177,1230.43879 571.709495,1230.25343 L679.756383,1193.18883 L679.993112,1193.16424 C680.063184,1193.16424 680.13515,1193.1718 680.214691,1193.18504 L825.784067,1217.13442 C826.354111,1217.25926 826.725302,1217.71888 826.725302,1218.25983 C826.676062,1218.88779 826.196923,1219.34173 825.624986,1219.34173 L572.116668,1232.41913 L572.061747,1232.41913 Z" id="Fill-49" fill="#8199B0"></path>
        <path d="M679.047901,1192.45798 L691.075626,1052.0093 L467.851573,1073.61519 L679.047901,1192.45798 Z M680.025118,1195.39349 C679.784601,1195.39349 679.604687,1195.30081 679.506208,1195.25541 L463.687037,1073.80622 C463.285544,1073.60951 463.058284,1073.12909 463.152976,1072.63353 C463.228729,1072.17391 463.634009,1071.79752 464.116936,1071.74834 C464.116936,1071.74834 692.202456,1049.66959 692.217607,1049.66959 C692.581222,1049.66959 692.814164,1049.76038 693.031954,1049.94196 C693.33118,1050.27296 693.429659,1050.58694 693.387995,1050.90092 L681.12354,1194.36644 C681.125434,1194.68987 680.903856,1195.05681 680.561072,1195.25163 C680.379265,1195.34431 680.203138,1195.39349 680.025118,1195.39349 L680.025118,1195.39349 Z" id="Fill-51" fill="#8199B0"></path>
        <path d="M572.232382,1230.0762 L674.60535,1194.95978 L501.658742,1181.27712 L572.232382,1230.0762 Z M572.061937,1232.4178 C571.830889,1232.4178 571.597948,1232.33836 571.410459,1232.19083 L497.009385,1180.76076 C496.581379,1180.45624 496.414722,1179.9342 496.590848,1179.46134 C496.746142,1179.02631 497.160891,1178.72746 497.626774,1178.72746 L680.114507,1193.16102 C680.612585,1193.20074 681.023546,1193.5847 681.116344,1194.10296 C681.201566,1194.6231 680.898553,1195.13001 680.3929,1195.31348 L572.313816,1232.38565 L572.061937,1232.4178 Z" id="Fill-53" fill="#8199B0"></path>
        <path d="M675.084679,1192.76269 L466.121178,1075.18527 L498.481081,1178.78686 L675.084679,1192.76269 Z M497.541741,1180.94309 C497.08154,1180.89959 496.698986,1180.57994 496.575887,1180.15247 L463.170589,1073.18034 C463.066428,1072.69614 463.208465,1072.26489 463.522841,1071.99063 C463.755783,1071.81662 463.988724,1071.74096 464.233028,1071.74096 C464.414836,1071.74096 464.598538,1071.78446 464.765195,1071.86769 L680.576791,1193.3112 C681.023735,1193.58168 681.230163,1194.08669 681.10517,1194.57657 C680.90253,1195.09672 680.480206,1195.39368 680.023792,1195.39368 L497.541741,1180.94309 Z" id="Fill-55" fill="#8199B0"></path>
        <path d="M1279.20299,554.647346 L1259.15299,475.636335 L1245.07425,539.604745 L1279.20299,554.647346 Z M1280.84116,557.686886 C1280.69533,557.686886 1280.5817,557.656623 1280.50405,557.635817 L1243.34518,541.259753 C1242.8471,541.036563 1242.58007,540.505069 1242.70507,539.994381 L1258.00344,470.572958 C1258.09434,470.079293 1258.54697,469.702897 1259.07156,469.702897 C1259.57911,469.702897 1260.02226,470.043355 1260.15104,470.527563 L1281.90738,556.304245 C1282.03048,556.729819 1281.87708,557.187546 1281.51536,557.454239 C1281.33734,557.601771 1281.1025,557.686886 1280.84116,557.686886 L1280.84116,557.686886 Z" id="Fill-57" fill="#8199B0"></path>
        <path d="M1005.51476,1084.25263 L1121.315,966.537137 L942.111167,1007.75156 L1005.51476,1084.25263 Z M1005.42196,1087.02169 C1005.00721,1086.97063 1004.72124,1086.80229 1004.55459,1086.54883 L939.2458,1007.78749 C939.001495,1007.44893 938.94468,1007.0782 939.054523,1006.72829 C939.19656,1006.35568 939.482529,1006.10411 939.827206,1006.01143 L1124.60079,963.495706 L1124.77503,963.482466 C1125.16326,963.482466 1125.5212,963.694307 1125.73141,964.044223 C1125.96625,964.496277 1125.89807,965.00129 1125.59127,965.351206 L1006.24578,1086.68124 C1006.03178,1086.89875 1005.73634,1087.02169 1005.4409,1087.02169 L1005.42196,1087.02169 Z" id="Fill-59" fill="#8199B0"></path>
        <path d="M944.540385,1004.92499 L1123.92792,963.650048 L1175.74505,818.039638 L944.540385,1004.92499 Z M940.106925,1008.18772 C939.659981,1008.18772 939.267958,1007.93238 939.097513,1007.53896 C938.889191,1007.08312 939.023653,1006.51758 939.427039,1006.21306 L1177.40972,813.851996 C1177.58206,813.695006 1177.84152,813.596652 1178.11612,813.596652 C1178.33581,813.596652 1178.54792,813.659069 1178.73162,813.780121 C1179.1672,814.080859 1179.33575,814.599113 1179.16909,815.077647 L1125.8066,964.974054 C1125.74221,965.288032 1125.42783,965.588771 1125.01308,965.67956 L940.288733,1008.1707 L940.106925,1008.18772 Z" id="Fill-61" fill="#8199B0"></path>
        <path d="M1012.46872,1080.34776 L1149.1958,997.385534 L1124.67068,966.278956 L1012.46872,1080.34776 Z M1005.44071,1087.02075 C1005.12444,1087.02075 1004.79681,1086.86187 1004.5847,1086.6122 C1004.22487,1086.15825 1004.25517,1085.52651 1004.64909,1085.12364 L1123.97564,963.818196 C1124.18775,963.610138 1124.48319,963.496652 1124.79946,963.496652 C1125.11194,963.496652 1125.42063,963.649858 1125.62706,963.899528 L1151.71649,996.99779 C1151.91155,997.226654 1152.00056,997.536849 1151.95322,997.850828 C1151.87557,998.208309 1151.69944,998.465545 1151.45135,998.626317 L1006.03159,1086.8543 C1005.80622,1086.97157 1005.62252,1087.02075 1005.44071,1087.02075 L1005.44071,1087.02075 Z" id="Fill-63" fill="#8199B0"></path>
        <path d="M859.121945,199.403454 L778.92764,70.1123656 L738.051176,128.816905 L859.121945,199.403454 Z M862.419106,203.708366 C862.284644,203.708366 862.030871,203.708366 861.786566,203.519222 L735.890314,130.123889 C735.66116,130.010402 735.454732,129.755058 735.373298,129.44108 C735.316483,129.072249 735.377085,128.790425 735.530486,128.557778 L778.086779,67.4794849 C778.226922,67.1692891 778.622733,67.0633687 778.78939,67.0160827 L778.874613,66.9952769 L778.995818,66.9858197 C779.387841,66.9858197 779.749563,67.1938778 779.94084,67.5305537 L863.348978,202.034444 C863.621689,202.427863 863.578131,202.972596 863.227772,203.364124 C863.0043,203.591096 862.718332,203.708366 862.419106,203.708366 L862.419106,203.708366 Z" id="Fill-65" fill="#8199B0"></path>
        <path d="M1127.78167,959.44368 L1242.25055,827.969873 L1178.83748,815.980052 L1127.78167,959.44368 Z M1124.76291,965.711903 C1124.52428,965.711903 1124.30839,965.640029 1124.13415,965.505737 C1123.74402,965.278764 1123.54138,964.730247 1123.71372,964.238474 L1177.06107,814.336393 C1177.24856,813.872991 1177.66141,813.596841 1178.12162,813.596841 L1178.30153,813.610081 L1244.57806,826.148419 C1244.98145,826.237316 1245.28446,826.509683 1245.41324,826.882296 C1245.54203,827.230321 1245.46248,827.659677 1245.20303,827.962307 L1125.61134,965.329833 C1125.40681,965.571937 1125.1038,965.711903 1124.76291,965.711903 L1124.76291,965.711903 Z" id="Fill-67" fill="#8199B0"></path>
        <path d="M1150.67961,995.667163 L1238.42463,835.738573 L1126.21888,964.634352 L1150.67961,995.667163 Z M1150.84627,998.784252 C1150.50349,998.784252 1150.19858,998.642394 1149.98458,998.388942 L1123.88947,965.286897 C1123.57131,964.831061 1123.59214,964.280653 1123.91598,963.881559 L1243.5304,826.504576 C1243.7141,826.27193 1244.02279,826.126289 1244.35421,826.126289 C1244.58147,826.126289 1244.80684,826.194381 1244.99054,826.32489 C1245.48104,826.674806 1245.61551,827.323569 1245.30681,827.802102 L1151.83106,998.213038 C1151.65115,998.559171 1151.28375,998.784252 1150.88225,998.784252 L1150.84627,998.784252 Z" id="Fill-69" fill="#8199B0"></path>
        <path d="M1243.82508,534.921168 L1257.89057,471.041656 L1218.77726,413.173131 L1243.82508,534.921168 Z M1243.7872,541.353946 C1243.27208,541.353946 1242.8365,541.013488 1242.70582,540.508474 L1215.45737,408.138125 C1215.36836,407.602849 1215.6335,407.101618 1216.10127,406.89356 C1216.28498,406.829251 1216.40808,406.808445 1216.53686,406.808445 C1216.91183,406.808445 1217.26409,406.990023 1217.4743,407.292653 L1260.00598,470.186726 C1260.16695,470.42883 1260.22755,470.708763 1260.184,471.003827 L1244.87426,540.483885 C1244.73601,541.013488 1244.30232,541.353946 1243.7872,541.353946 L1243.7872,541.353946 Z" id="Fill-71" fill="#8199B0"></path>
        <path d="M1254.722,462.382656 L1209.06171,340.993992 L1217.62183,407.502602 L1254.722,462.382656 Z M1259.09107,471.919283 C1258.7123,471.919283 1258.37898,471.747162 1258.16309,471.446424 L1215.62763,408.531544 C1215.52725,408.370772 1215.49317,408.232697 1215.46476,408.13056 L1205.63577,331.809173 C1205.58843,331.268222 1205.91416,330.770774 1206.41792,330.606219 L1206.52019,330.574064 L1206.73609,330.562716 C1207.21901,330.562716 1207.62808,330.853997 1207.78148,331.307942 L1260.12889,470.430722 C1260.31259,470.988696 1260.07396,471.550453 1259.57778,471.796339 C1259.4812,471.864431 1259.28992,471.919283 1259.09107,471.919283 L1259.09107,471.919283 Z" id="Fill-73" fill="#8199B0"></path>
        <path d="M1214.84055,403.31496 L1205.68577,332.276358 L1129.3189,273.917951 L1214.84055,403.31496 Z M1216.54311,409.032775 C1216.20222,409.032775 1215.86322,408.853089 1215.64164,408.554242 L1123.84194,269.658434 C1123.55029,269.242318 1123.6071,268.644624 1123.98776,268.253096 C1124.20176,268.045038 1124.47069,267.935335 1124.75476,267.935335 C1125.00854,267.935335 1125.25663,268.024232 1125.45927,268.185005 L1207.40915,330.778339 C1207.65914,330.988289 1207.80118,331.237959 1207.84284,331.525457 L1217.65668,407.763621 C1217.70592,408.304572 1217.4048,408.784997 1216.93513,408.959009 L1216.82529,408.998729 L1216.54311,409.032775 Z" id="Fill-75" fill="#8199B0"></path>
        <path d="M1165.42518,501.485853 L1124.28358,272.686247 L1067.15993,394.630993 L1165.42518,501.485853 Z M1167.18265,506.165269 C1166.89858,506.165269 1166.60693,506.036651 1166.39671,505.826701 L1065.02179,395.584278 C1064.73393,395.336499 1064.62788,394.854183 1064.80969,394.402129 L1123.75899,268.578045 C1123.96352,268.169495 1124.35744,267.931174 1124.78734,267.931174 C1125.42556,268.03142 1125.78539,268.390793 1125.87061,268.865544 L1168.28865,504.860177 C1168.38145,505.327362 1168.13714,505.815353 1167.69778,506.038542 C1167.51407,506.125548 1167.34931,506.165269 1167.18265,506.165269 L1167.18265,506.165269 Z" id="Fill-77" fill="#8199B0"></path>
        <path d="M1178.92611,806.497709 L1242.48879,540.871819 L1168.37368,506.814599 L1178.92611,806.497709 Z M1178.0701,815.814929 C1177.44893,815.767643 1177.00198,815.285327 1177.00198,814.717896 L1166.08215,505.087717 C1166.08215,504.694298 1166.25638,504.35573 1166.55371,504.140107 C1166.7734,504.002032 1166.97982,503.939614 1167.19383,503.939614 C1167.36048,503.939614 1167.52146,503.977443 1167.67107,504.051209 L1244.25763,539.231943 C1244.73487,539.449458 1244.99244,539.982844 1244.86934,540.495423 L1179.18936,814.958108 C1179.10603,815.438533 1178.65151,815.814929 1178.12124,815.814929 L1178.0701,815.814929 Z" id="Fill-79" fill="#8199B0"></path>
        <path d="M1167.69815,501.589314 L1215.275,407.995322 L1126.82548,274.162892 L1167.69815,501.589314 Z M1167.13001,506.164701 C1166.53724,506.064455 1166.1793,505.712648 1166.09219,505.25492 L1123.67414,269.237589 C1123.58134,268.704204 1123.87868,268.189733 1124.37675,268.008155 L1124.49038,267.968435 L1124.7612,267.941955 C1125.1305,267.941955 1125.47896,268.121641 1125.69107,268.426163 L1217.4851,407.30873 C1217.69342,407.647297 1217.71425,408.023693 1217.56085,408.388741 L1168.1754,505.555658 C1168.00117,505.920706 1167.60536,506.164701 1167.18303,506.164701 L1167.13001,506.164701 Z" id="Fill-81" fill="#8199B0"></path>
        <path d="M1242.26229,538.318946 L1216.10279,411.235165 L1168.69829,504.522744 L1242.26229,538.318946 Z M1243.70728,541.352812 L1243.41563,541.294177 L1243.31715,541.256348 L1166.7306,506.068049 C1166.4219,505.871339 1166.25714,505.682195 1166.15677,505.457114 C1166.03177,505.09585 1166.06586,504.778088 1166.22873,504.501939 L1215.56684,407.406896 C1215.71266,407.053197 1216.10279,406.792179 1216.54405,406.792179 L1216.72965,406.809202 C1217.17091,406.890533 1217.51748,407.204512 1217.63679,407.630085 L1244.87388,540.015565 C1244.96289,540.435465 1244.79813,540.868604 1244.45913,541.118273 C1244.27922,541.267697 1244.04249,541.352812 1243.78872,541.352812 L1243.70728,541.352812 Z" id="Fill-83" fill="#8199B0"></path>
        <path d="M862.996535,201.44545 L1011.40666,189.44428 L782.050379,70.9457329 L862.996535,201.44545 Z M862.418917,203.7095 C861.987123,203.7095 861.612144,203.486311 861.439806,203.126938 L778.048713,68.6949225 C777.787364,68.2542176 777.836604,67.7189408 778.168024,67.3482191 C778.404753,67.109898 778.679359,66.9945203 778.972903,66.9945203 C779.166073,66.9945203 779.361138,67.0474806 779.529689,67.1515096 L1015.86095,189.258919 C1016.29275,189.476435 1016.53326,189.95686 1016.44993,190.446742 C1016.31926,190.963104 1015.92724,191.303563 1015.45946,191.345175 L862.479519,203.7095 L862.418917,203.7095 Z" id="Fill-85" fill="#8199B0"></path>
        <path d="M1119.89197,264.17686 L1008.41157,109.148984 L1016.41111,189.625858 L1119.89197,264.17686 Z M1124.76291,270.167042 C1124.5186,270.167042 1124.28187,270.078144 1124.08113,269.911698 L1014.70856,191.135225 C1014.47751,190.982019 1014.2957,190.69452 1014.25214,190.37865 L1005.79808,105.246948 C1005.75073,104.73626 1006.04617,104.280424 1006.5291,104.106412 C1006.63894,104.061017 1006.77529,104.034537 1006.91733,104.034537 C1007.28474,104.034537 1007.61994,104.208549 1007.81501,104.501722 L1125.67005,268.400439 C1125.98443,268.852493 1125.9314,269.452078 1125.54127,269.834149 C1125.33674,270.047881 1125.05645,270.167042 1124.76291,270.167042 L1124.76291,270.167042 Z" id="Fill-87" fill="#8199B0"></path>
        <polygon id="Fill-89" fill="#8199B0" points="6.01646103 487.038676 6.79861354 484.941072 57.252185 504.271561 56.4151114 506.312422"></polygon>
        <polygon id="Fill-91" fill="#8199B0" points="40.5086292 867.468758 92.6950567 853.458882 93.2215419 855.599989 41.1146553 869.626888"></polygon>
        <polygon id="Fill-93" fill="#8199B0" points="203.005453 132.465299 204.922011 131.303956 232.452643 177.744417 230.52851 178.82821"></polygon>
        <polygon id="Fill-103" fill="#8199B0" points="1123.8533 267.913583 1253.38571 140.869522 1254.95759 142.467787 1125.34185 269.545894"></polygon>
        <polygon id="Fill-107" fill="#8199B0" points="201.878244 661.725017 203.345964 660.077575 244.466733 694.982159 243.031208 696.703367"></polygon>
        <polygon id="Fill-109" fill="#8199B0" points="922.078973 1125.44303 937.34515 1006.33165 939.53442 1006.66455 924.306119 1125.70783"></polygon>
        <polygon id="Fill-117" fill="#8199B0" points="1150.37452 999.666229 1150.46542 997.460813 1230.34914 1002.01918 1230.19006 1004.25107"></polygon>
        <path d="M571.318797,371.189087 C570.813144,371.189087 570.368094,370.825931 570.282871,370.313351 C570.184392,369.740246 570.572627,369.199295 571.144565,369.10094 L798.207415,331.001718 C798.775565,330.918495 799.322882,331.291108 799.417574,331.864214 C799.516053,332.437319 799.129711,332.97827 798.55588,333.076625 L571.494924,371.173955 C571.434321,371.185304 571.375612,371.189087 571.318797,371.189087" id="Fill-125" fill="#8199B0"></path>
        <path d="M799.660552,329.726133 C799.463594,329.726133 799.260954,329.66939 799.084828,329.554012 L567.300654,178.250376 C566.81394,177.932615 566.677584,177.280069 566.995747,176.793969 C567.312017,176.309761 567.965389,176.173578 568.452104,176.489448 L800.236277,327.794975 C800.724886,328.112737 800.859348,328.763391 800.541184,329.249491 C800.338544,329.557795 800.00523,329.726133 799.660552,329.726133" id="Fill-127" fill="#8199B0"></path>
        <path d="M737.04574,129.279929 C736.918854,129.279929 736.788179,129.257232 736.66508,129.209946 L594.540583,74.1085943 C594.074701,73.9270164 593.800095,73.4428084 593.885317,72.9510347 C593.97054,72.4573696 594.390971,72.0923222 594.889048,72.0771907 L779.910728,66.4804277 C780.469408,66.4652962 780.973168,66.9192411 780.994,67.4999124 C781.00915,68.0786922 780.554631,68.5629002 779.973224,68.5818145 L600.134962,74.0215882 L737.424507,127.250417 C737.968036,127.460367 738.236961,128.067518 738.026745,128.61036 C737.86577,129.024585 737.466171,129.279929 737.04574,129.279929" id="Fill-129" fill="#8199B0"></path>
        <polygon id="Fill-131" fill="#8199B0" points="1065.92136 395.269732 1015.39015 189.874771 1017.43359 189.375432 1067.96291 394.768501"></polygon>
        <path d="M344.392681,267.700229 L451.619541,159.710507 L384.941513,133.674873 L344.392681,267.700229 Z M340.96674,271.906786 C340.936438,271.774385 340.87773,271.532281 341.004616,271.248566 L383.165098,131.878007 C383.218126,131.630229 383.420766,131.372994 383.708628,131.217896 C384.055199,131.07793 384.341168,131.070364 384.604411,131.164936 L453.988724,158.280581 C454.322039,158.34489 454.517103,158.702371 454.602326,158.855578 L454.642096,158.933127 L454.679973,159.046613 C454.772771,159.428683 454.651565,159.827777 454.369384,160.092578 L342.815119,272.421257 C342.496956,272.776847 341.95532,272.861962 341.491331,272.612292 C341.218619,272.447737 341.036811,272.199959 340.96674,271.906786 L340.96674,271.906786 Z" id="Fill-135" fill="#8199B0"></path>
        <path d="M879.360378,1071.0956 L655.619308,1135.16804 L782.881014,1179.56386 L879.360378,1071.0956 Z M883.83929,1068.87506 C883.869591,1069.15688 883.7749,1069.4614 883.587411,1069.69026 L784.047614,1181.59148 C783.833611,1181.90357 783.365835,1182.05488 782.892377,1181.92059 L651.581659,1136.10809 C651.153653,1135.94353 650.877154,1135.58037 650.835489,1135.14724 C650.867684,1134.50604 651.19153,1134.10695 651.653625,1133.97644 L882.430279,1067.90475 C882.886693,1067.77046 883.398027,1067.96338 883.66127,1068.37761 C883.769218,1068.55162 883.824139,1068.7105 883.83929,1068.87506 L883.83929,1068.87506 Z" id="Fill-137" fill="#8199B0"></path>
        <path d="M864.620307,1131.49052 L841.523135,1175.84851 L917.75365,1171.25042 L864.620307,1131.49052 Z M839.73157,1178.06149 C839.37553,1178.06149 839.044109,1177.8818 838.850938,1177.58296 C838.642617,1177.2633 838.621785,1176.85854 838.797911,1176.52564 L863.32682,1129.42129 C863.468857,1129.14703 863.726418,1128.95032 864.027537,1128.88034 C864.332444,1128.81224 864.644927,1128.87845 864.891125,1129.0657 L921.310266,1171.28447 C921.664413,1171.54927 921.812132,1172.00511 921.685245,1172.42879 C921.560252,1172.85058 921.181486,1173.14754 920.744011,1173.17402 L839.79596,1178.05771 C839.775128,1178.06149 839.752402,1178.06149 839.73157,1178.06149 L839.73157,1178.06149 Z" id="Fill-139" fill="#8199B0"></path>
        <path d="M456.218522,184.268362 L510.707849,243.941318 L510.707849,137.636867 L456.218522,184.268362 Z M511.758925,247.705278 C511.469169,247.705278 511.1832,247.586117 510.98056,247.361036 L453.932667,184.884971 C453.74139,184.67313 453.64291,184.395088 453.659955,184.111373 C453.676999,183.827657 453.809568,183.562856 454.027358,183.377495 L511.075252,134.553824 C511.38584,134.289023 511.825209,134.226605 512.200188,134.398726 C512.571379,134.568955 512.811896,134.941569 512.811896,135.353902 L512.811896,246.653639 C512.811896,247.088669 512.544865,247.476414 512.139585,247.633403 C512.014592,247.680689 511.887706,247.705278 511.758925,247.705278 L511.758925,247.705278 Z" id="Fill-141" fill="#8199B0"></path>
        <path d="M1064.73961,395.668825 C1064.66007,395.668825 1064.57864,395.661259 1064.4991,395.640453 L800.190257,333.175736 C799.627789,333.043336 799.275536,332.477796 799.409998,331.912256 C799.542567,331.348608 800.103141,330.9968 800.675078,331.132984 L1061.16027,392.693594 L861.063691,204.283741 C860.641366,203.884648 860.622428,203.220753 861.020133,202.798963 C861.419731,202.375281 862.08636,202.356366 862.508684,202.755459 L1065.46306,393.853045 C1065.80963,394.180264 1065.89296,394.698518 1065.66759,395.116525 C1065.482,395.462658 1065.12027,395.668825 1064.73961,395.668825" id="Fill-143" fill="#8199B0"></path>
        <path d="M469.920962,8.59469113 C467.042338,8.59469113 464.697775,10.9230505 464.697775,13.7942523 C464.697775,16.6654541 467.042338,19.008945 469.920962,19.008945 C472.795799,19.008945 475.146044,16.6654541 475.146044,13.7942523 C475.146044,10.9230505 472.795799,8.59469113 469.920962,8.59469113" id="Fill-151" fill="#8199B0"></path>
        <path d="M572.062126,1225.87211 C569.06419,1225.87211 566.628723,1228.30828 566.628723,1231.30242 C566.628723,1234.29468 569.06419,1236.72707 572.062126,1236.72707 C575.058168,1236.72707 577.495529,1234.29468 577.495529,1231.30242 C577.495529,1228.30828 575.058168,1225.87211 572.062126,1225.87211" id="Fill-153" fill="#8199B0"></path>
        <path d="M652.543536,1129.90758 C649.547494,1129.90758 647.110133,1132.34186 647.110133,1135.336 C647.110133,1138.32826 649.547494,1140.76064 652.543536,1140.76064 C655.539578,1140.76064 657.978833,1138.32826 657.978833,1135.336 C657.978833,1132.34186 655.539578,1129.90758 652.543536,1129.90758" id="Fill-155" fill="#8199B0"></path>
        <path d="M840.015266,1171.58388 C837.019224,1171.58388 834.581863,1174.01816 834.581863,1177.01231 C834.581863,1180.00456 837.019224,1182.43695 840.015266,1182.43695 C843.013202,1182.43695 845.450563,1180.00456 845.450563,1177.01231 C845.450563,1174.01816 843.013202,1171.58388 840.015266,1171.58388" id="Fill-157" fill="#8199B0"></path>
        <path d="M497.631319,1175.36676 C495.157975,1175.36676 493.144832,1177.36223 493.144832,1179.84568 C493.144832,1182.31779 495.157975,1184.32839 497.631319,1184.32839 C500.121708,1184.32839 502.117807,1182.31779 502.117807,1179.84568 C502.117807,1177.36223 500.121708,1175.36676 497.631319,1175.36676" id="Fill-159" fill="#8199B0"></path>
        <path d="M464.239467,1068.15139 C461.625979,1068.15139 459.521932,1070.25089 459.521932,1072.84216 C459.521932,1075.45234 461.625979,1077.55373 464.239467,1077.55373 C466.849167,1077.55373 468.953214,1075.45234 468.953214,1072.84216 C468.953214,1070.25089 466.849167,1068.15139 464.239467,1068.15139" id="Fill-161" fill="#8199B0"></path>
        <path d="M722.570048,7.26293012 C722.570048,3.25497446 719.310764,-0.000189143731 715.278796,-0.000189143731 C711.265766,-0.000189143731 708.006482,3.25497446 708.006482,7.26293012 C708.006482,11.2727772 711.265766,14.5468552 715.278796,14.5468552 C719.310764,14.5468552 722.570048,11.2727772 722.570048,7.26293012" id="Fill-163" fill="#8199B0"></path>
        <path d="M569.69673,32.0880448 C565.210243,32.0880448 561.564617,35.7139301 561.564617,40.211768 C561.564617,44.692583 565.210243,48.3354913 569.69673,48.3354913 C574.183218,48.3354913 577.830738,44.692583 577.830738,40.211768 C577.830738,35.7139301 574.183218,32.0880448 569.69673,32.0880448" id="Fill-165" fill="#8199B0"></path>
        <path d="M453.82718,87.6923297 C451.022416,87.6923297 448.744136,89.9507058 448.744136,92.7519245 C448.744136,95.5512517 451.022416,97.8285422 453.82718,97.8285422 C456.631945,97.8285422 458.910225,95.5512517 458.910225,92.7519245 C458.910225,89.9507058 456.631945,87.6923297 453.82718,87.6923297" id="Fill-167" fill="#8199B0"></path>
        <path d="M825.606237,1209.27399 C820.646291,1209.27399 816.629474,1213.28573 816.629474,1218.24129 C816.629474,1223.17605 820.646291,1227.20481 825.606237,1227.20481 C830.566182,1227.20481 834.581105,1223.17605 834.581105,1218.24129 C834.581105,1213.28573 830.566182,1209.27399 825.606237,1209.27399" id="Fill-169" fill="#8199B0"></path>
        <path d="M1280.84172,548.289658 C1276.25297,548.289658 1272.53538,552.000658 1272.53538,556.587393 C1272.53538,561.158997 1276.25297,564.885129 1280.84172,564.885129 C1285.41911,564.885129 1289.13671,561.158997 1289.13671,556.587393 C1289.13671,552.000658 1285.41911,548.289658 1280.84172,548.289658" id="Fill-171" fill="#8199B0"></path>
        <path d="M1005.4409,1078.32524 C1001.25174,1078.32524 997.848529,1081.72037 997.848529,1085.90234 C997.848529,1090.08431 1001.25174,1093.48322 1005.4409,1093.48322 C1009.63195,1093.48322 1013.02948,1090.08431 1013.02948,1085.90234 C1013.02948,1081.72037 1009.63195,1078.32524 1005.4409,1078.32524" id="Fill-173" fill="#8199B0"></path>
        <path d="M680.02455,1185.67717 C675.272926,1185.67717 671.418978,1189.53192 671.418978,1194.27376 C671.418978,1199.01937 675.272926,1202.87034 680.02455,1202.87034 C684.77428,1202.87034 688.632015,1199.01937 688.632015,1194.27376 C688.632015,1189.53192 684.77428,1185.67717 680.02455,1185.67717" id="Fill-175" fill="#8199B0"></path>
        <path d="M692.294686,1043.18782 C688.086592,1043.18782 684.687164,1046.58295 684.687164,1050.78384 C684.687164,1054.9658 688.086592,1058.36472 692.294686,1058.36472 C696.485735,1058.36472 699.887057,1054.9658 699.887057,1050.78384 C699.887057,1046.58295 696.485735,1043.18782 692.294686,1043.18782" id="Fill-177" fill="#8199B0"></path>
        <path d="M882.099427,1061.67738 C877.891333,1061.67738 874.491905,1065.07062 874.491905,1069.2715 C874.491905,1073.45536 877.891333,1076.85427 882.099427,1076.85427 C886.290477,1076.85427 889.689905,1073.45536 889.689905,1069.2715 C889.689905,1065.07062 886.290477,1061.67738 882.099427,1061.67738" id="Fill-179" fill="#8199B0"></path>
        <path d="M736.453918,123.827294 C733.505222,123.827294 731.107631,126.225636 731.107631,129.166821 C731.107631,132.126921 733.505222,134.525263 736.453918,134.525263 C739.413977,134.525263 741.819143,132.126921 741.819143,129.166821 C741.819143,126.225636 739.413977,123.827294 736.453918,123.827294" id="Fill-181" fill="#8199B0"></path>
        <path d="M511.750024,130.003971 C508.803222,130.003971 506.403737,132.402314 506.403737,135.343499 C506.403737,138.303598 508.803222,140.701941 511.750024,140.701941 C514.710083,140.701941 517.115249,138.303598 517.115249,135.343499 C517.115249,132.402314 514.710083,130.003971 511.750024,130.003971" id="Fill-183" fill="#8199B0"></path>
        <path d="M1150.84608,991.749429 C1147.56597,991.749429 1144.92218,994.410682 1144.92218,997.68476 C1144.92218,1000.95884 1147.56597,1003.60118 1150.84608,1003.60118 C1154.12431,1003.60118 1156.78893,1000.95884 1156.78893,997.68476 C1156.78893,994.410682 1154.12431,991.749429 1150.84608,991.749429" id="Fill-185" fill="#8199B0"></path>
        <path d="M1124.76328,958.662327 C1121.48696,958.662327 1118.81855,961.319797 1118.81855,964.595766 C1118.81855,967.888759 1121.48696,970.550011 1124.76328,970.550011 C1128.05476,970.550011 1130.71939,967.888759 1130.71939,964.595766 C1130.71939,961.319797 1128.05476,958.662327 1124.76328,958.662327" id="Fill-187" fill="#8199B0"></path>
        <path d="M1244.36501,818.816073 C1239.72323,818.816073 1235.93367,822.595165 1235.93367,827.23486 C1235.93367,831.874556 1239.72323,835.653648 1244.36501,835.653648 C1249.01058,835.653648 1252.7812,831.874556 1252.7812,827.23486 C1252.7812,822.595165 1249.01058,818.816073 1244.36501,818.816073" id="Fill-189" fill="#8199B0"></path>
        <path d="M940.107304,998.770445 C935.512868,998.770445 931.780126,1002.48334 931.780126,1007.0852 C931.780126,1011.67383 935.512868,1015.40185 940.107304,1015.40185 C944.70174,1015.40185 948.436376,1011.67383 948.436376,1007.0852 C948.436376,1002.48334 944.70174,998.770445 940.107304,998.770445" id="Fill-191" fill="#8199B0"></path>
        <path d="M1259.09031,465.426546 C1256.11131,465.426546 1253.6891,467.843803 1253.6891,470.802011 C1253.6891,473.779133 1256.11131,476.194499 1259.09031,476.194499 C1262.05037,476.194499 1264.47068,473.779133 1264.47068,470.802011 C1264.47068,467.843803 1262.05037,465.426546 1259.09031,465.426546" id="Fill-195" fill="#8199B0"></path>
        <path d="M1214.82767,331.673935 C1214.82767,327.208252 1211.19909,323.603172 1206.72965,323.603172 C1202.27725,323.603172 1198.64677,327.208252 1198.64677,331.673935 C1198.64677,336.135836 1202.27725,339.742807 1206.72965,339.742807 C1211.19909,339.742807 1214.82767,336.135836 1214.82767,331.673935" id="Fill-197" fill="#8199B0"></path>
        <path d="M1065.82516,386.890475 C1061.42768,386.890475 1057.87106,390.444486 1057.87106,394.857209 C1057.87106,399.232104 1061.42768,402.803137 1065.82516,402.803137 C1070.23021,402.803137 1073.80576,399.232104 1073.80576,394.857209 C1073.80576,390.444486 1070.23021,386.890475 1065.82516,386.890475" id="Fill-199" fill="#8199B0"></path>
        <path d="M1178.12162,809.272069 C1175.10664,809.272069 1172.66927,811.708241 1172.66927,814.700494 C1172.66927,817.709771 1175.10664,820.142159 1178.12162,820.142159 C1181.11955,820.142159 1183.55502,817.709771 1183.55502,814.700494 C1183.55502,811.708241 1181.11955,809.272069 1178.12162,809.272069" id="Fill-201" fill="#8199B0"></path>
        <path d="M1173.95121,505.047051 C1173.95121,501.317136 1170.93244,498.290837 1167.18265,498.290837 C1163.44991,498.290837 1160.43872,501.317136 1160.43872,505.047051 C1160.43872,508.792097 1163.44991,511.805156 1167.18265,511.805156 C1170.93244,511.805156 1173.95121,508.792097 1173.95121,505.047051" id="Fill-203" fill="#8199B0"></path>
        <path d="M1243.78796,545.487683 C1246.6931,545.487683 1249.04524,543.1423 1249.04524,540.237053 C1249.04524,537.331805 1246.6931,534.984531 1243.78796,534.984531 C1240.87714,534.984531 1238.52879,537.331805 1238.52879,540.237053 C1238.52879,543.1423 1240.87714,545.487683 1243.78796,545.487683" id="Fill-205" fill="#8199B0"></path>
        <path d="M1216.54386,400.949718 C1212.70507,400.949718 1209.58593,404.064915 1209.58593,407.917773 C1209.58593,411.749825 1212.70507,414.866914 1216.54386,414.866914 C1220.40349,414.866914 1223.52263,411.749825 1223.52263,407.917773 C1223.52263,404.064915 1220.40349,400.949718 1216.54386,400.949718" id="Fill-207" fill="#8199B0"></path>
        <path d="M778.976311,63.077732 C776.205636,63.077732 773.965233,65.3361081 773.965233,68.1013894 C773.965233,70.8685622 776.205636,73.1269384 778.976311,73.1269384 C781.764032,73.1269384 784.006329,70.8685622 784.006329,68.1013894 C784.006329,65.3361081 781.764032,63.077732 778.976311,63.077732" id="Fill-209" fill="#8199B0"></path>
        <path d="M862.419485,195.869115 C858.682955,195.869115 855.671762,198.880283 855.671762,202.608306 C855.671762,206.33822 858.682955,209.349388 862.419485,209.349388 C866.135183,209.349388 869.150163,206.33822 869.150163,202.608306 C869.150163,198.880283 866.135183,195.869115 862.419485,195.869115" id="Fill-211" fill="#8199B0"></path>
        <path d="M1009.29504,190.231686 C1009.29504,193.59277 1012.01458,196.289959 1015.35909,196.289959 C1018.70928,196.289959 1021.40799,193.59277 1021.40799,190.231686 C1021.40799,186.906539 1018.70928,184.175303 1015.35909,184.175303 C1012.01458,184.175303 1009.29504,186.906539 1009.29504,190.231686" id="Fill-213" fill="#8199B0"></path>
        <path d="M1124.76328,262.782303 C1121.29378,262.782303 1118.48902,265.583522 1118.48902,269.050526 C1118.48902,272.517531 1121.29378,275.314967 1124.76328,275.314967 C1128.23278,275.314967 1131.05459,272.517531 1131.05459,269.050526 C1131.05459,265.583522 1128.23278,262.782303 1124.76328,262.782303" id="Fill-215" fill="#8199B0"></path>
        <path d="M1006.89442,114.426472 C1012.04943,114.426472 1016.2026,110.259636 1016.2026,105.147081 C1016.2026,100.00048 1012.04943,95.8336433 1006.89442,95.8336433 C1001.77539,95.8336433 997.603278,100.00048 997.603278,105.147081 C997.603278,110.259636 1001.77539,114.426472 1006.89442,114.426472" id="Fill-217" fill="#8199B0"></path>
        <path d="M274.344958,1048.38549 C270.309203,1048.38549 267.048025,1051.64255 267.048025,1055.68644 C267.048025,1059.71331 270.309203,1062.96658 274.344958,1062.96658 C278.375032,1062.96658 281.668406,1059.71331 281.668406,1055.68644 C281.668406,1051.64255 278.375032,1048.38549 274.344958,1048.38549" id="Fill-219" fill="#8199B0"></path>
        <path d="M339.779307,994.078734 C343.214718,994.078734 346.002438,991.311562 346.002438,987.882386 C346.002438,984.449427 343.214718,981.684146 339.779307,981.684146 C336.360941,981.684146 333.57322,984.449427 333.57322,987.882386 C333.57322,991.311562 336.360941,994.078734 339.779307,994.078734" id="Fill-221" fill="#8199B0"></path>
        <path d="M56.3823481,716.464158 C53.5434943,716.464158 51.2633209,718.75658 51.2633209,721.574822 C51.2633209,724.411978 53.5434943,726.687377 56.3823481,726.687377 C59.2230957,726.687377 61.5013753,724.411978 61.5013753,721.574822 C61.5013753,718.75658 59.2230957,716.464158 56.3823481,716.464158" id="Fill-223" fill="#8199B0"></path>
        <path d="M93.8955566,669.299088 C93.8955566,666.55083 91.651366,664.309477 88.8996285,664.309477 C86.1308465,664.309477 83.9055942,666.55083 83.9055942,669.299088 C83.9055942,672.06437 86.1308465,674.305723 88.8996285,674.305723 C91.651366,674.305723 93.8955566,672.06437 93.8955566,669.299088" id="Fill-225" fill="#8199B0"></path>
        <path d="M91.9693403,851.060918 C89.4770578,851.060918 87.4790653,853.075298 87.4790653,855.545516 C87.4790653,858.032756 89.4770578,860.024439 91.9693403,860.024439 C94.4388969,860.024439 96.4558277,858.032756 96.4558277,855.545516 C96.4558277,853.075298 94.4388969,851.060918 91.9693403,851.060918" id="Fill-227" fill="#8199B0"></path>
        <path d="M147.16696,856.384368 C142.803572,856.384368 139.279151,859.921356 139.279151,864.264096 C139.279151,868.603053 142.803572,872.140041 147.16696,872.140041 C151.530349,872.140041 155.05477,868.603053 155.05477,864.264096 C155.05477,859.921356 151.530349,856.384368 147.16696,856.384368" id="Fill-229" fill="#8199B0"></path>
        <path d="M130.128914,923.018759 C125.884837,923.018759 122.432381,926.466849 122.432381,930.701777 C122.432381,934.938597 125.884837,938.384795 130.128914,938.384795 C134.388141,938.384795 137.825446,934.938597 137.825446,930.701777 C137.825446,926.466849 134.388141,923.018759 130.128914,923.018759" id="Fill-231" fill="#8199B0"></path>
        <path d="M341.689805,1106.21108 C337.570721,1106.21108 334.22432,1109.55703 334.22432,1113.66902 C334.22432,1117.79992 337.570721,1121.13263 341.689805,1121.13263 C345.827827,1121.13263 349.157183,1117.79992 349.157183,1113.66902 C349.157183,1109.55703 345.827827,1106.21108 341.689805,1106.21108" id="Fill-233" fill="#8199B0"></path>
        <path d="M56.3823481,498.552612 C51.4053583,498.552612 47.3544522,502.596505 47.3544522,507.569093 C47.3544522,512.541682 51.4053583,516.585575 56.3823481,516.585575 C61.3593379,516.585575 65.410244,512.541682 65.410244,507.569093 C65.410244,502.596505 61.3593379,498.552612 56.3823481,498.552612" id="Fill-235" fill="#8199B0"></path>
        <path d="M108.323146,337.957857 C104.571465,337.957857 101.520502,341.003071 101.520502,344.7519 C101.520502,348.498837 104.571465,351.527028 108.323146,351.527028 C112.071039,351.527028 115.104957,348.498837 115.104957,344.7519 C115.104957,341.003071 112.071039,337.957857 108.323146,337.957857" id="Fill-237" fill="#8199B0"></path>
        <path d="M0.247092005,485.78087 C0.00278771062,489.522133 2.84732299,492.760274 6.58953451,493.006161 C10.3336399,493.250156 13.5569415,490.405435 13.8031396,486.666063 C14.0474439,482.930474 11.2199531,479.711248 7.47584777,479.467253 C3.73363624,479.221366 0.4913963,482.045282 0.247092005,485.78087" id="Fill-239" fill="#8199B0"></path>
        <path d="M35.7073869,871.997805 C37.7110609,875.165962 41.9191551,876.115464 45.0913232,874.114323 C48.2634914,872.113182 49.1971504,867.917974 47.1915826,864.751708 C45.1898025,861.583551 41.0063282,860.641615 37.83416,862.642756 C34.6619918,864.643896 33.7056068,868.831539 35.7073869,871.997805" id="Fill-241" fill="#8199B0"></path>
        <path d="M199.263052,127.901071 C196.74615,130.681484 196.96394,134.984504 199.744085,137.496333 C202.528018,140.010053 206.823228,139.781189 209.338237,137.002668 C211.853245,134.226038 211.641136,129.947607 208.857204,127.433886 C206.075165,124.922058 201.778061,125.124441 199.263052,127.901071" id="Fill-243" fill="#8199B0"></path>
        <path d="M1256.99497,136.199185 C1253.71486,134.383405 1249.56547,135.569337 1247.74739,138.843415 C1245.92742,142.123167 1247.12432,146.248392 1250.40633,148.064171 C1253.68455,149.879951 1257.81121,148.699694 1259.62929,145.423725 C1261.44737,142.147756 1260.2713,138.014965 1256.99497,136.199185" id="Fill-253" fill="#8199B0"></path>
        <path d="M249.491258,698.084494 C250.964659,694.640187 249.360583,690.639797 245.910022,689.166368 C242.461354,687.692938 238.474838,689.302551 236.999543,692.74875 C235.526142,696.193057 237.120749,700.168858 240.57131,701.642288 C244.019978,703.115718 248.017856,701.52691 249.491258,698.084494" id="Fill-257" fill="#8199B0"></path>
        <path d="M924.682991,1133.06609 C929.188417,1132.28682 932.216654,1127.99704 931.440183,1123.4992 C930.65803,1118.99947 926.366608,1115.99397 921.863076,1116.77514 C917.363331,1117.55252 914.348351,1121.81393 915.124822,1126.31555 C915.905081,1130.81528 920.183247,1133.84536 924.682991,1133.06609" id="Fill-259" fill="#8199B0"></path>
        <path d="M1238.88521,1006.63542 C1236.92509,1011.75365 1231.16595,1014.326 1226.04313,1012.36837 C1220.92221,1010.41262 1218.37312,1004.67022 1220.33323,999.550095 C1222.29145,994.43754 1228.01651,991.878425 1233.14122,993.837954 C1238.26024,995.797483 1240.84343,1001.52286 1238.88521,1006.63542" id="Fill-267" fill="#8199B0"></path>
        <path d="M574.762351,178.37975 C574.762351,174.82574 571.87047,171.954538 568.310067,171.954538 C564.770495,171.954538 561.86157,174.82574 561.86157,178.37975 C561.86157,181.933761 564.770495,184.804963 568.310067,184.804963 C571.87047,184.804963 574.762351,181.933761 574.762351,178.37975" id="Fill-273" fill="#8199B0"></path>
        <path d="M799.434808,325.247777 C795.876298,325.247777 793.001461,328.12087 793.001461,331.674881 C793.001461,335.225109 795.876298,338.098202 799.434808,338.098202 C802.978167,338.098202 805.870048,335.225109 805.870048,331.674881 C805.870048,328.12087 802.978167,325.247777 799.434808,325.247777" id="Fill-275" fill="#8199B0"></path>
        <path d="M572.062126,362.415276 C568.240374,362.415276 565.153428,365.513451 565.153428,369.313348 C565.153428,373.130269 568.240374,376.209529 572.062126,376.209529 C575.883879,376.209529 578.967037,373.130269 578.967037,369.313348 C578.967037,365.513451 575.883879,362.415276 572.062126,362.415276" id="Fill-277" fill="#8199B0"></path>
        <path d="M150.02248,275.176513 C153.423802,275.176513 156.160389,272.430146 156.160389,269.050148 C156.160389,265.67015 153.423802,262.921891 150.02248,262.921891 C146.659035,262.921891 143.905403,265.67015 143.905403,269.050148 C143.905403,272.430146 146.659035,275.176513 150.02248,275.176513" id="Fill-281" fill="#8199B0"></path>
        <path d="M231.534134,173.8978 C229.079728,173.8978 227.049541,175.91029 227.049541,178.380507 C227.049541,180.848833 229.079728,182.861322 231.534134,182.861322 C234.026417,182.861322 236.026303,180.848833 236.026303,178.380507 C236.026303,175.91029 234.026417,173.8978 231.534134,173.8978" id="Fill-283" fill="#8199B0"></path>
        <path d="M452.466841,155.067407 C450.012435,155.067407 447.980354,157.079896 447.980354,159.550114 C447.980354,162.018439 450.012435,164.030929 452.466841,164.030929 C454.959124,164.030929 456.95901,162.018439 456.95901,159.550114 C456.95901,157.079896 454.959124,155.067407 452.466841,155.067407" id="Fill-285" fill="#8199B0"></path>
        <path d="M202.369315,973.43729 C198.894134,973.43729 196.093156,976.2404 196.093156,979.705513 C196.093156,983.170626 198.894134,985.990759 202.369315,985.990759 C205.838815,985.990759 208.65873,983.170626 208.65873,979.705513 C208.65873,976.2404 205.838815,973.43729 202.369315,973.43729" id="Fill-287" fill="#8199B0"></path>
        <path d="M202.369315,656.309454 C199.700906,656.309454 197.528681,658.463801 197.528681,661.140184 C197.528681,663.801437 199.700906,665.972807 202.369315,665.972807 C205.047193,665.972807 207.206161,663.801437 207.206161,661.140184 C207.206161,658.463801 205.047193,656.309454 202.369315,656.309454" id="Fill-289" fill="#8199B0"></path>
        <path d="M415.243199,248.53108 C417.873732,248.53108 420.011868,246.395647 420.011868,243.770332 C420.011868,241.143125 417.873732,239.007693 415.243199,239.007693 C412.597516,239.007693 410.457486,241.143125 410.457486,243.770332 C410.457486,246.395647 412.597516,248.53108 415.243199,248.53108" id="Fill-291" fill="#8199B0"></path>
        <path d="M150.552374,584.236235 C145.052687,584.236235 140.598394,588.665981 140.598394,594.156824 C140.598394,599.632535 145.052687,604.081195 150.552374,604.081195 C156.033123,604.081195 160.468477,599.632535 160.468477,594.156824 C160.468477,588.665981 156.033123,584.236235 150.552374,584.236235" id="Fill-293" fill="#8199B0"></path>
        <path d="M253.185555,1078.13137 C250.219815,1078.13137 247.839268,1080.51269 247.839268,1083.45198 C247.839268,1086.39317 250.219815,1088.77449 253.185555,1088.77449 C256.126676,1088.77449 258.512904,1086.39317 258.512904,1083.45198 C258.512904,1080.51269 256.126676,1078.13137 253.185555,1078.13137" id="Fill-295" fill="#8199B0"></path>
        <path d="M108.323146,468.70157 C105.357405,468.70157 102.940876,471.116935 102.940876,474.077035 C102.940876,477.035243 105.357405,479.452499 108.323146,479.452499 C111.283205,479.452499 113.703522,477.035243 113.703522,474.077035 C113.703522,471.116935 111.283205,468.70157 108.323146,468.70157" id="Fill-297" fill="#8199B0"></path>
        <path d="M202.369315,407.952008 C197.496486,407.952008 193.547847,411.88998 193.547847,416.775563 C193.547847,421.642231 197.496486,425.580204 202.369315,425.580204 C207.257295,425.580204 211.200252,421.642231 211.200252,416.775563 C211.200252,411.88998 207.257295,407.952008 202.369315,407.952008" id="Fill-299" fill="#8199B0"></path>
        <path d="M305.841085,219.277543 C301.511785,219.277543 297.991152,222.795616 297.991152,227.119442 C297.991152,231.445159 301.511785,234.946209 305.841085,234.946209 C310.174172,234.946209 313.679654,231.445159 313.679654,227.119442 C313.679654,222.795616 310.174172,219.277543 305.841085,219.277543" id="Fill-303" fill="#8199B0"></path>
        <path d="M384.74588,124.626237 C380.41658,124.626237 376.894053,128.146202 376.894053,132.468136 C376.894053,136.795744 380.41658,140.296795 384.74588,140.296795 C389.077073,140.296795 392.584449,136.795744 392.584449,132.468136 C392.584449,128.146202 389.077073,124.626237 384.74588,124.626237" id="Fill-305" fill="#8199B0"></path>
        <path d="M511.76669,238.819873 C507.435497,238.819873 503.914863,242.337946 503.914863,246.661772 C503.914863,250.987489 507.435497,254.48854 511.76669,254.48854 C516.097883,254.48854 519.605259,250.987489 519.605259,246.661772 C519.605259,242.337946 516.097883,238.819873 511.76669,238.819873" id="Fill-307" fill="#8199B0"></path>
        <path d="M231.534134,260.085681 C229.079728,260.085681 227.049541,262.081147 227.049541,264.566496 C227.049541,267.01969 229.079728,269.049202 231.534134,269.049202 C234.026417,269.049202 236.026303,267.01969 236.026303,264.566496 C236.026303,262.081147 234.026417,260.085681 231.534134,260.085681" id="Fill-309" fill="#8199B0"></path>
        <path d="M871.781263,1134.06912 C871.781263,1137.85767 868.703787,1140.95395 864.88961,1140.95395 C861.058388,1140.95395 857.977124,1137.85767 857.977124,1134.06912 C857.977124,1130.24463 861.058388,1127.17483 864.88961,1127.17483 C868.703787,1127.17483 871.781263,1130.24463 871.781263,1134.06912" id="Fill-311" fill="#8199B0"></path>
    </g>
</svg>