<?xml version="1.0" encoding="utf-8"?>
<!-- Generator: Adobe Illustrator 19.2.1, SVG Export Plug-In . SVG Version: 6.00 Build 0)  -->
<svg version="1.1" id="Layer_1" xmlns="http://www.w3.org/2000/svg" xmlns:xlink="http://www.w3.org/1999/xlink" x="0px" y="0px"
	 viewBox="0 0 59 59" style="enable-background:new 0 0 59 59;" xml:space="preserve">
<style type="text/css">
	.st0{fill:#314456;}
</style>
<g>
	<path class="st0" d="M54.5,54.1h-50c-0.3,0-0.5,0.2-0.5,0.5s0.2,0.5,0.5,0.5h50c0.3,0,0.5-0.2,0.5-0.5S54.8,54.1,54.5,54.1z"/>
	<path class="st0" d="M4.5,49.9h3.4H51h3.4c0.3,0,0.5-0.2,0.5-0.5s-0.2-0.5-0.5-0.5h-2.9v-4.7c0-0.3-0.2-0.5-0.5-0.5h-2.9V22.3h4.7
		c0.3,0,0.5-0.2,0.5-0.5v-5.2l0,0v-0.1l0,0c0-0.1-0.1-0.1-0.1-0.1l0,0l-0.1-0.1L29.7,4.1c-0.1-0.1-0.3-0.1-0.5,0L6,16.2
		c0,0-0.1,0-0.1,0.1l0,0l-0.1,0.1l0,0v0.1l0,0v5.2c0,0.3,0.2,0.5,0.5,0.5H11v21.5H7.9c-0.3,0-0.5,0.2-0.5,0.5v4.7H4.5
		c-0.3,0-0.5,0.2-0.5,0.5S4.2,49.9,4.5,49.9z M47.1,43.8h-2.4V22.3h2.4V43.8z M37.8,43.8V22.3h5.9v21.5H37.8z M34.3,43.8V22.3h2.4
		v21.5H34.3z M25.7,43.8V22.3h7.6v21.5H25.7z M22.2,43.8V22.3h2.4v21.5H22.2z M15.3,43.8V22.3h5.9v21.5H15.3z M29.5,5.1l21.2,11H8.3
		L29.5,5.1z M6.7,17.1h45.6v4.2h-4.7l0,0H11.4l0,0H6.7V17.1z M11.9,22.3h2.4v21.5h-2.4V22.3z M8.4,44.8h2.9h36.2h2.9V49h-42V44.8z"
		/>
</g>
</svg>
