<svg id="Layer_1" xmlns="http://www.w3.org/2000/svg" viewBox="0 0 59 59"><style>.st0{fill:#5a758d}</style><path class="st0" d="M59 20.5c0-.1 0-.1-.1-.2l-.1-.1h-.1l-4.8-1.8c.9-.7 1.4-1.5 1.4-2.4 0-2.4-3.5-4.3-8.1-4.3-2.3 0-4.4.5-5.8 1.3l-5.1-2.2c.8-.7 1.3-1.5 1.3-2.4C37.6 5.9 34 4 29.5 4s-8.1 1.9-8.1 4.3c0 .9.5 1.7 1.3 2.4l-4.4 1.9c-1.4-.6-3.2-1-5.3-1-4.4 0-8 1.8-8 4.2 0 .8.3 1.4 1 2.1L.3 20H.2l-.1.1c-.1.2-.1.3-.1.4v21c0 .2.1.4.3.5l28 13h.4l30-13c.2-.1.3-.3.3-.5v-21zm-4.8-4.7c0 .8-.6 1.5-1.6 2-.1 0-.2.1-.3.2-1.3.7-3.1 1.1-5.2 1.1-3.8 0-7.1-1.5-7.1-3.3 0-.7.6-1.4 1.5-2 1.3-.8 3.3-1.3 5.5-1.3 4 .1 7.2 1.6 7.2 3.3zM29.5 5c3.8 0 7.1 1.5 7.1 3.3 0 .8-.6 1.5-1.5 2 0 0-.1 0-.1.1-1.3.7-3.3 1.2-5.4 1.2-3.8 0-7.1-1.5-7.1-3.3-.1-1.8 3.2-3.3 7-3.3zm-5.7 6.3c1.5.8 3.5 1.2 5.7 1.2 2.3 0 4.3-.5 5.7-1.2l5.1 2.2c-.8.7-1.2 1.5-1.2 2.3 0 2.4 3.5 4.3 8.1 4.3 2.2 0 4.2-.5 5.6-1.2l4.4 1.6L28.5 33 1.8 20.5l5.1-1.9c1.5.9 3.7 1.5 6.2 1.5 4.5 0 8.1-1.9 8.1-4.3 0-1-.6-1.9-1.7-2.7l4.3-1.8zm-10.7 1.3c1.9 0 3.7.4 5 1 1.3.6 2.1 1.4 2.1 2.3 0 1.8-3.2 3.3-7.1 3.3-2.4 0-4.5-.6-5.8-1.4l-.1-.1c-.7-.6-1.2-1.2-1.2-1.9 0-1.7 3.3-3.2 7.1-3.2zM1 21.3l27 12.5v19.9L1 41.2V21.3zm57 19.9L29 53.7V33.8l29-12.6v20z"/><path class="st0" d="M29.5 26.4c4.5 0 8.1-1.9 8.1-4.3s-3.5-4.3-8.1-4.3c-4.5 0-8.1 1.9-8.1 4.3 0 2.5 3.6 4.3 8.1 4.3zm0-7.5c3.8 0 7.1 1.5 7.1 3.3s-3.2 3.3-7.1 3.3c-3.8 0-7.1-1.5-7.1-3.3 0-1.8 3.3-3.3 7.1-3.3z"/></svg>