<svg id="Layer_1" xmlns="http://www.w3.org/2000/svg" viewBox="0 0 58.6 46.9"><style>.st0{fill-rule:evenodd;clip-rule:evenodd;fill:#3692cf}</style><path class="st0" d="M55.7 2.8c.2.2.3.4.4.7l-.4-.7zm-52.8 0l-.5.6c.1-.2.3-.4.5-.6zM4 0C1.8 0 0 1.8 0 4v12.4h2.3V4v-.1l26.3 16.5c.4.2.9.2 1.2 0l3.3-2.1 3.3-2.1L43 12l-1.3-2-6.6 4.2-3.1 2.2-2.7 1.7-25-15.8h50.1l-2.5 1.6-6.6 4.2 1.2 2L49.8 8l3.3-2.1 3.2-2v39.3l-7.9-6.4c-.2-.2-.5-.3-.7-.3H4c-.9 0-1.6-.7-1.6-1.6V18.7H0v16.2c0 2.2 1.8 4 4 4h43.2l9.5 7.7c.8.6 1.9.1 1.9-.9V4c0-2.2-1.8-4-4-4H4z"/></svg>