<svg id="Layer_1" xmlns="http://www.w3.org/2000/svg" xmlns:xlink="http://www.w3.org/1999/xlink" viewBox="0 0 108.8 108.9"><style>.st0{clip-path:url(#SVGID_2_)}.st1{clip-path:url(#SVGID_4_);fill:#8299b0}.st2{clip-path:url(#SVGID_6_)}.st3{clip-path:url(#SVGID_8_);fill:#8299b0}.st4{clip-path:url(#SVGID_10_)}.st5{clip-path:url(#SVGID_12_);fill:#8299b0}.st6{clip-path:url(#SVGID_14_)}.st7{clip-path:url(#SVGID_16_);fill:#8299b0}.st8{clip-path:url(#SVGID_18_)}.st9{clip-path:url(#SVGID_20_);fill:#8299b0}.st10{clip-path:url(#SVGID_22_)}.st11{clip-path:url(#SVGID_24_);fill:#8299b0}.st12{clip-path:url(#SVGID_26_)}.st13{clip-path:url(#SVGID_28_);fill:#8299b0}.st14{clip-path:url(#SVGID_30_)}.st15{clip-path:url(#SVGID_32_);fill:#8299b0}.st16{clip-path:url(#SVGID_34_)}.st17{clip-path:url(#SVGID_36_);fill:#8299b0}.st18{clip-path:url(#SVGID_38_)}.st19{clip-path:url(#SVGID_40_);fill:#8299b0}.st20{clip-path:url(#SVGID_42_)}.st21{clip-path:url(#SVGID_44_);fill:#8299b0}.st22{clip-path:url(#SVGID_46_)}.st23{clip-path:url(#SVGID_48_);fill:#8299b0}.st24{clip-path:url(#SVGID_50_)}.st25{clip-path:url(#SVGID_52_);fill:#8299b0}.st26{clip-path:url(#SVGID_54_)}.st27{clip-path:url(#SVGID_56_);fill:#8299b0}.st28{clip-path:url(#SVGID_58_)}.st29{clip-path:url(#SVGID_60_);fill:#8299b0}.st30{clip-path:url(#SVGID_62_)}.st31{clip-path:url(#SVGID_64_);fill:#8299b0}.st32{clip-path:url(#SVGID_66_)}.st33{clip-path:url(#SVGID_68_);fill:#8299b0}.st34{clip-path:url(#SVGID_70_)}.st35{clip-path:url(#SVGID_72_);fill:#8299b0}.st36{clip-path:url(#SVGID_74_)}.st37{clip-path:url(#SVGID_76_);fill:#8299b0}.st38{clip-path:url(#SVGID_78_)}.st39{clip-path:url(#SVGID_80_);fill:#8299b0}.st40{clip-path:url(#SVGID_82_)}.st41{clip-path:url(#SVGID_84_);fill:#8299b0}.st42{clip-path:url(#SVGID_86_)}.st43{clip-path:url(#SVGID_88_);fill:#8299b0}.st44{clip-path:url(#SVGID_90_)}.st45{clip-path:url(#SVGID_92_);fill:#8299b0}.st46{clip-path:url(#SVGID_94_)}.st47{clip-path:url(#SVGID_96_);fill:#8299b0}.st48{clip-path:url(#SVGID_98_)}.st49{clip-path:url(#SVGID_100_);fill:#8299b0}.st50{clip-path:url(#SVGID_102_)}.st51{clip-path:url(#SVGID_104_);fill:#8299b0}.st52{clip-path:url(#SVGID_106_)}.st53{clip-path:url(#SVGID_108_);fill:#8299b0}.st54{clip-path:url(#SVGID_110_)}.st55{clip-path:url(#SVGID_112_);fill:#8299b0}.st56{clip-path:url(#SVGID_114_)}.st57{clip-path:url(#SVGID_116_);fill:#8299b0}.st58{clip-path:url(#SVGID_118_)}.st59{clip-path:url(#SVGID_120_);fill:#8299b0}.st60{clip-path:url(#SVGID_122_)}.st61{clip-path:url(#SVGID_124_);fill:#8299b0}.st62{clip-path:url(#SVGID_126_)}.st63{clip-path:url(#SVGID_128_);fill:#8299b0}.st64{clip-path:url(#SVGID_130_)}.st65{clip-path:url(#SVGID_132_);fill:#8299b0}.st66{clip-path:url(#SVGID_134_)}.st67{clip-path:url(#SVGID_136_);fill:#8299b0}.st68{clip-path:url(#SVGID_138_)}.st69{clip-path:url(#SVGID_140_);fill:#8299b0}.st70{clip-path:url(#SVGID_142_)}.st71{clip-path:url(#SVGID_144_);fill:#8299b0}.st72{clip-path:url(#SVGID_146_)}.st73{clip-path:url(#SVGID_148_);fill:#8299b0}.st74{clip-path:url(#SVGID_150_)}.st75{clip-path:url(#SVGID_152_);fill:#8299b0}.st76{clip-path:url(#SVGID_154_)}.st77{clip-path:url(#SVGID_156_);fill:#8299b0}.st78{clip-path:url(#SVGID_158_)}.st79{clip-path:url(#SVGID_160_);fill:#8299b0}.st80{clip-path:url(#SVGID_162_)}.st81{clip-path:url(#SVGID_164_);fill:#8299b0}.st82{clip-path:url(#SVGID_166_)}.st83{clip-path:url(#SVGID_168_);fill:#8299b0}.st84{clip-path:url(#SVGID_170_)}.st85{clip-path:url(#SVGID_172_);fill:#8299b0}.st86{clip-path:url(#SVGID_174_)}.st87{clip-path:url(#SVGID_176_);fill:#8299b0}.st88{clip-path:url(#SVGID_178_)}.st89{clip-path:url(#SVGID_180_);fill:#8299b0}.st90{clip-path:url(#SVGID_182_)}.st91{clip-path:url(#SVGID_184_);fill:#8299b0}.st92{clip-path:url(#SVGID_186_)}.st93{clip-path:url(#SVGID_188_);fill:#8299b0}.st94{clip-path:url(#SVGID_190_)}.st95{clip-path:url(#SVGID_192_);fill:#8299b0}.st96{clip-path:url(#SVGID_194_)}.st97{clip-path:url(#SVGID_196_);fill:#8299b0}.st98{clip-path:url(#SVGID_198_)}.st99{clip-path:url(#SVGID_200_);fill:#8299b0}.st100{clip-path:url(#SVGID_202_)}.st101{clip-path:url(#SVGID_204_);fill:#8299b0}.st102{clip-path:url(#SVGID_206_)}.st103{clip-path:url(#SVGID_208_);fill:#8299b0}.st104{clip-path:url(#SVGID_210_)}.st105{clip-path:url(#SVGID_212_);fill:#8299b0}.st106{clip-path:url(#SVGID_214_)}.st107{clip-path:url(#SVGID_216_);fill:#8299b0}.st108{clip-path:url(#SVGID_218_)}.st109{clip-path:url(#SVGID_220_);fill:#8299b0}.st110{clip-path:url(#SVGID_222_)}.st111{clip-path:url(#SVGID_224_);fill:#8299b0}.st112{clip-path:url(#SVGID_226_)}.st113{clip-path:url(#SVGID_228_);fill:#8299b0}.st114{clip-path:url(#SVGID_230_)}.st115{clip-path:url(#SVGID_232_);fill:#8299b0}.st116{clip-path:url(#SVGID_234_)}.st117{clip-path:url(#SVGID_236_);fill:#8299b0}.st118{clip-path:url(#SVGID_238_)}.st119{clip-path:url(#SVGID_240_);fill:#8299b0}.st120{clip-path:url(#SVGID_242_)}.st121{clip-path:url(#SVGID_244_);fill:#8299b0}</style><defs><path id="SVGID_1_" d="M22.4 90.1c.2-.5.1-1.1.1-1.5-.1-.4-.1-1-.4-1.6-.1-.2-1-1-1.4-1.2-.4-.2-.5-.1-.7 0-.3 0-.4-.4-1.1-.4-.8 0-1.1.1-1.3.2-.2.1-.5.3-.9.5s-.8 1-.9 1.2c-.1.2-.5.6-.6.9-.1.4-.1 1.6 0 1.9-.4.2-.7 1.9.6 2.5.3.9 1.3 2.9 3.1 2.9 1.7 0 2.8-2 3.1-2.9 1.1-.6.8-2.3.4-2.5z"/></defs><clipPath id="SVGID_2_"><use xlink:href="#SVGID_1_" overflow="visible"/></clipPath><g class="st0"><defs><path id="SVGID_3_" d="M-773-603H877v2197H-773z"/></defs><clipPath id="SVGID_4_"><use xlink:href="#SVGID_3_" overflow="visible"/></clipPath><path class="st1" d="M9.7 80.4h18v20.1h-18z"/></g><defs><path id="SVGID_5_" d="M23.7 96.4c-1.4-.4-1.9-.6-2.1-.7-.2-.1-.4-.3-.6-.3 0 0-1 3.9-1.2 4.9 0-.1-.4-2.7-.5-3.1.1-.1.4-.7.5-1.1-.1 0-.5.1-.9.1-.5 0-.8 0-.9-.1.1.4.4 1 .5 1.1-.1.4-.4 3-.5 3.1-.2-.9-1.2-4.8-1.2-4.9-.2.1-.5.2-.6.3-.2.1-.7.3-2.1.7-1.4.4-3.7.5-3.5 5.8h16.9c-.2-5.3-2.4-5.4-3.8-5.8z"/></defs><clipPath id="SVGID_6_"><use xlink:href="#SVGID_5_" overflow="visible"/></clipPath><g class="st2"><defs><path id="SVGID_7_" d="M-773-603H877v2197H-773z"/></defs><clipPath id="SVGID_8_"><use xlink:href="#SVGID_7_" overflow="visible"/></clipPath><path class="st3" d="M5.3 90.3h26.9v16.9H5.3z"/></g><defs><path id="SVGID_9_" d="M91.3 60.2c.1-.2.1-.4 0-.6 0-.1-.1-.4-.2-.6 0-.1-.4-.4-.5-.4-.2-.1-.2 0-.3 0-.1 0-.2-.1-.4-.1-.3 0-.4 0-.5.1-.1 0-.2.1-.3.2-.2.1-.3.4-.3.5-.1.1-.2.2-.2.3v.7c-.2.1-.3.7.2 1 .1.3.5 1.1 1.2 1.1s1.1-.8 1.2-1.1c.4-.4.2-1.1.1-1.1z"/></defs><clipPath id="SVGID_10_"><use xlink:href="#SVGID_9_" overflow="visible"/></clipPath><g class="st4"><defs><path id="SVGID_11_" d="M-773-603H877v2197H-773z"/></defs><clipPath id="SVGID_12_"><use xlink:href="#SVGID_11_" overflow="visible"/></clipPath><path class="st5" d="M83.4 53.4h13.1v13.8H83.4z"/></g><defs><path id="SVGID_13_" d="M91.8 62.5c-.5-.2-.7-.2-.8-.3-.1-.1-.2-.1-.2-.1s-.4 1.5-.5 1.9c0 0-.1-1-.2-1.2 0 0 .1-.3.2-.4h-.8c0 .1.2.4.2.4 0 .2-.2 1.1-.2 1.2-.1-.4-.5-1.8-.5-1.9-.1 0-.2.1-.2.1-.1.1-.3.1-.8.3-.5.2-1.4.2-1.3 2.2h6.4c0-2-.8-2-1.3-2.2z"/></defs><clipPath id="SVGID_14_"><use xlink:href="#SVGID_13_" overflow="visible"/></clipPath><g class="st6"><defs><path id="SVGID_15_" d="M-773-603H877v2197H-773z"/></defs><clipPath id="SVGID_16_"><use xlink:href="#SVGID_15_" overflow="visible"/></clipPath><path class="st7" d="M81.7 57.1h16.4v12.6H81.7z"/></g><defs><path id="SVGID_17_" d="M69 97.5c.2-.3.1-.7 0-.9-.1-.2-.1-.7-.3-1-.1-.2-.6-.6-.9-.7-.3-.1-.3 0-.5 0s-.3-.2-.7-.2c-.5 0-.7.1-.8.1-.2.1-.3.2-.6.3-.3.1-.5.6-.6.8-.1.2-.3.4-.4.6-.1.2-.1 1 0 1.2-.3.1-.5 1.2.4 1.6.2.6.9 1.8 2 1.8s1.8-1.3 2-1.8c.9-.6.7-1.7.4-1.8z"/></defs><clipPath id="SVGID_18_"><use xlink:href="#SVGID_17_" overflow="visible"/></clipPath><g class="st8"><defs><path id="SVGID_19_" d="M-773-603H877v2197H-773z"/></defs><clipPath id="SVGID_20_"><use xlink:href="#SVGID_19_" overflow="visible"/></clipPath><path class="st9" d="M59.1 89.5h15.1v16.4H59.1z"/></g><defs><path id="SVGID_21_" d="M69.8 101.5c-.9-.3-1.2-.4-1.3-.5-.1-.1-.3-.2-.4-.2 0 0-.7 2.5-.8 3.1 0-.1-.2-1.7-.3-2 0-.1.2-.5.3-.7h-1.2c.1.2.3.6.3.7-.1.3-.3 1.9-.3 2-.1-.6-.8-3.1-.8-3.1-.1 0-.3.1-.4.2-.1.1-.5.2-1.3.5-.9.3-2.3.3-2.2 3.7H72c.1-3.4-1.3-3.5-2.2-3.7z"/></defs><clipPath id="SVGID_22_"><use xlink:href="#SVGID_21_" overflow="visible"/></clipPath><g class="st10"><defs><path id="SVGID_23_" d="M-773-603H877v2197H-773z"/></defs><clipPath id="SVGID_24_"><use xlink:href="#SVGID_23_" overflow="visible"/></clipPath><path class="st11" d="M56.3 95.8H77v14.4H56.3z"/></g><defs><path id="SVGID_25_" d="M22.3 35c.1-.2 0-.3 0-.5 0-.1 0-.3-.1-.5 0-.1-.3-.3-.4-.4h-.2s-.1-.1-.4-.1c-.2 0-.3 0-.4.1-.1 0-.2.1-.3.1-.1.1-.2.3-.3.4 0 .1-.1.2-.2.3v.6c-.1.1-.2.6.2.8.1.3.4.9 1 .9.5 0 .9-.6 1-.9.3-.2.2-.7.1-.8z"/></defs><clipPath id="SVGID_26_"><use xlink:href="#SVGID_25_" overflow="visible"/></clipPath><g class="st12"><defs><path id="SVGID_27_" d="M-773-603H877v2197H-773z"/></defs><clipPath id="SVGID_28_"><use xlink:href="#SVGID_27_" overflow="visible"/></clipPath><path class="st13" d="M14.9 28.6h12.5v13.1H14.9z"/></g><defs><path id="SVGID_29_" d="M22.7 37c-.4-.1-.6-.2-.7-.2-.1 0-.1-.1-.2-.1 0 0-.3 1.2-.4 1.5 0 0-.1-.8-.1-.9 0 0 .1-.2.1-.3h-.6c0 .1.1.3.1.3 0 .1-.1.9-.1.9-.1-.3-.4-1.5-.4-1.5-.1 0-.1.1-.2.1-.1.1-.2.1-.7.2-.4.1-1.1.1-1.1 1.8h5.2c.2-1.7-.5-1.7-.9-1.8z"/></defs><clipPath id="SVGID_30_"><use xlink:href="#SVGID_29_" overflow="visible"/></clipPath><g class="st14"><defs><path id="SVGID_31_" d="M-773-603H877v2197H-773z"/></defs><clipPath id="SVGID_32_"><use xlink:href="#SVGID_31_" overflow="visible"/></clipPath><path class="st15" d="M13.6 31.6h15.2v12.1H13.6z"/></g><defs><path id="SVGID_33_" d="M73.7 82.5c.1-.1 0-.3 0-.3 0-.1 0-.2-.1-.4 0-.1-.2-.2-.3-.3h-.2c-.1 0-.1-.1-.3-.1-.2 0-.2 0-.3.1-.1 0-.1.1-.2.1s-.2.2-.2.3c0 .1-.1.1-.1.2v.4c-.1.1-.2.4.1.6.1.2.3.7.7.7.4 0 .6-.5.7-.7.3-.2.3-.5.2-.6z"/></defs><clipPath id="SVGID_34_"><use xlink:href="#SVGID_33_" overflow="visible"/></clipPath><g class="st16"><defs><path id="SVGID_35_" d="M-773-603H877v2197H-773z"/></defs><clipPath id="SVGID_36_"><use xlink:href="#SVGID_35_" overflow="visible"/></clipPath><path class="st17" d="M66.9 76.4h11.8v12.3H66.9z"/></g><defs><path id="SVGID_37_" d="M74 83.9c-.3-.1-.4-.1-.5-.2l-.1-.1s-.2.9-.3 1.1c0 0-.1-.6-.1-.7l.1-.2h-.4c0 .1.1.2.1.2 0 .1-.1.7-.1.7 0-.2-.3-1.1-.3-1.1-.1 0-.1 0-.1.1-.1 0-.2.1-.5.2-.4.1-.9.1-.8 1.4h3.8c0-1.3-.5-1.3-.8-1.4z"/></defs><clipPath id="SVGID_38_"><use xlink:href="#SVGID_37_" overflow="visible"/></clipPath><g class="st18"><defs><path id="SVGID_39_" d="M-773-603H877v2197H-773z"/></defs><clipPath id="SVGID_40_"><use xlink:href="#SVGID_39_" overflow="visible"/></clipPath><path class="st19" d="M66 78.7h13.8v11.6H66z"/></g><defs><path id="SVGID_41_" d="M101.1 19.5c.1-.2 0-.3 0-.5 0-.1 0-.3-.1-.5 0-.1-.3-.3-.4-.4-.1-.1-.2 0-.2 0s-.2-.1-.4-.1-.3 0-.4.1c-.1 0-.2.1-.3.1-.1.1-.2.3-.3.4 0 .1-.1.2-.2.3v.6c-.1.1-.2.6.2.8.1.3.4.9 1 .9.5 0 .9-.6 1-.9.3-.2.3-.8.1-.8z"/></defs><clipPath id="SVGID_42_"><use xlink:href="#SVGID_41_" overflow="visible"/></clipPath><g class="st20"><defs><path id="SVGID_43_" d="M-773-603H877v2197H-773z"/></defs><clipPath id="SVGID_44_"><use xlink:href="#SVGID_43_" overflow="visible"/></clipPath><path class="st21" d="M93.7 13h12.5v13.1H93.7z"/></g><g><defs><path id="SVGID_45_" d="M101.5 21.4c-.4-.1-.6-.2-.7-.2-.1 0-.1-.1-.2-.1 0 0-.3 1.2-.4 1.5 0 0-.1-.8-.1-.9 0 0 .1-.2.1-.3h-.6c0 .1.1.3.1.3 0 .1-.1.9-.1.9-.1-.3-.4-1.5-.4-1.5-.1 0-.1.1-.2.1-.1.1-.2.1-.7.2-.4.1-1.1.1-1.1 1.8h5.2c.2-1.6-.5-1.7-.9-1.8z"/></defs><clipPath id="SVGID_46_"><use xlink:href="#SVGID_45_" overflow="visible"/></clipPath><g class="st22"><defs><path id="SVGID_47_" d="M-773-603H877v2197H-773z"/></defs><clipPath id="SVGID_48_"><use xlink:href="#SVGID_47_" overflow="visible"/></clipPath><path class="st23" d="M92.4 16.1h15.2v12.1H92.4z"/></g></g><g><defs><path id="SVGID_49_" d="M32.2 8.9c.2-.4.1-.8 0-1-.1-.2-.1-.7-.3-1.1-.1-.2-.7-.7-1-.8-.3-.1-.3 0-.5 0s-.3-.3-.8-.2c-.5 0-.7.1-.9.1-.2.1-.3.2-.6.3-.1.1-.4.6-.5.8-.1.2-.3.4-.4.6-.1.2-.1 1 0 1.3-.3.1-.5 1.3.4 1.7.2.6.9 2 2.1 2 1.2 0 1.9-1.3 2.1-2 .9-.5.7-1.6.4-1.7z"/></defs><clipPath id="SVGID_50_"><use xlink:href="#SVGID_49_" overflow="visible"/></clipPath><g class="st24"><defs><path id="SVGID_51_" d="M-773-603H877v2197H-773z"/></defs><clipPath id="SVGID_52_"><use xlink:href="#SVGID_51_" overflow="visible"/></clipPath><path class="st25" d="M22 .7h15.4v16.8H22z"/></g></g><g><defs><path id="SVGID_53_" d="M33 13.1c-1-.3-1.3-.4-1.4-.5-.1-.1-.3-.2-.4-.2 0 0-.7 2.7-.8 3.3 0-.1-.2-1.8-.3-2.1.1-.1.2-.5.3-.7-.1 0-.3.1-.6.1s-.6 0-.6-.1c.1.2.3.7.3.7-.1.3-.3 2-.3 2.1-.1-.6-.8-3.2-.8-3.3-.1 0-.3.1-.4.2-.1.1-.5.2-1.4.5-1 .3-2.5.3-2.4 3.9h11.4c-.1-3.6-1.6-3.6-2.6-3.9z"/></defs><clipPath id="SVGID_54_"><use xlink:href="#SVGID_53_" overflow="visible"/></clipPath><g class="st26"><defs><path id="SVGID_55_" d="M-773-603H877v2197H-773z"/></defs><clipPath id="SVGID_56_"><use xlink:href="#SVGID_55_" overflow="visible"/></clipPath><path class="st27" d="M19 7.4h21.4V22H19z"/></g></g><g><defs><path id="SVGID_57_" d="M100.6 38.5c.2-.5.1-1 0-1.3-.1-.3-.1-.9-.4-1.4-.1-.2-.9-.9-1.2-1-.3-.1-.5 0-.6 0-.2 0-.3-.3-1-.3s-.9.1-1.2.2c-.2.1-.5.3-.8.4-.3.1-.7.8-.8 1-.1.2-.4.5-.5.8-.1.3-.1 1.4 0 1.6-.3.2-.6 1.7.5 2.2.2.8 1.2 2.5 2.7 2.5 1.5 0 2.5-1.7 2.7-2.5 1.2-.5.9-2 .6-2.2z"/></defs><clipPath id="SVGID_58_"><use xlink:href="#SVGID_57_" overflow="visible"/></clipPath><g class="st28"><defs><path id="SVGID_59_" d="M-773-603H877v2197H-773z"/></defs><clipPath id="SVGID_60_"><use xlink:href="#SVGID_59_" overflow="visible"/></clipPath><path class="st29" d="M88.8 29.4h17v18.9h-17z"/></g></g><g><defs><path id="SVGID_61_" d="M101.7 44c-1.2-.4-1.7-.5-1.9-.6l-.6-.3s-.9 3.4-1.1 4.3c0-.1-.3-2.3-.4-2.7.1-.1.3-.6.4-1-.1 0-.4.1-.8.1s-.7 0-.8-.1c.1.3.3.9.4 1-.1.4-.4 2.6-.4 2.7-.2-.8-1.1-4.2-1.1-4.3l-.6.3c-.2.1-.6.2-1.8.6-1.2.4-3.2.4-3.1 5.1h14.8c.2-4.7-1.8-4.7-3-5.1z"/></defs><clipPath id="SVGID_62_"><use xlink:href="#SVGID_61_" overflow="visible"/></clipPath><g class="st30"><defs><path id="SVGID_63_" d="M-773-603H877v2197H-773z"/></defs><clipPath id="SVGID_64_"><use xlink:href="#SVGID_63_" overflow="visible"/></clipPath><path class="st31" d="M85 38.1h24.8v16H85z"/></g></g><g><defs><path id="SVGID_65_" d="M56.7 17.6c.2.3.4.7.9.7s.7-.5.9-.7c.5 0 .5.1.9-.3-.3-.3-.3-.8-.3-1.1 0-.3 0-.5-.2-1.2-.3-.7-.9-.7-1.3-.7s-1 0-1.3.7c-.3.7-.2.9-.2 1.2 0 .3 0 .8-.3 1.1.5.3.5.3.9.3z"/></defs><clipPath id="SVGID_66_"><use xlink:href="#SVGID_65_" overflow="visible"/></clipPath><g class="st32"><defs><path id="SVGID_67_" d="M-773-603H877v2197H-773z"/></defs><clipPath id="SVGID_68_"><use xlink:href="#SVGID_67_" overflow="visible"/></clipPath><path class="st33" d="M50.8 9.2h13.7v14.1H50.8z"/></g></g><g><defs><path id="SVGID_69_" d="M59.9 19c-.4-.1-.6-.1-1.1-.4-.4-.2-.5-.2-.5-.2l-.7 1.9-.7-1.9s-.1 0-.5.2c-.5.3-.7.3-1.1.4-.4.1-.9.5-.9 1.9h6.4c0-1.4-.5-1.8-.9-1.9z"/></defs><clipPath id="SVGID_70_"><use xlink:href="#SVGID_69_" overflow="visible"/></clipPath><g class="st34"><defs><path id="SVGID_71_" d="M-773-603H877v2197H-773z"/></defs><clipPath id="SVGID_72_"><use xlink:href="#SVGID_71_" overflow="visible"/></clipPath><path class="st35" d="M49.5 13.3h16.3v12.5H49.5z"/></g></g><g><defs><path id="SVGID_73_" d="M14.2 70.6c.2.2.3.5.6.5s.5-.3.6-.5c.3 0 .3 0 .6-.2-.2-.2-.2-.6-.2-.8 0-.2 0-.3-.2-.8s-.6-.5-.9-.5c-.3 0-.7 0-.9.5-.2.5-.2.6-.2.8 0 .2 0 .6-.2.8.4.2.5.2.8.2z"/></defs><clipPath id="SVGID_74_"><use xlink:href="#SVGID_73_" overflow="visible"/></clipPath><g class="st36"><defs><path id="SVGID_75_" d="M-773-603H877v2197H-773z"/></defs><clipPath id="SVGID_76_"><use xlink:href="#SVGID_75_" overflow="visible"/></clipPath><path class="st37" d="M8.6 63.3h12.5v12.8H8.6z"/></g></g><g><defs><path id="SVGID_77_" d="M16.3 71.5c-.2-.1-.4 0-.7-.3-.2-.2-.3-.2-.3-.2l-.5 1.3-.5-1.3s-.1 0-.3.2c-.3.2-.5.2-.7.3-.2.1-.6.4-.6 1.2h4.2c0-.8-.3-1.1-.6-1.2z"/></defs><clipPath id="SVGID_78_"><use xlink:href="#SVGID_77_" overflow="visible"/></clipPath><g class="st38"><defs><path id="SVGID_79_" d="M-773-603H877v2197H-773z"/></defs><clipPath id="SVGID_80_"><use xlink:href="#SVGID_79_" overflow="visible"/></clipPath><path class="st39" d="M7.6 66.1h14.3v11.7H7.6z"/></g></g><g><defs><path id="SVGID_81_" d="M94.3 89.6c.4.5.8 1.4 1.8 1.4s1.4-.9 1.8-1.4c.9.1 1 .1 1.8-.7-.6-.6-.6-1.6-.6-2.2 0-.6 0-1-.5-2.4s-1.8-1.4-2.5-1.4c-.8 0-2 .1-2.5 1.4-.5 1.4-.5 1.7-.5 2.4 0 .6 0 1.6-.6 2.2.8.8.9.7 1.8.7z"/></defs><clipPath id="SVGID_82_"><use xlink:href="#SVGID_81_" overflow="visible"/></clipPath><g class="st40"><defs><path id="SVGID_83_" d="M-773-603H877v2197H-773z"/></defs><clipPath id="SVGID_84_"><use xlink:href="#SVGID_83_" overflow="visible"/></clipPath><path class="st41" d="M87.5 77.9h17.2V96H87.5z"/></g></g><g><defs><path id="SVGID_85_" d="M100.5 92.3c-.7-.2-1.1-.1-2.1-.8-.7-.5-.9-.5-.9-.5l-1.4 3.8-1.4-3.8s-.2 0-.9.5c-1 .7-1.4.6-2.1.8-.7.2-1.8 1-1.8 3.7h12.6c-.2-2.7-1.2-3.5-2-3.7z"/></defs><clipPath id="SVGID_86_"><use xlink:href="#SVGID_85_" overflow="visible"/></clipPath><g class="st42"><defs><path id="SVGID_87_" d="M-773-603H877v2197H-773z"/></defs><clipPath id="SVGID_88_"><use xlink:href="#SVGID_87_" overflow="visible"/></clipPath><path class="st43" d="M84.8 86h22.5v14.9H84.8z"/></g></g><g><defs><path id="SVGID_89_" d="M44.1 90.1c.2.2.4.7.8.7.5 0 .6-.4.8-.7.4 0 .5.1.8-.3-.3-.3-.3-.7-.3-1 0-.3 0-.5-.2-1.1-.1-.7-.7-.7-1.1-.7-.4 0-1 0-1.2.7-.2.6-.2.8-.2 1.1 0 .3 0 .7-.3 1 .4.4.5.3.9.3z"/></defs><clipPath id="SVGID_90_"><use xlink:href="#SVGID_89_" overflow="visible"/></clipPath><g class="st44"><defs><path id="SVGID_91_" d="M-773-603H877v2197H-773z"/></defs><clipPath id="SVGID_92_"><use xlink:href="#SVGID_91_" overflow="visible"/></clipPath><path class="st45" d="M38.3 82h13.4v13.8H38.3z"/></g></g><g><defs><path id="SVGID_93_" d="M47 91.4c-.3-.1-.5-.1-1-.4-.3-.2-.4-.2-.4-.2l-.7 1.8-.7-1.8s-.1 0-.4.2c-.5.3-.6.3-1 .4-.3.1-.8.5-.8 1.7h5.9c-.1-1.3-.6-1.6-.9-1.7z"/></defs><clipPath id="SVGID_94_"><use xlink:href="#SVGID_93_" overflow="visible"/></clipPath><g class="st46"><defs><path id="SVGID_95_" d="M-773-603H877v2197H-773z"/></defs><clipPath id="SVGID_96_"><use xlink:href="#SVGID_95_" overflow="visible"/></clipPath><path class="st47" d="M37 85.8h15.8v12.3H37z"/></g></g><g><defs><path id="SVGID_97_" d="M4.9 13.6c.2.3.5.8 1 .8s.8-.5 1-.8c.5 0 .5.1 1-.4-.3-.3-.3-.9-.4-1.2 0-.3 0-.6-.3-1.3-.2-.7-.9-.8-1.4-.8-.4 0-1.1 0-1.4.8-.3.8-.2 1-.3 1.3 0 .3 0 .9-.3 1.2.5.5.6.5 1.1.4z"/></defs><clipPath id="SVGID_98_"><use xlink:href="#SVGID_97_" overflow="visible"/></clipPath><g class="st48"><defs><path id="SVGID_99_" d="M-773-603H877v2197H-773z"/></defs><clipPath id="SVGID_100_"><use xlink:href="#SVGID_99_" overflow="visible"/></clipPath><path class="st49" d="M-1.2 4.9h14.1v14.5H-1.2z"/></g></g><g><defs><path id="SVGID_101_" d="M8.3 15.2c-.4-.1-.6-.1-1.2-.5-.4-.3-.5-.3-.5-.3l-.8 2.1-.8-2.1s-.1 0-.5.3c-.5.4-.7.3-1.1.5-.4.1-1 .6-1 2h7c-.1-1.5-.7-1.9-1.1-2z"/></defs><clipPath id="SVGID_102_"><use xlink:href="#SVGID_101_" overflow="visible"/></clipPath><g class="st50"><defs><path id="SVGID_103_" d="M-773-603H877v2197H-773z"/></defs><clipPath id="SVGID_104_"><use xlink:href="#SVGID_103_" overflow="visible"/></clipPath><path class="st51" d="M-2.6 9.4h17v12.8h-17z"/></g></g><g><defs><path id="SVGID_105_" d="M13.3 51.3c.3.4.7 1.2 1.5 1.2s1.1-.7 1.5-1.2c.7 0 .8.1 1.5-.5-.5-.5-.5-1.3-.5-1.8s0-.8-.4-1.9c-.4-1.1-1.4-1.1-2-1.1-.6 0-1.6 0-2 1.1-.4 1.1-.4 1.4-.4 1.9s0 1.3-.5 1.8c.5.6.6.5 1.3.5z"/></defs><clipPath id="SVGID_106_"><use xlink:href="#SVGID_105_" overflow="visible"/></clipPath><g class="st52"><defs><path id="SVGID_107_" d="M-773-603H877v2197H-773z"/></defs><clipPath id="SVGID_108_"><use xlink:href="#SVGID_107_" overflow="visible"/></clipPath><path class="st53" d="M6.9 40.9h15.9v16.6H6.9z"/></g></g><g><defs><path id="SVGID_109_" d="M18.4 53.5c-.6-.2-.9-.1-1.7-.6-.6-.4-.7-.4-.7-.4l-1.2 3-1.2-3s-.1 0-.7.4c-.8.5-1.1.5-1.7.6-.6.2-1.5.8-1.5 3h10.2c-.1-2.2-.9-2.8-1.5-3z"/></defs><clipPath id="SVGID_110_"><use xlink:href="#SVGID_109_" overflow="visible"/></clipPath><g class="st54"><defs><path id="SVGID_111_" d="M-773-603H877v2197H-773z"/></defs><clipPath id="SVGID_112_"><use xlink:href="#SVGID_111_" overflow="visible"/></clipPath><path class="st55" d="M4.7 47.4h20.1v14H4.7z"/></g></g><g><defs><path id="SVGID_113_" d="M78.3 9.2c.4.5.8 1.4 1.8 1.4s1.4-.9 1.8-1.4c.9.1 1 .1 1.8-.7-.5-.5-.5-1.5-.5-2.1 0-.6 0-1-.5-2.4s-1.8-1.4-2.5-1.4c-.8 0-2 .1-2.5 1.4-.5 1.4-.5 1.7-.5 2.4 0 .6 0 1.6-.6 2.2.8.8.8.7 1.7.6z"/></defs><clipPath id="SVGID_114_"><use xlink:href="#SVGID_113_" overflow="visible"/></clipPath><g class="st56"><defs><path id="SVGID_115_" d="M-773-603H877v2197H-773z"/></defs><clipPath id="SVGID_116_"><use xlink:href="#SVGID_115_" overflow="visible"/></clipPath><path class="st57" d="M71.5-2.4h17.2v18.1H71.5z"/></g></g><g><defs><path id="SVGID_117_" d="M84.6 12c-.7-.2-1.1-.1-2.1-.8-.7-.5-.9-.5-.9-.5l-1.4 3.8-1.4-3.8s-.2 0-.9.5c-1 .7-1.4.6-2.1.8-.7.2-1.8 1-1.8 3.7h12.4c0-2.7-1.1-3.5-1.8-3.7z"/></defs><clipPath id="SVGID_118_"><use xlink:href="#SVGID_117_" overflow="visible"/></clipPath><g class="st58"><defs><path id="SVGID_119_" d="M-773-603H877v2197H-773z"/></defs><clipPath id="SVGID_120_"><use xlink:href="#SVGID_119_" overflow="visible"/></clipPath><path class="st59" d="M68.9 5.7h22.5v14.9H68.9z"/></g></g><g><defs><path id="SVGID_121_" d="M53.8 29.7C40.7 29.7 30 40.4 30 53.6c0 13.1 10.7 23.8 23.8 23.8 13.1 0 23.8-10.7 23.8-23.8.1-13.2-10.6-23.9-23.8-23.9zm0 48.3c-13.5 0-24.5-11-24.5-24.5S40.3 29 53.8 29s24.5 11 24.5 24.5S67.3 78 53.8 78z"/></defs><clipPath id="SVGID_122_"><use xlink:href="#SVGID_121_" overflow="visible"/></clipPath><g class="st60"><defs><path id="SVGID_123_" d="M-773-603H877v2197H-773z"/></defs><clipPath id="SVGID_124_"><use xlink:href="#SVGID_123_" overflow="visible"/></clipPath><path class="st61" d="M24.4 24.1h58.9V83H24.4z"/></g></g><g><defs><path id="SVGID_125_" d="M18.7 82.5c-6.8 0-12.4 5.6-12.4 12.4 0 6.8 5.6 12.4 12.4 12.4 6.8 0 12.4-5.6 12.4-12.4 0-6.8-5.5-12.4-12.4-12.4zm0 25.5c-7.2 0-13-5.9-13-13 0-7.2 5.9-13 13-13 7.2 0 13 5.9 13 13 .1 7.1-5.8 13-13 13z"/></defs><clipPath id="SVGID_126_"><use xlink:href="#SVGID_125_" overflow="visible"/></clipPath><g class="st62"><defs><path id="SVGID_127_" d="M-773-603H877v2197H-773z"/></defs><clipPath id="SVGID_128_"><use xlink:href="#SVGID_127_" overflow="visible"/></clipPath><path class="st63" d="M.7 76.9h36.1V113H.7z"/></g></g><g><defs><path id="SVGID_129_" d="M29.7 3.8c-4.5 0-8.2 3.7-8.2 8.2 0 4.6 3.7 8.2 8.2 8.2 4.6 0 8.2-3.7 8.2-8.2.1-4.5-3.6-8.2-8.2-8.2zm0 17.2c-4.9 0-8.9-4-8.9-8.9s4-8.9 8.9-8.9 8.9 4 8.9 8.9-4 8.9-8.9 8.9z"/></defs><clipPath id="SVGID_130_"><use xlink:href="#SVGID_129_" overflow="visible"/></clipPath><g class="st64"><defs><path id="SVGID_131_" d="M-773-603H877v2197H-773z"/></defs><clipPath id="SVGID_132_"><use xlink:href="#SVGID_131_" overflow="visible"/></clipPath><path class="st65" d="M15.8-1.8h27.8V26H15.8z"/></g></g><g><defs><path id="SVGID_133_" d="M97.4 31.9c-6 0-10.8 4.9-10.8 10.8 0 6 4.9 10.8 10.8 10.8 6 0 10.8-4.9 10.8-10.8 0-6-4.9-10.8-10.8-10.8zm0 22.2C91.1 54.1 86 49 86 42.7c0-6.3 5.1-11.4 11.4-11.4 6.3 0 11.4 5.1 11.4 11.4 0 6.3-5.1 11.4-11.4 11.4z"/></defs><clipPath id="SVGID_134_"><use xlink:href="#SVGID_133_" overflow="visible"/></clipPath><g class="st66"><defs><path id="SVGID_135_" d="M-773-603H877v2197H-773z"/></defs><clipPath id="SVGID_136_"><use xlink:href="#SVGID_135_" overflow="visible"/></clipPath><path class="st67" d="M80.9 26.3h32.9v32.9H80.9z"/></g></g><g><defs><path id="SVGID_137_" d="M57.7 13.4c-2.6 0-4.7 2.1-4.7 4.7s2.1 4.7 4.7 4.7 4.7-2.1 4.7-4.7-2.1-4.7-4.7-4.7zm0 10.1c-3 0-5.4-2.4-5.4-5.4 0-3 2.4-5.4 5.4-5.4 3 0 5.4 2.4 5.4 5.4-.1 3-2.5 5.4-5.4 5.4z"/></defs><clipPath id="SVGID_138_"><use xlink:href="#SVGID_137_" overflow="visible"/></clipPath><g class="st68"><defs><path id="SVGID_139_" d="M-773-603H877v2197H-773z"/></defs><clipPath id="SVGID_140_"><use xlink:href="#SVGID_139_" overflow="visible"/></clipPath><path class="st69" d="M47.3 7.7H68v20.7H47.3z"/></g></g><g><defs><path id="SVGID_141_" d="M14.8 44.3c-4.3 0-7.7 3.5-7.7 7.7 0 4.3 3.5 7.7 7.7 7.7 4.3 0 7.7-3.5 7.7-7.7s-3.5-7.7-7.7-7.7zm0 16.1c-4.6 0-8.4-3.8-8.4-8.4 0-4.6 3.8-8.4 8.4-8.4 4.6 0 8.4 3.8 8.4 8.4-.1 4.7-3.8 8.4-8.4 8.4z"/></defs><clipPath id="SVGID_142_"><use xlink:href="#SVGID_141_" overflow="visible"/></clipPath><g class="st70"><defs><path id="SVGID_143_" d="M-773-603H877v2197H-773z"/></defs><clipPath id="SVGID_144_"><use xlink:href="#SVGID_143_" overflow="visible"/></clipPath><path class="st71" d="M1.4 38.7h26.7v26.7H1.4z"/></g></g><g><defs><path id="SVGID_145_" d="M80.1.6c-5.3 0-9.6 4.3-9.6 9.6s4.3 9.6 9.6 9.6 9.6-4.3 9.6-9.6S85.4.6 80.1.6zm0 19.9c-5.7 0-10.3-4.6-10.3-10.3C69.9 4.6 74.5 0 80.1 0c5.6 0 10.2 4.6 10.2 10.3.1 5.6-4.5 10.2-10.2 10.2z"/></defs><clipPath id="SVGID_146_"><use xlink:href="#SVGID_145_" overflow="visible"/></clipPath><g class="st72"><defs><path id="SVGID_147_" d="M-773-603H877v2197H-773z"/></defs><clipPath id="SVGID_148_"><use xlink:href="#SVGID_147_" overflow="visible"/></clipPath><path class="st73" d="M64.9-5h30.5v30.5H64.9z"/></g></g><g><defs><path id="SVGID_149_" d="M89.9 57.5c-2.5 0-4.5 2-4.5 4.5s2 4.5 4.5 4.5 4.5-2 4.5-4.5-2-4.5-4.5-4.5zm0 9.6c-2.8 0-5.1-2.3-5.1-5.1s2.3-5.1 5.1-5.1S95 59.2 95 62s-2.3 5.1-5.1 5.1z"/></defs><clipPath id="SVGID_150_"><use xlink:href="#SVGID_149_" overflow="visible"/></clipPath><g class="st74"><defs><path id="SVGID_151_" d="M-773-603H877v2197H-773z"/></defs><clipPath id="SVGID_152_"><use xlink:href="#SVGID_151_" overflow="visible"/></clipPath><path class="st75" d="M79.8 51.8h20.3v20.3H79.8z"/></g></g><g><defs><path id="SVGID_153_" d="M66.7 92.8c-4.3 0-7.8 3.5-7.8 7.8s3.5 7.8 7.8 7.8 7.8-3.5 7.8-7.8c-.1-4.3-3.5-7.8-7.8-7.8zm0 16.1c-4.6 0-8.4-3.8-8.4-8.4 0-4.6 3.8-8.4 8.4-8.4 4.6 0 8.4 3.8 8.4 8.4 0 4.7-3.8 8.4-8.4 8.4z"/></defs><clipPath id="SVGID_154_"><use xlink:href="#SVGID_153_" overflow="visible"/></clipPath><g class="st76"><defs><path id="SVGID_155_" d="M-773-603H877v2197H-773z"/></defs><clipPath id="SVGID_156_"><use xlink:href="#SVGID_155_" overflow="visible"/></clipPath><path class="st77" d="M53.3 87.1h26.8v26.8H53.3z"/></g></g><g><defs><path id="SVGID_157_" d="M21.1 32.9c-2 0-3.6 1.6-3.6 3.6s1.6 3.6 3.6 3.6 3.6-1.6 3.6-3.6-1.6-3.6-3.6-3.6zm0 7.9c-2.3 0-4.2-1.9-4.2-4.2 0-2.3 1.9-4.2 4.2-4.2 2.3 0 4.2 1.9 4.2 4.2.1 2.3-1.8 4.2-4.2 4.2z"/></defs><clipPath id="SVGID_158_"><use xlink:href="#SVGID_157_" overflow="visible"/></clipPath><g class="st78"><defs><path id="SVGID_159_" d="M-773-603H877v2197H-773z"/></defs><clipPath id="SVGID_160_"><use xlink:href="#SVGID_159_" overflow="visible"/></clipPath><path class="st79" d="M11.9 27.3h18.5v18.5H11.9z"/></g></g><g><defs><path id="SVGID_161_" d="M72.8 81c-1.4 0-2.6 1.1-2.6 2.6 0 1.4 1.1 2.6 2.6 2.6 1.4 0 2.6-1.1 2.6-2.6 0-1.4-1.1-2.6-2.6-2.6zm0 5.8c-1.8 0-3.2-1.4-3.2-3.2 0-1.8 1.4-3.2 3.2-3.2 1.8 0 3.2 1.4 3.2 3.2.1 1.8-1.4 3.2-3.2 3.2z"/></defs><clipPath id="SVGID_162_"><use xlink:href="#SVGID_161_" overflow="visible"/></clipPath><g class="st80"><defs><path id="SVGID_163_" d="M-773-603H877v2197H-773z"/></defs><clipPath id="SVGID_164_"><use xlink:href="#SVGID_163_" overflow="visible"/></clipPath><path class="st81" d="M64.6 75.4H81v16.4H64.6z"/></g></g><g><defs><path id="SVGID_165_" d="M100 17.4c-2 0-3.6 1.6-3.6 3.6s1.6 3.6 3.6 3.6 3.6-1.6 3.6-3.6-1.6-3.6-3.6-3.6zm0 7.8c-2.3 0-4.2-1.9-4.2-4.2 0-2.3 1.9-4.2 4.2-4.2 2.3 0 4.2 1.9 4.2 4.2 0 2.3-1.9 4.2-4.2 4.2z"/></defs><clipPath id="SVGID_166_"><use xlink:href="#SVGID_165_" overflow="visible"/></clipPath><g class="st82"><defs><path id="SVGID_167_" d="M-773-603H877v2197H-773z"/></defs><clipPath id="SVGID_168_"><use xlink:href="#SVGID_167_" overflow="visible"/></clipPath><path class="st83" d="M90.8 11.7h18.5v18.5H90.8z"/></g></g><g><defs><path id="SVGID_169_" d="M14.8 67.9c-1.7 0-3.1 1.4-3.1 3.1 0 1.7 1.4 3.1 3.1 3.1 1.7 0 3.1-1.4 3.1-3.1 0-1.7-1.4-3.1-3.1-3.1zm0 6.8c-2 0-3.7-1.7-3.7-3.7s1.7-3.7 3.7-3.7 3.7 1.7 3.7 3.7-1.7 3.7-3.7 3.7z"/></defs><clipPath id="SVGID_170_"><use xlink:href="#SVGID_169_" overflow="visible"/></clipPath><g class="st84"><defs><path id="SVGID_171_" d="M-773-603H877v2197H-773z"/></defs><clipPath id="SVGID_172_"><use xlink:href="#SVGID_171_" overflow="visible"/></clipPath><path class="st85" d="M6.1 62.2h17.4v17.4H6.1z"/></g></g><g><defs><path id="SVGID_173_" d="M96.1 80.9c-5.3 0-9.6 4.3-9.6 9.6s4.3 9.6 9.6 9.6 9.6-4.3 9.6-9.6-4.3-9.6-9.6-9.6zm0 19.9c-5.7 0-10.3-4.6-10.3-10.3 0-5.7 4.6-10.3 10.3-10.3 5.7 0 10.3 4.6 10.3 10.3 0 5.7-4.6 10.3-10.3 10.3z"/></defs><clipPath id="SVGID_174_"><use xlink:href="#SVGID_173_" overflow="visible"/></clipPath><g class="st86"><defs><path id="SVGID_175_" d="M-773-603H877v2197H-773z"/></defs><clipPath id="SVGID_176_"><use xlink:href="#SVGID_175_" overflow="visible"/></clipPath><path class="st87" d="M80.8 75.3h30.6v30.6H80.8z"/></g></g><g><defs><path id="SVGID_177_" d="M44.9 86.2c-2.4 0-4.3 1.9-4.3 4.3s1.9 4.3 4.3 4.3 4.3-1.9 4.3-4.3c0-2.3-1.9-4.3-4.3-4.3zm0 9.3c-2.7 0-5-2.2-5-5 0-2.7 2.2-5 5-5 2.7 0 5 2.2 5 5s-2.2 5-5 5z"/></defs><clipPath id="SVGID_178_"><use xlink:href="#SVGID_177_" overflow="visible"/></clipPath><g class="st88"><defs><path id="SVGID_179_" d="M-773-603H877v2197H-773z"/></defs><clipPath id="SVGID_180_"><use xlink:href="#SVGID_179_" overflow="visible"/></clipPath><path class="st89" d="M35 80.6h19.9v19.9H35z"/></g></g><g><defs><path id="SVGID_181_" d="M5.9 9C3 9 .6 11.3.6 14.2c0 2.9 2.3 5.2 5.2 5.2 2.9 0 5.2-2.3 5.2-5.2.1-2.9-2.3-5.2-5.1-5.2zm0 11.1c-3.2 0-5.9-2.6-5.9-5.9C0 11 2.6 8.4 5.9 8.4c3.2 0 5.9 2.6 5.9 5.9-.1 3.1-2.7 5.8-5.9 5.8z"/></defs><clipPath id="SVGID_182_"><use xlink:href="#SVGID_181_" overflow="visible"/></clipPath><g class="st90"><defs><path id="SVGID_183_" d="M-773-603H877v2197H-773z"/></defs><clipPath id="SVGID_184_"><use xlink:href="#SVGID_183_" overflow="visible"/></clipPath><path class="st91" d="M-5 3.4h21.7v21.7H-5z"/></g></g><g><defs><path id="SVGID_185_" d="M56.4 29.9c-.2 0-.3-.2-.3-.4l.6-6.4c0-.2.2-.3.3-.3.2 0 .3.2.3.3l-.6 6.4c0 .3-.1.4-.3.4z"/></defs><clipPath id="SVGID_186_"><use xlink:href="#SVGID_185_" overflow="visible"/></clipPath><g class="st92"><defs><path id="SVGID_187_" d="M-773-603H877v2197H-773z"/></defs><clipPath id="SVGID_188_"><use xlink:href="#SVGID_187_" overflow="visible"/></clipPath><path class="st93" d="M51.1 17.9h11.3v17H51.1z"/></g></g><g><defs><path id="SVGID_189_" d="M67.3 33.8h-.2c-.2-.1-.2-.3-.1-.4L75.4 19c.1-.2.3-.2.4-.1.2.1.2.3.1.4l-8.3 14.3c-.1.1-.2.2-.3.2z"/></defs><clipPath id="SVGID_190_"><use xlink:href="#SVGID_189_" overflow="visible"/></clipPath><g class="st94"><defs><path id="SVGID_191_" d="M-773-603H877v2197H-773z"/></defs><clipPath id="SVGID_192_"><use xlink:href="#SVGID_191_" overflow="visible"/></clipPath><path class="st95" d="M62 13.8h19v24.9H62z"/></g></g><g><defs><path id="SVGID_193_" d="M77 47c-.1 0-.3-.1-.3-.2 0-.2.1-.3.2-.4l9.3-2.2c.2 0 .3.1.4.2 0 .2-.1.3-.2.4L77 47z"/></defs><clipPath id="SVGID_194_"><use xlink:href="#SVGID_193_" overflow="visible"/></clipPath><g class="st96"><defs><path id="SVGID_195_" d="M-773-603H877v2197H-773z"/></defs><clipPath id="SVGID_196_"><use xlink:href="#SVGID_195_" overflow="visible"/></clipPath><path class="st97" d="M71.7 39.2h20v12.9h-20z"/></g></g><g><defs><path id="SVGID_197_" d="M73.3 39.6c-.1 0-.2 0-.3-.1-.1-.1-.1-.3.1-.5l23.5-16c.1-.1.3-.1.5.1.1.1.1.4-.1.5l-23.5 16c-.1-.1-.2 0-.2 0z"/></defs><clipPath id="SVGID_198_"><use xlink:href="#SVGID_197_" overflow="visible"/></clipPath><g class="st98"><defs><path id="SVGID_199_" d="M-773-603H877v2197H-773z"/></defs><clipPath id="SVGID_200_"><use xlink:href="#SVGID_199_" overflow="visible"/></clipPath><path class="st99" d="M67.9 17.9H102v26.7H67.9z"/></g></g><g><defs><path id="SVGID_201_" d="M85 61.2l-7.8-1.4c-.2 0-.3-.2-.3-.4s.2-.3.4-.3l7.8 1.4c.2 0 .3.2.3.4-.1.2-.3.3-.4.3z"/></defs><clipPath id="SVGID_202_"><use xlink:href="#SVGID_201_" overflow="visible"/></clipPath><g class="st100"><defs><path id="SVGID_203_" d="M-773-603H877v2197H-773z"/></defs><clipPath id="SVGID_204_"><use xlink:href="#SVGID_203_" overflow="visible"/></clipPath><path class="st101" d="M71.9 54.2h18.4v12.1H71.9z"/></g></g><g><defs><path id="SVGID_205_" d="M87.6 85.6c-.1 0-.2 0-.2-.1L71.3 70.3c-.1-.1-.1-.3 0-.5.1-.1.3-.1.5 0l16 15.2c.1.1.1.3 0 .5 0 0-.1.1-.2.1z"/></defs><clipPath id="SVGID_206_"><use xlink:href="#SVGID_205_" overflow="visible"/></clipPath><g class="st102"><defs><path id="SVGID_207_" d="M-773-603H877v2197H-773z"/></defs><clipPath id="SVGID_208_"><use xlink:href="#SVGID_207_" overflow="visible"/></clipPath><path class="st103" d="M66.2 64.7h26.7v25.8H66.2z"/></g></g><g><defs><path id="SVGID_209_" d="M70.9 81.8c-.1 0-.2-.1-.3-.1l-4.8-7.1c-.1-.1-.1-.3.1-.5.1-.1.3-.1.5.1l4.8 7.1c.1.1.1.3-.1.4-.1 0-.2.1-.2.1z"/></defs><clipPath id="SVGID_210_"><use xlink:href="#SVGID_209_" overflow="visible"/></clipPath><g class="st104"><defs><path id="SVGID_211_" d="M-773-603H877v2197H-773z"/></defs><clipPath id="SVGID_212_"><use xlink:href="#SVGID_211_" overflow="visible"/></clipPath><path class="st105" d="M60.8 69h15.4v17.7H60.8z"/></g></g><g><defs><path id="SVGID_213_" d="M64.1 93.2c-.1 0-.3-.1-.3-.2l-4.3-15.9c-.1-.2.1-.3.2-.4.2-.1.3.1.4.2l4.3 15.9c0 .2-.1.3-.3.4z"/></defs><clipPath id="SVGID_214_"><use xlink:href="#SVGID_213_" overflow="visible"/></clipPath><g class="st106"><defs><path id="SVGID_215_" d="M-773-603H877v2197H-773z"/></defs><clipPath id="SVGID_216_"><use xlink:href="#SVGID_215_" overflow="visible"/></clipPath><path class="st107" d="M54.4 71.7h15v26.5h-15z"/></g></g><g><defs><path id="SVGID_217_" d="M45.6 86.3c-.2-.1-.4-.2-.3-.4l2.2-9c0-.2.2-.3.4-.2.2 0 .3.2.2.4L45.9 86c0 .2-.1.3-.3.3z"/></defs><clipPath id="SVGID_218_"><use xlink:href="#SVGID_217_" overflow="visible"/></clipPath><g class="st108"><defs><path id="SVGID_219_" d="M-773-603H877v2197H-773z"/></defs><clipPath id="SVGID_220_"><use xlink:href="#SVGID_219_" overflow="visible"/></clipPath><path class="st109" d="M40.3 71.6h12.8v19.7H40.3z"/></g></g><g><defs><path id="SVGID_221_" d="M26.4 85.1c-.1 0-.1 0-.2-.1s-.2-.3-.1-.4L37 70.9c.1-.1.3-.2.5-.1.1.1.2.3.1.5L26.6 85s-.1.1-.2.1z"/></defs><clipPath id="SVGID_222_"><use xlink:href="#SVGID_221_" overflow="visible"/></clipPath><g class="st110"><defs><path id="SVGID_223_" d="M-773-603H877v2197H-773z"/></defs><clipPath id="SVGID_224_"><use xlink:href="#SVGID_223_" overflow="visible"/></clipPath><path class="st111" d="M21.1 65.8h21.5v24.3H21.1z"/></g></g><g><defs><path id="SVGID_225_" d="M17.7 69.5c-.1 0-.2-.1-.3-.2-.1-.2 0-.3.1-.4l13.6-7c.2-.1.3 0 .4.1.1.2 0 .3-.1.4l-13.6 7c0 .1 0 .1-.1.1z"/></defs><clipPath id="SVGID_226_"><use xlink:href="#SVGID_225_" overflow="visible"/></clipPath><g class="st112"><defs><path id="SVGID_227_" d="M-773-603H877v2197H-773z"/></defs><clipPath id="SVGID_228_"><use xlink:href="#SVGID_227_" overflow="visible"/></clipPath><path class="st113" d="M12.4 56.9h24.2v17.6H12.4z"/></g></g><g><defs><path id="SVGID_229_" d="M22.8 52.4c-.2 0-.3-.1-.3-.3 0-.2.1-.3.3-.3h6.9c.2 0 .3.1.3.3 0 .2-.1.3-.3.3h-6.9z"/></defs><clipPath id="SVGID_230_"><use xlink:href="#SVGID_229_" overflow="visible"/></clipPath><g class="st114"><defs><path id="SVGID_231_" d="M-773-603H877v2197H-773z"/></defs><clipPath id="SVGID_232_"><use xlink:href="#SVGID_231_" overflow="visible"/></clipPath><path class="st115" d="M17.5 46.7H35v10.7H17.5z"/></g></g><g><defs><path id="SVGID_233_" d="M41.9 32.8c-.1 0-.2 0-.3-.2l-8.1-12.9c-.1-.2-.1-.3.1-.4.2-.1.3 0 .4.1l8.1 12.9c.1.2.1.3-.1.4.1.1 0 .1-.1.1z"/></defs><clipPath id="SVGID_234_"><use xlink:href="#SVGID_233_" overflow="visible"/></clipPath><g class="st116"><defs><path id="SVGID_235_" d="M-773-603H877v2197H-773z"/></defs><clipPath id="SVGID_236_"><use xlink:href="#SVGID_235_" overflow="visible"/></clipPath><path class="st117" d="M28.5 14.3h18.7v23.5H28.5z"/></g></g><g><defs><path id="SVGID_237_" d="M35.1 38.7c-.1 0-.1 0-.2-.1L10 17.8c-.1-.1-.2-.3 0-.5.1-.1.3-.2.5 0l24.8 20.8c.1.1.2.3 0 .5 0 .1-.1.1-.2.1z"/></defs><clipPath id="SVGID_238_"><use xlink:href="#SVGID_237_" overflow="visible"/></clipPath><g class="st118"><defs><path id="SVGID_239_" d="M-773-603H877v2197H-773z"/></defs><clipPath id="SVGID_240_"><use xlink:href="#SVGID_239_" overflow="visible"/></clipPath><path class="st119" d="M4.9 12.3h35.5v31.4H4.9z"/></g></g><g><defs><path id="SVGID_241_" d="M32.2 43H32l-7.6-4.3c-.2-.1-.2-.3-.1-.4.1-.2.3-.2.4-.1l7.6 4.3c.2.1.2.3.1.4 0 .1-.1.1-.2.1z"/></defs><clipPath id="SVGID_242_"><use xlink:href="#SVGID_241_" overflow="visible"/></clipPath><g class="st120"><defs><path id="SVGID_243_" d="M-773-603H877v2197H-773z"/></defs><clipPath id="SVGID_244_"><use xlink:href="#SVGID_243_" overflow="visible"/></clipPath><path class="st121" d="M19.3 33.1h18.3v15H19.3z"/></g></g></svg>