<svg id="Layer_1" xmlns="http://www.w3.org/2000/svg" viewBox="0 0 59 59"><style>.st0{fill:#5a758d}</style><path class="st0" d="M10.5 45.4c-.3 0-.5.2-.5.5v3.4c0 .3.2.5.5.5s.5-.2.5-.5v-3.4c0-.3-.2-.5-.5-.5zM24.5 45.4c-.3 0-.5.2-.5.5v3.4c0 .3.2.5.5.5s.5-.2.5-.5v-3.4c0-.3-.2-.5-.5-.5zM38.5 45.4c-.3 0-.5.2-.5.5v3.4c0 .3.2.5.5.5s.5-.2.5-.5v-3.4c0-.3-.2-.5-.5-.5zM17.5 41.9c-.3 0-.5.2-.5.5v6.9c0 .3.2.5.5.5s.5-.2.5-.5v-6.9c0-.2-.2-.5-.5-.5zM31.5 41.9c-.3 0-.5.2-.5.5v6.9c0 .3.2.5.5.5s.5-.2.5-.5v-6.9c0-.2-.2-.5-.5-.5zM45.5 41.9c-.3 0-.5.2-.5.5v6.9c0 .3.2.5.5.5s.5-.2.5-.5v-6.9c0-.2-.2-.5-.5-.5z"/><path class="st0" d="M49.3 4H9.7C6.5 4 4 6.5 4 9.7v39.7C4 52.5 6.5 55 9.7 55h39.7c3.1 0 5.7-2.5 5.7-5.7V9.7C55 6.5 52.5 4 49.3 4zM9.7 5h39.7C51.9 5 54 7.1 54 9.7V23h-9.5l-5-13.5c-.1-.2-.3-.3-.5-.3s-.4.2-.5.4l-4.8 23.1L27.4 13c-.1-.2-.3-.3-.5-.3s-.4.1-.5.3l-4.7 12.6-3.8-9.2c-.1-.2-.2-.3-.4-.3s-.4.1-.5.2L12.8 23H5V9.7C5 7.1 7.1 5 9.7 5zm39.6 49H9.7C7.1 54 5 51.9 5 49.3V24h8.1c.2 0 .3-.1.4-.2l3.8-6.1 3.9 9.5c.1.2.3.3.5.3s.4-.1.5-.3l4.7-12.4L33.4 35c.1.2.3.3.5.3s.4-.2.5-.4l4.8-23.3 4.6 12.2c.1.2.3.3.5.3H54v25.4c0 2.4-2.1 4.5-4.7 4.5z"/></svg>