<svg id="Layer_1" xmlns="http://www.w3.org/2000/svg" viewBox="0 0 133.2 28.3"><style>.st0{fill:#829bb1}</style><title>Impact-Space-Logo</title><g id="Page-1_1_"><g id="Landing-Page-1_1_" transform="translate(-1192 -879)"><g id="Impact-Space-Logo_1_" transform="translate(1192 879)"><path id="Fill-1_1_" class="st0" d="M24.5 14.4c-3 4.1-3 4.1-5.8.6-.5 1.3-.4 2.5-.5 3.7 0 1.1-.5 1.3-1.5 1.3-1.1 0-1.4-.4-1.3-1.4.2-3.2.3-6.5.5-9.8 0-.5 0-1.1.8-1.1s1.6-.1 2 .8c.8 1.6 1.7 3.1 2.7 4.9.9-1.7 1.7-3 2.4-4.5.5-1 1.2-1.4 2.3-1.3 1.2.2.8 1.2.9 1.9.1 2.9.2 5.9.4 8.7.1 1-.1 1.7-1.4 1.7-1.1 0-1.6-.4-1.6-1.5.1-1.1.1-2.4.1-4"/><path id="Fill-3_1_" class="st0" d="M34 13.5c1.1.1 2-.1 2-1.4 0-1.5-1-1.6-2.1-1.7-1.3-.1-1.5.5-1.6 1.7-.1 1.4.6 1.5 1.7 1.4m-4.6.4c0-.4-.1-.9 0-1.3.2-1.6-.9-3.9.6-4.5 2-.8 4.5-.7 6.7.3 2 .9 2.1 2.7 1.9 4.6-.2 1.9-1.3 3-3.3 3s-3.7.1-3.1 2.7c.2 1.1-.5 1.3-1.4 1.3-1 0-1.4-.3-1.4-1.4.1-1.5 0-3.2 0-4.7"/><path id="Fill-7_1_" class="st0" d="M52.8 14c0 3.5.8 4.2 4.2 2.8 1.1-.4 1.1.2 1.5.7.5.7.5 1.1-.2 1.7-3 2.3-7.4.9-8.2-2.7-.3-1.6-.4-3-.1-4.6.7-4 4.8-5.6 8.1-3.2.7.5 1 .9.4 1.7-.4.6-.5 1.3-1.7.8-3.1-1.6-4-.9-4 2.8"/><path id="Fill-18_1_" class="st0" d="M65 7.8h3.2c1-.1 1.4.4 1.4 1.4 0 .8-.2 1.4-1.2 1.3-2-.3-2.1.9-2 2.3.1 1.9 0 3.8 0 5.7 0 1-.2 1.6-1.5 1.6-1.2 0-1.5-.5-1.4-1.6v-6.1c0-1.2-.1-2-1.6-1.9-1.1.2-1.6-.2-1.6-1.4 0-1.4.9-1.3 1.8-1.3H65"/><path id="Fill-20_1_" class="st0" d="M86.9 14.2c1.8.2 3.4-.2 3.4-2.2 0-2.4-1.9-2.3-3.7-2.5-2.4-.2-1.8 1.4-1.9 2.6-.3 1.7.4 2.4 2.2 2.1m-1-6.4c4.5 0 6.1 1.2 6.1 4.1 0 2.6-1.4 3.8-4.8 3.7-2-.1-2.9.4-2.6 2.5.1.6.5 1.8-.7 1.9-1.5 0-.8-1.3-.9-2-.1-2.3.1-4.6-.1-6.9-.2-2.6.4-4.1 3-3.3"/><path id="Fill-22_1_" class="st0" d="M114.7 13.9v-.5c0-6 .7-6.4 6.8-5.6.5.1 1.1.1 1.1.8s-.5.8-1 .8c-1.1 0-2.1.1-3.2 0-1.3-.1-2.1.2-2.1 1.8s.6 1.8 2 1.9c1.2.1 3.6-.9 3.5.7 0 1.8-2.4.7-3.6.8-1.6.1-1.9.6-1.9 2 .1 1.3 0 2.2 1.8 2 1.1-.1 2.3 0 3.4 0 .5 0 1.1-.1 1.1.7 0 .7-.4.9-1 .9h-5.8c-1.2 0-1.2-.7-1.2-1.6.1-1.6.1-3.2.1-4.7"/><path id="Fill-24_1_" class="st0" d="M75.5 20.1h-.6c-1.1-.2-3 0-2.8-1.3.2-1.7 1.7-.1 2.6-.3.5-.1 1 0 1.6 0 1.1 0 1.9-.3 2.1-1.5.2-1.1-.3-1.8-1.4-2.1-1.1-.5-2.3-.9-3.3-1.5-1.3-.7-1.8-1.8-1.6-3.2.3-1.5 1.2-2.3 2.6-2.4 1.3-.2 2.6-.3 3.9.3.4.2 1.2.2.9 1-.2.5-.5.9-1.2.7-1.6-.5-3.6-1.3-4.3.7-.8 2.3 1.9 2.1 3.2 2.8 1.9.9 3.3 2 2.8 4.3-.3 2.4-2.2 2.7-4.5 2.5"/><path id="Fill-26_1_" class="st0" d="M97.5 10.2c-.6 1.7-.9 2.8-1.5 4-.5 1.2-.4 1.7 1.1 1.7 1.7 0 2.8-.1 1.7-2.1-.4-1-.7-2.1-1.3-3.6m4.4 9.8c-.9 0-1.1-.5-1.4-1-1.6-2.7-4.4-2.7-6.1.1-.3.6-.7 1.1-1.4.8-1-.4-.3-1-.1-1.5 1.1-3.1 2.3-6.2 3.5-9.4.2-.5.3-1.3 1.1-1.3 1-.1 1.1.8 1.3 1.4 1.2 3.1 2.3 6.2 3.5 9.3.2.8.6 1.5-.4 1.6"/><path id="Fill-28_1_" class="st0" d="M108.7 20.2c-2.8 0-4.3-1.2-4.6-3.6-.2-1.8-.6-3.5-.1-5.4.9-3.4 4.9-4.9 7.7-2.6.4.3 1 .5.6 1.2s-.9.8-1.5.4c-1.6-1-3.2-1.5-4.5.5-1 1.6-.8 6.3.4 7.3 1.4 1.1 2.8.8 4.1-.1.5-.3.9-.6 1.3 0 .6.8-.1 1.1-.5 1.4-1 .7-2.1.9-2.9.9"/><path id="Fill-30_1_" class="st0" d="M12.8 14v4.3c0 1 .1 1.9-1.4 1.8-1.3 0-1.4-.7-1.3-1.7V9.5c0-.9 0-1.7 1.3-1.7 1.5 0 1.5.8 1.5 1.8-.1 1.4-.1 2.9-.1 4.4"/><path id="Fill-26_2_" class="st0" d="M43.7 10.1c-.6 1.7-.9 2.8-1.5 4-.5 1.2-.4 1.7 1.1 1.7 1.7 0 2.8-.1 1.7-2.1-.4-1.1-.7-2.2-1.3-3.6m4.4 9.7c-.9 0-1.1-.5-1.4-1-1.6-2.7-4.4-2.7-6.1.1-.3.6-.7 1.1-1.4.8-1-.4-.3-1-.1-1.5 1.1-3.1 2.3-6.2 3.5-9.4.2-.5.3-1.3 1.1-1.3 1-.1 1.1.8 1.3 1.4 1.2 3.1 2.3 6.2 3.5 9.3.2.8.6 1.5-.4 1.6"/></g></g></g><path class="st0" d="M12.7 0H.1v12.3h2.8V2.7h9.8zM12.7 28.3H.1V16h2.8v9.6h9.8zM120.5 0H133.1v12.3h-2.8V2.7h-9.8zM120.5 28.3H133.1V16h-2.8v9.6h-9.8z"/></svg>