<svg id="Layer_1" xmlns="http://www.w3.org/2000/svg" viewBox="0 0 59 59"><style>.st0{fill:#5a758d}</style><path class="st0" d="M58.9 58.2L51 48.3V36.5c0-4.4-3.2-8.1-8-12.2V3.5C43 1.6 41.4 0 39.5 0h-36C1.6 0 0 1.6 0 3.5v44C0 49.4 1.6 51 3.5 51h36.8c1 3.2 4.7 7.6 4.8 7.8.1.1.2.2.4.2.1 0 .2 0 .3-.1.2-.2.2-.5.1-.7-1.2-1.4-4-5.2-4.7-7.7v-.2c-.2-.3-.2-.6-.2-.8v-2.2l-6.1-8.2c-.8-.8-.8-2.5 0-3.3.8-.8 2.5-.8 3.3 0l4 4 2 2c.2.2.5.2.7 0s.2-.5 0-.7L43 39.3V25.6c4.2 3.7 7 7 7 10.9v12.2l8.1 10.1c.1.1.2.2.4.2.1 0 .2 0 .3-.1.2-.2.3-.5.1-.7zM36 34.3c-.7.1-1.4.4-1.9.9-.6.6-.9 1.4-.9 2.4s.3 1.8.8 2.3l1.7 2.2L7 42V7h29v27.3zm6 4l-3.1-3.1c-.5-.5-1.1-.8-1.9-.9V6H6v37h30.5l3.5 4.7V50H3.5C2.1 50 1 48.9 1 47.5v-44C1 2.1 2.1 1 3.5 1h36C40.9 1 42 2.1 42 3.5v34.8z"/><path class="st0" d="M17.5 46h8v1h-8zM12.5 20h18v1h-18zM12.5 16h18v1h-18zM12.5 28h18v1h-18zM12.5 24h18v1h-18zM12.5 32h18v1h-18zM12.5 12h10v1h-10z"/><circle class="st0" cx="14.7" cy="46.5" r="1.3"/><circle class="st0" cx="28.2" cy="46.5" r="1.3"/></svg>