<svg id="Layer_1" xmlns="http://www.w3.org/2000/svg" viewBox="0 0 13 13"><style>.st0{fill-rule:evenodd;clip-rule:evenodd;fill:#cdcccc}</style><path class="st0" d="M8.4 10.2H4.7v-.3c.2 0 .4-.1.5-.1.1 0 .2-.1.3-.1.1-.1.1-.1.2-.3 0-.1.1-.3.1-.6V6.5v-.6c0-.1-.1-.3-.1-.3s-.3-.1-.4-.1c-.2 0-.4-.1-.6-.1v-.3H7.5v3.8c0 .3 0 .5.1.6 0 .1.1.2.3.3.1.1.4.1.7.2v.2zM6.3 2.1c.6 0 1.1.5 1.1 1.1 0 .6-.5 1.1-1.1 1.1-.6 0-1.1-.5-1.1-1.1 0-.6.5-1.1 1.1-1.1zM6.5 0C2.9 0 0 2.9 0 6.5S2.9 13 6.5 13 13 10.1 13 6.5 10.1 0 6.5 0z"/></svg>