<svg id="Layer_1" xmlns="http://www.w3.org/2000/svg" viewBox="0 0 16 18"><style>.st0{fill:#fff}</style><title>Page 1</title><g id="Page-1_1_"><g id="Landing-Page-1" transform="translate(-1166 -670)"><g id="Group-4" transform="translate(881 655)"><g id="Page-1" transform="translate(285 15)"><path id="Fill-1" class="st0" d="M2.6 6c.7-.7 1.4-1.5 2-2.2-.3-.4-.4-.8-.3-1.2.1-.4.2-.6.5-.9.5-.5 1.2-.6 1.8-.2.7.4.9 1.1.6 2 .5.3 1 .6 1.5.8.3-.4.7-.6 1.1-.6.5 0 .9.1 1.2.4.6-.5 1.2-1 1.8-1.6-.4-1-.3-1.8.5-2.2.7-.4 1.5-.3 2 .3s.5 1.4 0 2c-.6.6-1.4.7-2.2.2-.6.5-1.2 1-1.8 1.6.4.9.3 1.6-.3 2.1-.5.4-1.2.5-1.8.1-.6-.4-.8-1-.6-1.9-.5-.4-1-.7-1.5-.9H7c-.8.7-1.2.7-2.1.3-.7.7-1.4 1.5-2 2.2.3.4.5.8.3 1.3-.1.4-.3.7-.6.9-.6.5-1.5.4-2-.1-.6-.6-.7-1.4-.2-2 .5-.7 1.3-.8 2.2-.4zM15 1.6c0-.5-.4-.8-.8-.9-.5 0-.9.4-.9.8 0 .5.4.9.9.9.4.1.8-.3.8-.8zM6.7 2.8c0-.5-.4-.8-.9-.8s-.8.3-.8.8.4.9.9.9c.4-.1.8-.4.8-.9zm2.4 2.4c0 .5.4.9.8.9.5 0 .9-.4.9-.8 0-.5-.4-.8-.8-.9-.5 0-.9.3-.9.8zM2.5 7.3c0-.5-.4-.8-.9-.8s-.9.4-.9.8c0 .5.4.9.9.9.5-.1.9-.5.9-.9z"/><path id="Fill-2" class="st0" d="M13.3 5.9v11.5c0 .2 0 .2.2.2h1.3c.2 0 .2-.1.2-.2V5.9h-1.7z"/><path id="Fill-3" class="st0" d="M5 8v9.3c0 .2.1.2.2.2h1.2c.2 0 .3 0 .3-.2V8H5z"/><path id="Fill-4" class="st0" d="M9.1 10v7.4c0 .1 0 .2.2.2h1.3c.2 0 .2 0 .2-.2V10H9.1z"/><path id="Fill-5" class="st0" d="M.8 12.1v5.2c0 .2.1.2.2.2h1.3c.2 0 .2 0 .2-.2V12.1H.8z"/></g></g></g></g></svg>