<svg id="Layer_1" xmlns="http://www.w3.org/2000/svg" viewBox="0 0 70 64"><style>.st0{fill:#5a758d}.st1{fill:#fff}.st2,.st3{fill:#56c0a4}.st3{fill-rule:evenodd;clip-rule:evenodd}</style><path class="st0" d="M39.1 28.5c0 .3.2.5.5.5s.5-.2.5-.5c0-3.4-2.6-6.2-6-6.5v-3.5c0-.3-.2-.5-.5-.5s-.5.2-.5.5V22c-3.4.3-6 3.1-6 6.5s2.6 6.2 6 6.5v11c-2.8-.3-5-2.6-5-5.5 0-.3-.2-.5-.5-.5s-.5.2-.5.5c0 3.4 2.6 6.2 6 6.5v3.5c0 .3.2.5.5.5s.5-.2.5-.5V47c3.4-.3 6-3.1 6-6.5s-2.6-6.2-6-6.5V23c2.8.3 5 2.6 5 5.5zm-11 0c0-2.9 2.2-5.2 5-5.5v11c-2.8-.3-5-2.6-5-5.5zm11 12c0 2.9-2.2 5.2-5 5.5V35c2.8.3 5 2.6 5 5.5z"/><path class="st0" d="M33.6 5C17.3 5 4.1 18.2 4.1 34.5S17.3 64 33.6 64s29.5-13.2 29.5-29.5S49.8 5 33.6 5zm0 58C17.9 63 5.1 50.2 5.1 34.5S17.9 6 33.6 6s28.5 12.8 28.5 28.5S49.3 63 33.6 63z"/><circle class="st1" cx="55.1" cy="11" r="10.5"/><path class="st2" d="M55.1 22c-6.1 0-11-4.9-11-11S49 0 55.1 0s11 4.9 11 11-5 11-11 11zm0-21c-5.5 0-10 4.5-10 10s4.5 10 10 10 10-4.5 10-10-4.5-10-10-10z"/><path class="st3" d="M59.3 9.9l-3.8-3.2c-.2-.2-.6-.2-.8 0l-3.8 3.2c-.1.1-.2.3-.2.4 0 .2 0 .3.1.4.1.1.3.2.5.2.1 0 .3-.1.4-.1l2.8-2.4v6.3c0 .3.3.6.6.6s.6-.3.6-.6V8.4l2.8 2.4c.1.1.2.1.4.1s.3-.1.5-.2c.1-.1.2-.3.1-.4 0-.1-.1-.2-.2-.4z"/></svg>