<svg id="Layer_1" xmlns="http://www.w3.org/2000/svg" xmlns:xlink="http://www.w3.org/1999/xlink" viewBox="0 0 70 64"><style>.st0{fill:#5a758d}.st1{fill-rule:evenodd;clip-rule:evenodd;fill:#fff}.st2{clip-path:url(#SVGID_2_)}.st3{clip-path:url(#SVGID_4_);fill:#f3735f}.st4{fill:#de8f5a}</style><path class="st0" d="M58.6 23.5H33.8l8.1-8.1c.2-.2.2-.5 0-.7l-5-5c-.2-.2-.5-.2-.7 0L32 13.9l-3.1-3.2c-.1-.1-.2-.2-.4-.2-.1 0-.3.1-.4.1l-8 8c-.2.2-.2.5 0 .7.1.1.2.1.4.1s.3 0 .4-.1l7.6-7.6 2.7 2.9-8.9 8.9H.6c-.3 0-.5.2-.5.5v32c0 .3.2.5.5.5h58c.3 0 .5-.2.5-.5V24c0-.3-.2-.5-.5-.5zM8.8 39l3.8 3.8-5.3 1.5L8.8 39zm4.8 3.3L9.3 38l13.6-13.6 4.6-4.6 4.3 4.3-18.2 18.2zm23-31.6l4.3 4.3-8.3 8.3-4.3-4.3 8.3-8.3zm21.5 44.8h-57v-31h20.3L8.2 37.6c-.1.1-.1.1-.1.2l-2 7c0 .2 0 .4.1.5.1.1.2.1.4.1h.1l7-2c.1 0 .1-.1.2-.1l18.9-18.9h25.3v31.1z"/><path class="st0" d="M50.6 45.5h-30c-.3 0-.5.2-.5.5s.2.5.5.5h30c.3 0 .5-.2.5-.5s-.2-.5-.5-.5zM30.6 37.5c-.3 0-.5.2-.5.5s.2.5.5.5h20c.3 0 .5-.2.5-.5s-.2-.5-.5-.5h-20z"/><circle class="st1" cx="59.1" cy="18.5" r="10.5"/><g><defs><path id="SVGID_1_" d="M63.3 19.6l-3.8 3.2c-.2.2-.6.2-.8 0l-3.8-3.2c-.1-.1-.2-.3-.2-.4 0-.2 0-.3.1-.4.1-.1.3-.2.5-.2.1 0 .3.1.4.1l2.8 2.4v-6.3c0-.3.3-.6.6-.6s.6.3.6.6v6.3l2.8-2.4c.1-.1.2-.1.4-.1s.3.1.5.2c.1.1.2.3.1.4 0 .1-.1.2-.2.4z"/></defs><clipPath id="SVGID_2_"><use xlink:href="#SVGID_1_" overflow="visible"/></clipPath><g class="st2"><defs><path id="SVGID_3_" d="M-1125.4-578h1650V892h-1650z"/></defs><clipPath id="SVGID_4_"><use xlink:href="#SVGID_3_" overflow="visible"/></clipPath><path class="st3" d="M49.7 9.1h18.8v18.8H49.7z"/></g></g><path class="st4" d="M59.1 29.5c-6.1 0-11-4.9-11-11s4.9-11 11-11 11 4.9 11 11-5 11-11 11zm0-21c-5.5 0-10 4.5-10 10s4.5 10 10 10 10-4.5 10-10-4.5-10-10-10z"/></svg>