<svg id="Layer_1" xmlns="http://www.w3.org/2000/svg" viewBox="0 0 23 22"><style>.st0{fill:#fff}</style><title>Page 1</title><g id="Page-1_1_"><g id="Landing-Page-1" transform="translate(-1500 -668)"><g id="Group-3" transform="translate(1218 655)"><g id="Page-1" transform="translate(282 13)"><path id="Fill-1" class="st0" d="M22.7 14.7c-.2-.5-.7-.8-1.2-.7-.2 0-.3.1-.4.3L16 12.5c.1-.3.1-.6.1-1 0-1.6-.7-3-1.9-3.9l4.1-5.4h.1c.5 0 1-.4 1-1 0-.5-.4-1-1-1-.5 0-1 .4-1 1 0 .2.1.3.1.5l-4.1 5.4c-.8-.4-1.6-.7-2.6-.7-1.6 0-3 .7-4 1.8L5 7v-.1c0-.5-.4-1-1-1-.5 0-1 .4-1 1 0 .5.4 1 1 1 .2 0 .4-.1.5-.1L6.4 9c-.5.7-.7 1.6-.7 2.5 0 .6.1 1.1.3 1.6l-4.3 2s-.1 0-.1-.1c-.5-.2-1.1-.1-1.3.4-.3.5-.1 1 .4 1.3.5.2 1.1.1 1.3-.4.1-.2.1-.3.1-.5l4.2-2c.8 1.5 2.4 2.5 4.2 2.6v3.4s-.1 0-.1.1c-.4.3-.5.9-.2 1.3s.9.5 1.4.2c.4-.3.5-.9.2-1.3-.1-.1-.3-.2-.4-.3v-3.4c2-.2 3.6-1.5 4.3-3.2l5.1 1.8v.1c.2.5.7.8 1.2.7.5-.1.8-.6.7-1.1zm-11.9 1.1c-2.4 0-4.4-1.9-4.4-4.3 0-2.3 2-4.3 4.4-4.3 2.4 0 4.4 1.9 4.4 4.3s-2 4.3-4.4 4.3z"/><path id="Fill-2" class="st0" d="M10.8 8.4c-1.8 0-3.2 1.4-3.2 3.1s1.4 3.1 3.2 3.1 3.2-1.4 3.2-3.1-1.4-3.1-3.2-3.1z"/></g></g></g></g></svg>