<svg width="1290" height="1238" viewBox="522 253 1290 1238" xmlns="http://www.w3.org/2000/svg"><g opacity=".158" fill="#8199B0" fill-rule="evenodd"><path d="M672.456 844.527l50.06-171.317-90.847 55.345 40.787 115.972zm.095 4.747c-.477 0-.922-.333-1.055-.792l-42.221-120.03a1.118 1.118 0 0 1 .466-1.32l94.055-57.308a1.09 1.09 0 0 1 .59-.172c.258 0 .505.093.696.257.343.297.481.742.36 1.156l-51.838 177.401c-.114.441-.508.765-.996.806l-.029.002h-.028z"/><path d="M723.265 911.891v-233.37l-49.491 169.394 49.491 63.976zm1.104 4.368c-.293 0-.575-.129-.818-.367l-51.874-67.05c-.22-.251-.3-.643-.199-.995l51.833-177.396c.166-.49.589-.796 1.062-.796l.172.011c.542.084.942.543.942 1.092V915.14c0 .45-.288.864-.72 1.036l-.117.046-.28.036zM1321.66 582.674l61.298-125.627-122.597-71.47 61.3 197.097zm-.259 4.099c-.449 0-.84-.282-1.02-.734l-62.986-202.535c-.123-.44.01-.9.341-1.188.24-.178.481-.259.727-.259.207 0 .41.06.582.172l125.919 73.424c.49.287.685.878.47 1.401l-63 129.1c-.171.375-.558.619-.999.619h-.034zM1092.917 620.968l-3.668-186.911-149.885 63.99 153.553 122.921zm1.144 3.464c-.284 0-.547-.106-.742-.294l-156.77-125.502a1.053 1.053 0 0 1-.405-1.084c.032-.293.27-.62.602-.79l153.13-65.393c.112-.057.277-.097.44-.097.223 0 .439.07.622.2.277.154.489.517.489.89l3.752 190.921c0 .437-.246.842-.614 1.026-.155.08-.331.123-.504.123zM674.656 521.793l77.78-4.29v-82.225l-77.78 86.515zm-2.634 2.373c-.432 0-.81-.253-.989-.66-.216-.385-.127-.934.24-1.252l81.455-90.615c.208-.234.509-.372.825-.372h.125l.277.075c.433.176.697.572.697 1.039v86.185c0 .584-.443 1.057-1.032 1.099l-81.543 4.501h-.055z"/><path d="M754.652 516.758l70.977-35.767-70.977-46.563v82.33zm-1.117 2.91c-.222 0-.432-.07-.61-.205a1.064 1.064 0 0 1-.489-.897V432.38c0-.385.205-.754.536-.962.243-.116.407-.15.572-.15.237 0 .462.074.65.216l74.259 48.716c.324.181.532.6.487 1.015.001.335-.23.708-.6.897l-74.298 37.433a1.122 1.122 0 0 1-.507.123zM977.368 344.843l111.031-50.345-95.617-25.324-15.414 75.669zm-1.542 3.026a1.08 1.08 0 0 1-.695-.256 1.143 1.143 0 0 1-.4-1.01l16.083-79.03c.09-.321.26-.556.489-.713.238-.122.422-.166.602-.166h.108l.225.053 99.733 26.39c.432.117.75.468.833.92.01.589-.26 1.001-.681 1.171l-115.829 52.544c-.121.097-.347.097-.468.097zM858.613 1364.764l-62.1-53.47-19.524 25.6 81.624 27.87zm4.909 4.023l-.284-.115-88.425-30.172a1.09 1.09 0 0 1-.705-.736 1.253 1.253 0 0 1 .131-.916l21.228-27.842c.144-.219.419-.383.748-.429.019-.002.038-.002.059-.002.356 0 .589.09.782.246l67.348 58.016c.398.32.512.904.252 1.375-.159.337-.547.575-.966.575h-.168z"/><path d="M769.813 1329.03l-46.314-94.559-65.848-44.685 112.162 139.244zm5.373 9.54c-.317 0-.646-.158-.86-.416l-123.063-152.756c-.328-.463-.301-1.054.038-1.432.218-.242.507-.372.825-.372.218 0 .432.064.622.181L725 1232.788c.176.153.29.26.371.414l50.81 103.764c.263.487.074 1.143-.432 1.44a1.14 1.14 0 0 1-.564.164z"/><path d="M775.394 1335.356l19.505-25.604-66.313-69.993 46.808 95.597zm-.263 3.214c-.437-.05-.765-.286-.94-.622l-50.803-103.742c-.239-.471-.108-1.044.324-1.388.214-.15.426-.214.65-.214.3 0 .592.121.808.337l71.988 75.975c.362.365.408.963.097 1.41l-21.19 27.807c-.237.284-.55.437-.879.437h-.055zM668.158 1110.974l3.235-259.676-59.266 72.255 56.031 187.42zm1.01 8.407c-.472 0-.898-.314-1.063-.777l-58.279-194.975a1.183 1.183 0 0 1 .212-1.031l61.65-75.138c.154-.24.485-.414.845-.414h.125l.278.076c.468.189.758.643.71 1.103l-3.361 270.048c-.038.47-.3.843-.667 1.006l-.068.083-.382.019z"/><path d="M721.61 1230.489l-52.13-108.985-16.087 62.72 68.218 46.265zm2.76 4.333c-.254 0-.485-.11-.551-.144l-72.307-49.06a1.11 1.11 0 0 1-.467-1.157l17.042-66.467c.114-.432.459-.751.906-.836l.062-.012.102-.002c.453 0 .856.261 1.025.674l55.205 115.408c.182.508.083.98-.233 1.3-.318.224-.545.296-.784.296z"/><path d="M670.404 1109.544l52.747-194.152-49.544-64.031-3.203 258.183zm-1.55 9.837l-.08-.085a1.09 1.09 0 0 1-.707-1.033l3.366-270.114c0-.484.33-.921.8-1.048l.088-.024.233-.027c.32 0 .627.142.846.394l51.857 67.011c.208.239.294.59.214.94l-55.228 203.16a1.122 1.122 0 0 1-1.075.826h-.315zM610.52 915.827l18.464-185.56-49.372 31.822 30.907 153.738zm.38 8.589a1.087 1.087 0 0 1-1.093-.912l-32.511-161.718a1.152 1.152 0 0 1 .445-1.133l51.978-33.5a1.082 1.082 0 0 1 1.182-.023c.393.251.596.705.507 1.132l-19.414 195.155a1.077 1.077 0 0 1-1.075.999h-.02z"/><path d="M612.355 919.753l58.92-71.814-40.342-114.782-18.578 186.596zm-1.457 4.662c-.092 0-.316 0-.534-.138-.361-.117-.65-.62-.554-1.133l19.413-195.185c-.004-.482.424-.93.99-.978l.025-.002c.574 0 .976.29 1.129.717L673.596 847.8c.104.393.041.747-.156 1.023l-61.695 75.177c-.146.229-.494.416-.847.416z"/><path d="M633.51 724.827l89.878-54.742 27.864-145.43-117.741 200.172zm-3.187 4.348c-.27 0-.52-.085-.725-.246-.424-.42-.492-.98-.231-1.422l123.215-209.519c.244-.353.592-.535.96-.535.147 0 .291.029.428.085.464.152.767.67.672 1.213L725.475 670.97c-.112.391-.312.641-.576.768l-94.002 57.288c-.204.149-.443.149-.574.149zM862.55 1365.226l-1.845-120.627-62.733 65.01 64.578 55.617zm1.14 3.561a1.06 1.06 0 0 1-.748-.3l-67.311-57.97a1.04 1.04 0 0 1-.39-.812c-.042-.225.076-.558.316-.8l65.415-67.795c.261-.237.538-.345.814-.345h.14l.279.091c.409.163.674.56.674 1.025l1.926 125.781c0 .439-.252.832-.644 1.012-.083.059-.273.113-.471.113z"/><path d="M864.778 1366.142l118.986-39.644-120.829-82.494 1.843 122.138zm-1.089 2.644a1.21 1.21 0 0 1-.59-.172c-.357-.255-.527-.577-.527-.925l-1.892-125.797c0-.428.212-.793.568-.991.21-.095.373-.135.538-.135.24 0 .464.076.653.216l124.435 84.946c.375.278.537.7.45 1.12-.038.354-.327.704-.729.84l-122.658 40.864-.248.034zM612.706 1100.475L609.837 927.1l-30.25 48.653 33.12 124.722zm1.263 10.189c-.5 0-.943-.339-1.08-.817l-35.567-133.978a1.056 1.056 0 0 1 .12-.882l32.507-52.264c.197-.33.547-.53.932-.53h.104l.246.057c.413.08.769.528.769 1.05l3.087 186.233a1.14 1.14 0 0 1-.94 1.12l-.055.01h-.123z"/><path d="M1017.854 1431.875l-32.345-103.611-118.686 39.533 151.031 64.078zm1.687 3.072l-.208-.042-156.074-66.204c-.411-.16-.686-.575-.686-1.05.044-.526.356-.91.792-1.038l122.625-40.851.267-.025c.165 0 .324.038.474.113.26.108.486.362.581.683l33.371 106.976c.137.326.057.759-.23 1.097l-.058.066-.073.05a1.19 1.19 0 0 1-.69.225h-.09zM577.135 761.846l52.315-164.055 2.146.64-52.368 164.119zM1091.709 293.059l134.314-30.377-226.36 6.017 92.046 24.36zm-.099 2.25l-.187-.018-99.794-26.422c-.503-.123-.863-.622-.827-1.155.093-.615.555-1.02 1.102-1.02l245.34-6.53c.64.037 1.055.396 1.144.941.051.617-.312 1.114-.854 1.239l-145.658 32.966h-.266zM1101.89 1483.786l235.38-12.133-135.152-22.246-100.227 34.38zm-7.828 2.633a1.11 1.11 0 0 1-1.093-.93c-.12-.498.193-1.05.74-1.236l108.047-37.064.237-.025c.07 0 .142.008.222.021l145.57 23.95c.57.124.94.584.94 1.125-.049.628-.528 1.082-1.1 1.082l-253.508 13.077h-.055z"/><path d="M1201.048 1446.458l12.028-140.449-223.224 21.606 211.196 118.843zm.977 2.935c-.24 0-.42-.092-.519-.138l-215.819-121.449c-.401-.196-.629-.677-.534-1.172.076-.46.481-.836.964-.886 0 0 228.085-22.078 228.1-22.078.364 0 .597.09.815.272.3.331.398.645.356.959l-12.264 143.465c.001.324-.22.69-.563.886a1.171 1.171 0 0 1-.536.141z"/><path d="M1094.232 1484.076l102.373-35.116-172.946-13.683 70.573 48.8zm-.17 2.342c-.231 0-.464-.08-.652-.227l-74.4-51.43c-.429-.305-.595-.827-.42-1.3.156-.435.57-.734 1.037-.734l182.488 14.434c.498.04.909.424 1.001.942a1.102 1.102 0 0 1-.723 1.21l-108.08 37.073-.251.032z"/><path d="M1197.085 1446.763L988.12 1329.185l32.36 103.602 176.604 13.976zm-177.543-11.82a1.113 1.113 0 0 1-.966-.79L985.17 1327.18c-.105-.484.037-.915.352-1.19a1.154 1.154 0 0 1 1.242-.122l215.812 121.443c.447.27.653.776.528 1.266-.202.52-.625.817-1.081.817l-182.482-14.45zM1801.203 808.647l-20.05-79.01-14.079 63.968 34.129 15.042zm1.638 3.04c-.146 0-.26-.03-.337-.051l-37.159-16.376a1.106 1.106 0 0 1-.64-1.266l15.298-69.421c.091-.494.544-.87 1.069-.87.507 0 .95.34 1.079.825l21.756 85.776a1.06 1.06 0 0 1-.392 1.15 1.048 1.048 0 0 1-.674.233zM1527.515 1338.253l115.8-117.716-179.204 41.215 63.404 76.5zm-.093 2.769c-.415-.051-.7-.22-.867-.473l-65.31-78.762c-.244-.338-.3-.709-.19-1.059.142-.372.428-.624.772-.717l184.774-42.515.174-.014c.388 0 .746.212.956.562a1.15 1.15 0 0 1-.14 1.307l-119.345 121.33a1.14 1.14 0 0 1-.805.34h-.019z"/><path d="M1466.54 1258.925l179.388-41.275 51.817-145.61-231.205 186.885zm-4.433 3.263c-.447 0-.839-.256-1.01-.649a1.106 1.106 0 0 1 .33-1.326l237.983-192.361c.172-.157.432-.255.706-.255a1.112 1.112 0 0 1 1.053 1.48l-53.362 149.897c-.065.314-.38.615-.794.706l-184.724 42.49-.182.018z"/><path d="M1534.469 1334.348l136.727-82.962-24.525-31.107-112.202 114.069zm-7.028 6.673a1.16 1.16 0 0 1-.856-.409 1.121 1.121 0 0 1 .064-1.488l119.327-121.306c.212-.208.507-.321.823-.321.313 0 .622.153.828.403l26.09 33.098c.195.229.284.539.236.853-.077.357-.254.615-.502.775l-145.42 88.228c-.225.118-.408.167-.59.167zM1381.122 453.403l-80.194-129.29-40.877 58.704 121.07 70.586zm3.297 4.305c-.134 0-.388 0-.632-.189l-125.897-73.395c-.229-.114-.435-.369-.517-.683-.057-.369.004-.65.157-.883l42.557-61.079c.14-.31.536-.416.702-.463l.086-.02.12-.01c.393 0 .755.208.946.545l83.408 134.503c.273.394.23.939-.121 1.33-.224.227-.51.344-.809.344z"/><path d="M1649.782 1213.444l114.469-131.474-63.414-11.99-51.055 143.464zm-3.02 6.268c-.238 0-.454-.072-.628-.206-.39-.227-.593-.776-.42-1.268l53.347-149.902c.188-.463.6-.74 1.06-.74l.18.014 66.277 12.538c.403.09.706.362.835.734.129.348.05.778-.21 1.08l-119.592 137.368a1.094 1.094 0 0 1-.848.382z"/><path d="M1672.68 1249.667l87.745-159.928-112.206 128.895 24.46 31.033zm.166 3.117c-.343 0-.647-.142-.861-.395l-26.096-33.102c-.318-.456-.297-1.006.027-1.405l119.614-137.377c.184-.233.493-.379.824-.379.227 0 .453.068.637.199.49.35.625.999.316 1.477l-93.476 170.411c-.18.346-.547.571-.949.571h-.036zM1765.825 788.921l14.066-63.88-39.114-57.868 25.048 121.748zm-.038 6.433c-.515 0-.95-.34-1.081-.846l-27.249-132.37c-.089-.535.176-1.036.644-1.244a1.142 1.142 0 0 1 1.373.4l42.532 62.893c.16.242.222.522.178.817l-15.31 69.48c-.138.53-.572.87-1.087.87z"/><path d="M1776.722 716.383l-45.66-121.389 8.56 66.509 37.1 54.88zm4.37 9.536c-.38 0-.713-.172-.929-.473l-42.535-62.914c-.1-.161-.135-.3-.163-.401l-9.83-76.322a1.154 1.154 0 0 1 .783-1.203l.102-.032.216-.011c.483 0 .892.291 1.045.745l52.348 139.123c.184.558-.055 1.12-.551 1.365-.097.068-.288.123-.487.123z"/><path d="M1736.84 657.315l-9.154-71.039-76.367-58.358 85.522 129.397zm1.703 5.718c-.34 0-.68-.18-.901-.479l-91.8-138.896c-.292-.416-.235-1.013.146-1.405a1.09 1.09 0 0 1 .767-.318c.254 0 .502.09.704.25l81.95 62.593c.25.21.392.46.434.747l9.814 76.239c.049.54-.252 1.021-.722 1.195l-.11.04-.282.034z"/><path d="M1687.425 755.486l-41.141-228.8-57.124 121.945 98.265 106.855zm1.758 4.68a1.14 1.14 0 0 1-.786-.34l-101.375-110.242c-.288-.248-.394-.73-.212-1.182l58.949-125.824a1.143 1.143 0 0 1 1.028-.647c.639.1.998.46 1.084.935l42.418 235.994a1.1 1.1 0 0 1-.591 1.179 1.178 1.178 0 0 1-.515.126z"/><path d="M1700.926 1060.498l63.563-265.626-74.115-34.057 10.552 299.683zm-.856 9.317c-.621-.047-1.068-.53-1.068-1.097l-10.92-309.63c0-.394.174-.732.472-.948.22-.138.426-.2.64-.2.166 0 .327.037.477.111l76.587 35.18c.477.218.734.752.611 1.264l-65.68 274.463c-.083.48-.537.857-1.068.857h-.05z"/><path d="M1689.698 755.59l47.577-93.595-88.45-133.832 40.873 227.426zm-.568 4.575c-.593-.1-.95-.452-1.038-.91l-42.418-236.017a1.101 1.101 0 0 1 .703-1.23l.113-.04.271-.026c.37 0 .718.18.93.484l91.794 138.883c.208.338.23.715.076 1.08l-49.386 97.167c-.174.365-.57.609-.992.609h-.053z"/><path d="M1764.262 792.319l-26.16-127.084-47.404 93.288 73.564 33.796zm1.445 3.034l-.291-.059-.099-.038-76.586-35.188c-.31-.197-.474-.386-.574-.61-.125-.362-.091-.68.072-.956l49.338-97.095c.146-.354.536-.615.977-.615l.186.017c.44.082.787.396.907.821l27.237 132.386a1.09 1.09 0 0 1-.415 1.102c-.18.15-.417.235-.67.235h-.082zM1384.997 455.445l148.41-12-229.357-118.5 80.947 130.5zm-.578 2.264c-.432 0-.807-.223-.98-.582l-83.39-134.432a1.133 1.133 0 0 1 .119-1.347c.237-.238.511-.353.805-.353.193 0 .388.052.557.157l236.331 122.107c.432.217.672.698.589 1.188-.13.516-.523.857-.99.898l-152.98 12.364h-.061z"/><path d="M1641.892 518.177l-111.48-155.028 8 80.477 103.48 74.55zm4.87 5.99c-.243 0-.48-.089-.68-.255l-109.373-78.777a1.109 1.109 0 0 1-.457-.756l-8.454-85.132c-.047-.51.248-.967.731-1.14.11-.046.246-.072.388-.072.368 0 .703.174.898.467L1647.67 522.4a1.108 1.108 0 0 1-.129 1.434 1.075 1.075 0 0 1-.778.333zM528.016 741.039l.783-2.098 50.453 19.33-.837 2.041zM562.509 1121.469l52.186-14.01.527 2.141-52.107 14.027zM725.005 386.465l1.917-1.161 27.53 46.44-1.923 1.084z"/><path d="M1645.853 521.914l129.533-127.044 1.572 1.598-129.616 127.078zM723.878 915.725l1.468-1.647 41.12 34.904-1.435 1.721zM1444.079 1379.443l15.266-119.111 2.19.333-15.229 119.043zM1672.375 1253.666l.09-2.205 79.884 4.558-.159 2.232zM1093.319 625.19a1.052 1.052 0 0 1-.174-2.088l227.062-38.1c.569-.084 1.116.29 1.21.862a1.05 1.05 0 0 1-.861 1.213l-227.061 38.097a.95.95 0 0 1-.176.015M1321.66 583.726c-.196 0-.399-.057-.575-.172L1089.3 432.25a1.052 1.052 0 1 1 1.151-1.76l231.784 151.305c.489.318.623.968.305 1.454a1.05 1.05 0 0 1-.88.477M1259.046 383.28c-.127 0-.258-.023-.38-.07l-142.125-55.101a1.051 1.051 0 0 1 .348-2.032l185.022-5.597a1.07 1.07 0 0 1 1.083 1.02 1.055 1.055 0 0 1-1.02 1.082l-179.839 5.44 137.29 53.228a1.05 1.05 0 0 1-.38 2.03M1587.921 649.27l-50.53-205.395 2.043-.5 50.529 205.394zM866.393 521.7L973.62 413.71l-66.678-26.035-40.55 134.025zm-3.426 4.207c-.03-.133-.09-.375.038-.658l42.16-139.371c.053-.248.256-.505.544-.66.346-.14.632-.148.895-.053l69.385 27.116c.333.064.528.421.613.575l.04.077.038.114c.093.382-.028.78-.31 1.046L864.814 526.42c-.318.356-.86.441-1.324.191a1.121 1.121 0 0 1-.524-.705zM1401.36 1325.096l-223.74 64.072 127.261 44.396 96.48-108.468zm4.48-2.22c.03.28-.065.585-.253.814l-99.54 111.901c-.213.313-.681.464-1.155.33l-131.31-45.813a1.138 1.138 0 0 1-.747-.96c.033-.642.357-1.041.819-1.172l230.776-66.071c.457-.135.968.058 1.231.473.108.174.163.332.178.497zM1386.62 1385.49l-23.097 44.359 76.23-4.599-53.133-39.76zm-24.888 46.571c-.356 0-.688-.18-.881-.478a1.043 1.043 0 0 1-.053-1.057l24.529-47.105c.142-.274.4-.47.7-.54.305-.069.618-.003.864.185l56.42 42.218c.353.265.501.721.374 1.145a1.048 1.048 0 0 1-.941.745l-80.948 4.884c-.02.003-.044.003-.064.003zM978.219 438.268l54.489 59.673V391.637l-54.49 46.631zm55.54 63.437c-.29 0-.576-.119-.778-.344l-57.048-62.476a1.046 1.046 0 0 1 .095-1.507l57.047-48.824c.31-.265.75-.327 1.125-.155.371.17.612.543.612.955v111.3a1.05 1.05 0 0 1-1.053 1.051z"/><path d="M1586.74 649.669a.95.95 0 0 1-.24-.029l-264.31-62.464a1.05 1.05 0 1 1 .485-2.043l260.485 61.56-200.096-188.41a1.05 1.05 0 1 1 1.445-1.528l202.954 191.098a1.052 1.052 0 0 1-.723 1.816M991.921 262.595c-2.879 0-5.223 2.328-5.223 5.2 0 2.87 2.344 5.214 5.223 5.214 2.875 0 5.225-2.344 5.225-5.215 0-2.87-2.35-5.2-5.225-5.2M1094.062 1479.872a5.437 5.437 0 0 0-5.433 5.43 5.433 5.433 0 0 0 5.433 5.425c2.996 0 5.434-2.432 5.434-5.425a5.438 5.438 0 0 0-5.434-5.43M1174.544 1383.908a5.436 5.436 0 0 0-5.434 5.428c0 2.992 2.437 5.425 5.434 5.425 2.996 0 5.435-2.433 5.435-5.425 0-2.994-2.44-5.428-5.435-5.428M1362.015 1425.584a5.436 5.436 0 0 0-5.433 5.428c0 2.993 2.437 5.425 5.433 5.425 2.998 0 5.436-2.432 5.436-5.425a5.437 5.437 0 0 0-5.436-5.428M1019.631 1429.367a4.48 4.48 0 0 0-4.486 4.479 4.49 4.49 0 0 0 4.486 4.482c2.49 0 4.487-2.01 4.487-4.482a4.468 4.468 0 0 0-4.487-4.48M986.24 1322.151c-2.614 0-4.718 2.1-4.718 4.691a4.704 4.704 0 0 0 4.717 4.712 4.703 4.703 0 0 0 4.714-4.712c0-2.591-2.104-4.69-4.714-4.69M1244.57 261.263c0-4.008-3.26-7.263-7.291-7.263-4.013 0-7.273 3.255-7.273 7.263 0 4.01 3.26 7.284 7.273 7.284 4.032 0 7.291-3.274 7.291-7.284M1091.697 286.088c-4.487 0-8.132 3.626-8.132 8.124 0 4.48 3.645 8.123 8.132 8.123 4.486 0 8.134-3.642 8.134-8.123 0-4.498-3.648-8.124-8.134-8.124M975.827 341.692c-2.805 0-5.083 2.259-5.083 5.06a5.084 5.084 0 0 0 10.166 0c0-2.801-2.278-5.06-5.083-5.06M1347.606 1463.274c-4.96 0-8.977 4.012-8.977 8.967 0 4.935 4.017 8.964 8.977 8.964s8.975-4.029 8.975-8.964c0-4.955-4.015-8.967-8.975-8.967M1802.842 802.29c-4.589 0-8.307 3.71-8.307 8.297 0 4.572 3.718 8.298 8.307 8.298 4.577 0 8.295-3.726 8.295-8.298a8.296 8.296 0 0 0-8.295-8.297M1527.44 1332.325c-4.188 0-7.591 3.395-7.591 7.577s3.403 7.581 7.592 7.581c4.19 0 7.588-3.399 7.588-7.58 0-4.183-3.397-7.578-7.588-7.578M1202.025 1439.677c-4.752 0-8.606 3.855-8.606 8.597 0 4.745 3.854 8.596 8.606 8.596 4.75 0 8.607-3.85 8.607-8.596 0-4.742-3.858-8.597-8.607-8.597M1214.295 1297.188a7.594 7.594 0 0 0-7.608 7.596c0 4.182 3.4 7.58 7.608 7.58 4.19 0 7.592-3.398 7.592-7.58 0-4.201-3.401-7.596-7.592-7.596M1404.1 1315.677a7.592 7.592 0 0 0-7.608 7.595c0 4.183 3.4 7.582 7.607 7.582a7.589 7.589 0 0 0 0-15.177M1258.454 377.827a5.35 5.35 0 0 0-5.346 5.34 5.354 5.354 0 0 0 5.346 5.358 5.363 5.363 0 0 0 5.365-5.358c0-2.941-2.405-5.34-5.365-5.34M1033.75 384.004c-2.947 0-5.346 2.398-5.346 5.34 0 2.96 2.4 5.358 5.346 5.358a5.363 5.363 0 0 0 5.365-5.359c0-2.94-2.405-5.339-5.365-5.339M1672.846 1245.75a5.927 5.927 0 0 0-5.924 5.935 5.91 5.91 0 0 0 5.924 5.916c3.278 0 5.943-2.642 5.943-5.916 0-3.274-2.665-5.936-5.943-5.936M1646.763 1212.662c-3.276 0-5.944 2.658-5.944 5.934a5.951 5.951 0 1 0 11.9 0c0-3.276-2.664-5.934-5.956-5.934M1766.365 1072.816c-4.642 0-8.431 3.78-8.431 8.419 0 4.64 3.79 8.419 8.431 8.419 4.646 0 8.416-3.78 8.416-8.42 0-4.639-3.77-8.418-8.416-8.418M1462.107 1252.77c-4.594 0-8.327 3.713-8.327 8.315 0 4.589 3.733 8.317 8.327 8.317 4.595 0 8.33-3.728 8.33-8.317 0-4.602-3.735-8.315-8.33-8.315M1781.09 719.427c-2.979 0-5.4 2.417-5.4 5.375a5.4 5.4 0 0 0 5.4 5.392c2.96 0 5.38-2.415 5.38-5.392 0-2.958-2.42-5.375-5.38-5.375M1736.828 585.674c0-4.466-3.629-8.07-8.098-8.07-4.453 0-8.083 3.604-8.083 8.07 0 4.462 3.63 8.069 8.083 8.069 4.47 0 8.098-3.607 8.098-8.07"/><path d="M1587.825 640.89a7.95 7.95 0 0 0-7.954 7.967c0 4.375 3.557 7.946 7.954 7.946 4.405 0 7.98-3.57 7.98-7.946 0-4.413-3.575-7.967-7.98-7.967M1700.122 1063.272c-3.015 0-5.453 2.436-5.453 5.428a5.442 5.442 0 0 0 5.453 5.442 5.437 5.437 0 0 0 5.433-5.442 5.436 5.436 0 0 0-5.433-5.428M1695.951 759.047a6.756 6.756 0 0 0-6.768-6.756c-3.733 0-6.744 3.026-6.744 6.756a6.738 6.738 0 0 0 6.744 6.758 6.748 6.748 0 0 0 6.768-6.758M1765.788 799.488a5.25 5.25 0 0 0 5.257-5.25 5.251 5.251 0 0 0-5.257-5.253 5.25 5.25 0 0 0-5.26 5.252 5.247 5.247 0 0 0 5.26 5.25M1738.544 654.95a6.963 6.963 0 0 0-6.958 6.968c0 3.832 3.12 6.949 6.958 6.949 3.86 0 6.979-3.117 6.979-6.95a6.967 6.967 0 0 0-6.98-6.967M1300.976 317.078c-2.77 0-5.01 2.258-5.01 5.023 0 2.768 2.24 5.026 5.01 5.026a5.027 5.027 0 0 0 5.03-5.026 5.027 5.027 0 0 0-5.03-5.023M1384.42 449.87a6.733 6.733 0 0 0-6.748 6.738 6.734 6.734 0 0 0 6.747 6.741 6.732 6.732 0 0 0 6.731-6.74 6.732 6.732 0 0 0-6.73-6.74M1531.295 444.232a6.054 6.054 0 0 0 6.064 6.058 6.038 6.038 0 0 0 6.049-6.058c0-3.325-2.699-6.057-6.049-6.057-3.344 0-6.064 2.732-6.064 6.057M1646.763 516.782a6.265 6.265 0 0 0-6.274 6.269 6.262 6.262 0 0 0 6.274 6.264c3.47 0 6.292-2.797 6.292-6.264s-2.822-6.269-6.292-6.269M1528.894 368.426c5.155 0 9.309-4.166 9.309-9.279a9.3 9.3 0 0 0-9.309-9.313c-5.119 0-9.29 4.166-9.29 9.313 0 5.113 4.171 9.28 9.29 9.28M796.345 1302.385a7.288 7.288 0 0 0-7.297 7.301c0 4.027 3.261 7.28 7.297 7.28 4.03 0 7.323-3.253 7.323-7.28 0-4.043-3.293-7.3-7.323-7.3M861.78 1248.079c3.435 0 6.222-2.767 6.222-6.197 0-3.433-2.787-6.198-6.223-6.198-3.418 0-6.206 2.765-6.206 6.198 0 3.43 2.788 6.197 6.206 6.197M578.382 970.464a5.11 5.11 0 0 0-5.119 5.11 5.1 5.1 0 0 0 5.12 5.113 5.099 5.099 0 0 0 5.118-5.112 5.109 5.109 0 0 0-5.119-5.11M615.896 923.3c0-2.75-2.245-4.99-4.996-4.99a4.99 4.99 0 0 0-4.994 4.99 4.993 4.993 0 0 0 4.994 5.006 5.006 5.006 0 0 0 4.996-5.007M613.97 1105.06a4.484 4.484 0 0 0-4.49 4.486 4.468 4.468 0 0 0 4.49 4.478 4.48 4.48 0 0 0 4.486-4.478 4.495 4.495 0 0 0-4.487-4.485M669.167 1110.384c-4.363 0-7.888 3.537-7.888 7.88 0 4.34 3.525 7.876 7.888 7.876 4.363 0 7.888-3.537 7.888-7.876 0-4.343-3.525-7.88-7.888-7.88M652.129 1177.019c-4.244 0-7.697 3.448-7.697 7.683 0 4.237 3.453 7.683 7.697 7.683 4.26 0 7.696-3.446 7.696-7.683 0-4.235-3.437-7.683-7.696-7.683M863.69 1360.211c-4.12 0-7.466 3.346-7.466 7.458a7.461 7.461 0 0 0 7.466 7.464 7.451 7.451 0 0 0 7.467-7.464 7.458 7.458 0 0 0-7.467-7.458M578.382 752.553c-4.977 0-9.028 4.044-9.028 9.016 0 4.973 4.051 9.017 9.028 9.017s9.028-4.044 9.028-9.017c0-4.972-4.05-9.016-9.028-9.016M630.323 591.958c-3.752 0-6.802 3.045-6.802 6.794 0 3.747 3.05 6.775 6.802 6.775a6.774 6.774 0 0 0 6.782-6.775c0-3.749-3.034-6.794-6.782-6.794M522.247 739.78c-.244 3.742 2.6 6.98 6.343 7.226 3.744.244 6.967-2.6 7.213-6.34a6.77 6.77 0 0 0-6.327-7.199c-3.742-.246-6.985 2.578-7.229 6.314M557.707 1125.998c2.004 3.168 6.212 4.117 9.384 2.116 3.172-2 4.106-6.196 2.1-9.362a6.78 6.78 0 0 0-9.357-2.11c-3.172 2.002-4.128 6.19-2.127 9.356M721.263 381.901a6.795 6.795 0 0 0 .481 9.595c2.784 2.514 7.08 2.285 9.594-.493a6.762 6.762 0 0 0-.48-9.57c-2.783-2.51-7.08-2.309-9.595.468M1778.995 390.2c-3.28-1.817-7.43-.63-9.248 2.643-1.82 3.28-.623 7.405 2.66 9.221a6.785 6.785 0 0 0 9.222-2.64c1.818-3.276.642-7.409-2.634-9.225M771.491 952.084c1.474-3.444-.13-7.444-3.581-8.918-3.449-1.473-7.435.137-8.91 3.583a6.767 6.767 0 0 0 3.571 8.893c3.449 1.474 7.447-.115 8.92-3.558M1446.683 1387.066c4.505-.78 7.534-5.069 6.757-9.567-.782-4.5-5.073-7.505-9.577-6.724a8.252 8.252 0 0 0-6.738 9.54c.78 4.5 5.058 7.53 9.558 6.751M1760.885 1260.635c-1.96 5.119-7.719 7.691-12.842 5.733-5.12-1.955-7.67-7.698-5.71-12.818 1.958-5.112 7.684-7.672 12.808-5.712 5.12 1.96 7.702 7.685 5.744 12.797M1096.762 432.38c0-3.554-2.892-6.425-6.452-6.425-3.54 0-6.448 2.87-6.448 6.425 0 3.554 2.908 6.425 6.448 6.425 3.56 0 6.452-2.871 6.452-6.425M1321.435 579.248a6.424 6.424 0 0 0-6.434 6.427 6.423 6.423 0 0 0 6.434 6.423c3.543 0 6.435-2.873 6.435-6.423 0-3.554-2.892-6.427-6.435-6.427M1094.062 616.415c-3.822 0-6.909 3.098-6.909 6.898a6.893 6.893 0 0 0 6.91 6.897 6.89 6.89 0 0 0 6.904-6.897c0-3.8-3.083-6.898-6.905-6.898M672.022 529.177a6.127 6.127 0 1 0 .022-12.255 6.127 6.127 0 0 0-.022 12.255M753.534 427.898c-2.454 0-4.484 2.012-4.484 4.483 0 2.468 2.03 4.48 4.484 4.48a4.483 4.483 0 0 0 4.492-4.48c0-2.47-2-4.483-4.492-4.483M974.467 409.067c-2.455 0-4.487 2.013-4.487 4.483 0 2.468 2.032 4.48 4.487 4.48a4.483 4.483 0 0 0 4.492-4.48c0-2.47-2-4.483-4.492-4.483M724.37 1227.437a6.264 6.264 0 0 0-6.277 6.269 6.279 6.279 0 0 0 6.276 6.285c3.47 0 6.29-2.82 6.29-6.285 0-3.466-2.82-6.269-6.29-6.269M724.37 910.31a4.833 4.833 0 0 0-4.841 4.83c0 2.661 2.172 4.833 4.84 4.833a4.835 4.835 0 0 0 4.837-4.833 4.824 4.824 0 0 0-4.837-4.83M937.243 502.531a4.77 4.77 0 0 0 4.769-4.76 4.77 4.77 0 0 0-4.769-4.763c-2.645 0-4.786 2.135-4.786 4.762 0 2.626 2.14 4.761 4.786 4.761M672.552 838.236c-5.5 0-9.954 4.43-9.954 9.92 0 5.477 4.455 9.925 9.954 9.925 5.481 0 9.916-4.448 9.916-9.924 0-5.491-4.435-9.92-9.916-9.92M775.186 1332.131c-2.966 0-5.347 2.382-5.347 5.321a5.325 5.325 0 0 0 5.347 5.322 5.325 5.325 0 0 0 5.327-5.322c0-2.94-2.386-5.32-5.327-5.32M630.323 722.702c-2.966 0-5.382 2.415-5.382 5.375 0 2.958 2.416 5.375 5.382 5.375 2.96 0 5.38-2.417 5.38-5.375 0-2.96-2.42-5.375-5.38-5.375M724.37 661.952a8.814 8.814 0 0 0-8.822 8.824c0 4.866 3.948 8.804 8.821 8.804 4.888 0 8.831-3.938 8.831-8.804a8.812 8.812 0 0 0-8.83-8.824M827.841 473.278c-4.33 0-7.85 3.518-7.85 7.841 0 4.326 3.52 7.827 7.85 7.827 4.333 0 7.839-3.5 7.839-7.827 0-4.323-3.506-7.841-7.839-7.841M906.746 378.626c-4.33 0-7.852 3.52-7.852 7.842 0 4.328 3.523 7.829 7.852 7.829 4.331 0 7.838-3.501 7.838-7.829 0-4.322-3.507-7.842-7.838-7.842M1033.767 492.82c-4.332 0-7.852 3.518-7.852 7.842 0 4.325 3.52 7.827 7.852 7.827 4.33 0 7.838-3.502 7.838-7.827 0-4.324-3.507-7.842-7.838-7.842M753.534 514.086c-2.454 0-4.484 1.995-4.484 4.48 0 2.454 2.03 4.483 4.484 4.483a4.495 4.495 0 0 0 4.492-4.483c0-2.485-2-4.48-4.492-4.48M1393.781 1388.07a6.892 6.892 0 0 1-6.891 6.884c-3.832 0-6.913-3.096-6.913-6.885a6.884 6.884 0 0 1 6.913-6.894 6.877 6.877 0 0 1 6.891 6.894"/></g></svg>