<svg id="Layer_1" xmlns="http://www.w3.org/2000/svg" viewBox="0 0 59 59"><style>.st0{fill:#314456}</style><path class="st0" d="M54.5 54.1h-50c-.3 0-.5.2-.5.5s.2.5.5.5h50c.3 0 .5-.2.5-.5s-.2-.5-.5-.5zM4.5 49.9h49.9c.3 0 .5-.2.5-.5s-.2-.5-.5-.5h-2.9v-4.7c0-.3-.2-.5-.5-.5h-2.9V22.3h4.7c.3 0 .5-.2.5-.5v-5.3c0-.1-.1-.1-.1-.1l-.1-.1L29.7 4.1c-.1-.1-.3-.1-.5 0L6 16.2s-.1 0-.1.1l-.1.1v5.3c0 .3.2.5.5.5H11v21.5H7.9c-.3 0-.5.2-.5.5v4.7H4.5c-.3 0-.5.2-.5.5s.2.5.5.5zm42.6-6.1h-2.4V22.3h2.4v21.5zm-9.3 0V22.3h5.9v21.5h-5.9zm-3.5 0V22.3h2.4v21.5h-2.4zm-8.6 0V22.3h7.6v21.5h-7.6zm-3.5 0V22.3h2.4v21.5h-2.4zm-6.9 0V22.3h5.9v21.5h-5.9zM29.5 5.1l21.2 11H8.3l21.2-11zm-22.8 12h45.6v4.2H6.7v-4.2zm5.2 5.2h2.4v21.5h-2.4V22.3zM8.4 44.8h42V49h-42v-4.2z"/></svg>