<?xml version="1.0" ?><!DOCTYPE svg  PUBLIC '-//W3C//DTD SVG 1.1//EN'  'http://www.w3.org/Graphics/SVG/1.1/DTD/svg11.dtd'><svg enable-background="new 0 0 512 512" height="512px" id="Calque_1" version="1.1" viewBox="0 0 512 512" width="512px" xml:space="preserve" xmlns="http://www.w3.org/2000/svg" xmlns:xlink="http://www.w3.org/1999/xlink"><g><g><path d="    M278.941,132.74c41.881,10.276,72.952,48.071,72.952,93.119v92.764l25.458,47.092H134.65l25.458-47.092V225.86    c0-45.048,31.061-82.843,72.941-93.119c4.555-7.89,10.642-18.438,14.592-25.266c4.597-7.964,12.122-7.964,16.718,0    C268.299,114.302,274.386,124.851,278.941,132.74z" fill="none" stroke="#127fc9" stroke-linecap="round" stroke-linejoin="round" stroke-miterlimit="10" stroke-width="7"/><path d="    M211.224,365.72c0,24.729,20.048,44.776,44.776,44.776c24.728,0,44.776-20.048,44.776-44.776" fill="none" stroke="#127fc9" stroke-dasharray="32.713,20.4457,1.0223,0,3.0669,32.7131" stroke-linecap="round" stroke-linejoin="round" stroke-miterlimit="10" stroke-width="7"/></g><path d="   M273.185,165.818c26.938,7.503,46.696,32.215,46.696,61.542v50.827" fill="none" stroke="#127fc9" stroke-dasharray="32.713,20.4457,1.0223,0,3.0669,32.7131" stroke-linecap="round" stroke-linejoin="round" stroke-miterlimit="10" stroke-width="7"/></g><g><circle cx="256.001" cy="256" fill="none" r="218.662" stroke="#127fc9" stroke-dasharray="32.7131,20.4457,1.0223,0,3.0669,32.7131" stroke-linecap="round" stroke-linejoin="round" stroke-width="7"/></g></svg>